<svg width="88" height="88" viewBox="0 0 88 88" fill="none" xmlns="http://www.w3.org/2000/svg">
<path d="M44 87.4669L1.46311 71.7323L44 56.531L86.5369 71.7323L44 87.4669Z" stroke="white"/>
<path d="M43.5 0.916992V2.49251H44.5V0.916992H43.5ZM43.5 5.64355V8.7946H44.5V5.64355H43.5ZM43.5 11.9456V15.0967H44.5V11.9456H43.5ZM43.5 18.2477V21.3988H44.5V18.2477H43.5ZM43.5 24.5498V27.7008H44.5V24.5498H43.5ZM43.5 30.8519V32.4274H44.5V30.8519H43.5Z" fill="white"/>
<circle opacity="0.4" cx="44" cy="44" r="28" fill="url(#paint0_linear_611_5389)"/>
<circle cx="44" cy="44" r="18" fill="url(#paint1_linear_611_5389)"/>
<path d="M44 31.4669L1.46311 15.7323L44 0.530969L86.5369 15.7323L44 31.4669Z" stroke="white"/>
<path d="M0 15.7266H1V71.7227H0V15.7266Z" fill="white"/>
<path d="M87 15.7266H88V71.7266H87V15.7266Z" fill="white"/>
<path d="M43.5 31.2188H44.5V87.2188H43.5V31.2188Z" fill="white"/>
<defs>
<linearGradient id="paint0_linear_611_5389" x1="72" y1="16" x2="16" y2="72" gradientUnits="userSpaceOnUse">
<stop offset="0.28125" stop-color="#57F906"/>
<stop offset="0.746094" stop-color="#00CCC0"/>
</linearGradient>
<linearGradient id="paint1_linear_611_5389" x1="62" y1="26" x2="26" y2="62" gradientUnits="userSpaceOnUse">
<stop offset="0.28125" stop-color="#57F906"/>
<stop offset="0.746094" stop-color="#00CCC0"/>
</linearGradient>
</defs>
</svg>
