<svg width="88" height="88" viewBox="0 0 88 88" fill="none" xmlns="http://www.w3.org/2000/svg">
<path d="M1.36 15V13.832H4.56V4.824H4.448L1.632 7.448L0.848 6.6L3.808 3.832H5.904V13.832H8.848V15H1.36ZM10.9538 15V13.832H14.1538V4.824H14.0418L11.2258 7.448L10.4418 6.6L13.4018 3.832H15.4978V13.832H18.4418V15H10.9538ZM23.9875 15.192C23.3048 15.192 22.7182 15.064 22.2275 14.808C21.7368 14.5413 21.3315 14.1627 21.0115 13.672C20.6915 13.1813 20.4568 12.5787 20.3075 11.864C20.1582 11.1493 20.0835 10.3333 20.0835 9.416C20.0835 8.50933 20.1582 7.69867 20.3075 6.984C20.4568 6.25867 20.6915 5.65067 21.0115 5.16C21.3315 4.66933 21.7368 4.296 22.2275 4.04C22.7182 3.77333 23.3048 3.64 23.9875 3.64C24.6702 3.64 25.2568 3.77333 25.7475 4.04C26.2382 4.296 26.6435 4.66933 26.9635 5.16C27.2835 5.65067 27.5182 6.25867 27.6675 6.984C27.8168 7.69867 27.8915 8.50933 27.8915 9.416C27.8915 10.3333 27.8168 11.1493 27.6675 11.864C27.5182 12.5787 27.2835 13.1813 26.9635 13.672C26.6435 14.1627 26.2382 14.5413 25.7475 14.808C25.2568 15.064 24.6702 15.192 23.9875 15.192ZM23.9875 14.024C24.4355 14.024 24.8195 13.9387 25.1395 13.768C25.4595 13.5867 25.7155 13.336 25.9075 13.016C26.1102 12.696 26.2595 12.312 26.3555 11.864C26.4515 11.4053 26.4995 10.8933 26.4995 10.328V8.504C26.4995 7.94933 26.4515 7.44267 26.3555 6.984C26.2595 6.52533 26.1102 6.136 25.9075 5.816C25.7155 5.496 25.4595 5.25067 25.1395 5.08C24.8195 4.89867 24.4355 4.808 23.9875 4.808C23.5395 4.808 23.1555 4.89867 22.8355 5.08C22.5155 5.25067 22.2542 5.496 22.0515 5.816C21.8595 6.136 21.7155 6.52533 21.6195 6.984C21.5235 7.44267 21.4755 7.94933 21.4755 8.504V10.328C21.4755 10.8933 21.5235 11.4053 21.6195 11.864C21.7155 12.312 21.8595 12.696 22.0515 13.016C22.2542 13.336 22.5155 13.5867 22.8355 13.768C23.1555 13.9387 23.5395 14.024 23.9875 14.024ZM23.9875 10.36C23.6142 10.36 23.3528 10.2853 23.2035 10.136C23.0648 9.98667 22.9955 9.80533 22.9955 9.592V9.24C22.9955 9.02667 23.0648 8.84533 23.2035 8.696C23.3528 8.54667 23.6142 8.472 23.9875 8.472C24.3608 8.472 24.6168 8.54667 24.7555 8.696C24.9048 8.84533 24.9795 9.02667 24.9795 9.24V9.592C24.9795 9.80533 24.9048 9.98667 24.7555 10.136C24.6168 10.2853 24.3608 10.36 23.9875 10.36ZM30.1413 15V13.832H33.3413V4.824H33.2293L30.4133 7.448L29.6293 6.6L32.5893 3.832H34.6853V13.832H37.6293V15H30.1413ZM43.175 15.192C42.4923 15.192 41.9057 15.064 41.415 14.808C40.9243 14.5413 40.519 14.1627 40.199 13.672C39.879 13.1813 39.6443 12.5787 39.495 11.864C39.3457 11.1493 39.271 10.3333 39.271 9.416C39.271 8.50933 39.3457 7.69867 39.495 6.984C39.6443 6.25867 39.879 5.65067 40.199 5.16C40.519 4.66933 40.9243 4.296 41.415 4.04C41.9057 3.77333 42.4923 3.64 43.175 3.64C43.8577 3.64 44.4443 3.77333 44.935 4.04C45.4257 4.296 45.831 4.66933 46.151 5.16C46.471 5.65067 46.7057 6.25867 46.855 6.984C47.0043 7.69867 47.079 8.50933 47.079 9.416C47.079 10.3333 47.0043 11.1493 46.855 11.864C46.7057 12.5787 46.471 13.1813 46.151 13.672C45.831 14.1627 45.4257 14.5413 44.935 14.808C44.4443 15.064 43.8577 15.192 43.175 15.192ZM43.175 14.024C43.623 14.024 44.007 13.9387 44.327 13.768C44.647 13.5867 44.903 13.336 45.095 13.016C45.2977 12.696 45.447 12.312 45.543 11.864C45.639 11.4053 45.687 10.8933 45.687 10.328V8.504C45.687 7.94933 45.639 7.44267 45.543 6.984C45.447 6.52533 45.2977 6.136 45.095 5.816C44.903 5.496 44.647 5.25067 44.327 5.08C44.007 4.89867 43.623 4.808 43.175 4.808C42.727 4.808 42.343 4.89867 42.023 5.08C41.703 5.25067 41.4417 5.496 41.239 5.816C41.047 6.136 40.903 6.52533 40.807 6.984C40.711 7.44267 40.663 7.94933 40.663 8.504V10.328C40.663 10.8933 40.711 11.4053 40.807 11.864C40.903 12.312 41.047 12.696 41.239 13.016C41.4417 13.336 41.703 13.5867 42.023 13.768C42.343 13.9387 42.727 14.024 43.175 14.024ZM43.175 10.36C42.8017 10.36 42.5403 10.2853 42.391 10.136C42.2523 9.98667 42.183 9.80533 42.183 9.592V9.24C42.183 9.02667 42.2523 8.84533 42.391 8.696C42.5403 8.54667 42.8017 8.472 43.175 8.472C43.5483 8.472 43.8043 8.54667 43.943 8.696C44.0923 8.84533 44.167 9.02667 44.167 9.24V9.592C44.167 9.80533 44.0923 9.98667 43.943 10.136C43.8043 10.2853 43.5483 10.36 43.175 10.36ZM52.7688 15.192C52.0861 15.192 51.4994 15.064 51.0088 14.808C50.5181 14.5413 50.1128 14.1627 49.7928 13.672C49.4728 13.1813 49.2381 12.5787 49.0888 11.864C48.9394 11.1493 48.8648 10.3333 48.8648 9.416C48.8648 8.50933 48.9394 7.69867 49.0888 6.984C49.2381 6.25867 49.4728 5.65067 49.7928 5.16C50.1128 4.66933 50.5181 4.296 51.0088 4.04C51.4994 3.77333 52.0861 3.64 52.7688 3.64C53.4514 3.64 54.0381 3.77333 54.5288 4.04C55.0194 4.296 55.4248 4.66933 55.7448 5.16C56.0648 5.65067 56.2994 6.25867 56.4488 6.984C56.5981 7.69867 56.6728 8.50933 56.6728 9.416C56.6728 10.3333 56.5981 11.1493 56.4488 11.864C56.2994 12.5787 56.0648 13.1813 55.7448 13.672C55.4248 14.1627 55.0194 14.5413 54.5288 14.808C54.0381 15.064 53.4514 15.192 52.7688 15.192ZM52.7688 14.024C53.2168 14.024 53.6008 13.9387 53.9208 13.768C54.2408 13.5867 54.4968 13.336 54.6888 13.016C54.8914 12.696 55.0408 12.312 55.1368 11.864C55.2328 11.4053 55.2808 10.8933 55.2808 10.328V8.504C55.2808 7.94933 55.2328 7.44267 55.1368 6.984C55.0408 6.52533 54.8914 6.136 54.6888 5.816C54.4968 5.496 54.2408 5.25067 53.9208 5.08C53.6008 4.89867 53.2168 4.808 52.7688 4.808C52.3208 4.808 51.9368 4.89867 51.6168 5.08C51.2968 5.25067 51.0354 5.496 50.8328 5.816C50.6408 6.136 50.4968 6.52533 50.4008 6.984C50.3048 7.44267 50.2568 7.94933 50.2568 8.504V10.328C50.2568 10.8933 50.3048 11.4053 50.4008 11.864C50.4968 12.312 50.6408 12.696 50.8328 13.016C51.0354 13.336 51.2968 13.5867 51.6168 13.768C51.9368 13.9387 52.3208 14.024 52.7688 14.024ZM52.7688 10.36C52.3954 10.36 52.1341 10.2853 51.9848 10.136C51.8461 9.98667 51.7768 9.80533 51.7768 9.592V9.24C51.7768 9.02667 51.8461 8.84533 51.9848 8.696C52.1341 8.54667 52.3954 8.472 52.7688 8.472C53.1421 8.472 53.3981 8.54667 53.5368 8.696C53.6861 8.84533 53.7608 9.02667 53.7608 9.24V9.592C53.7608 9.80533 53.6861 9.98667 53.5368 10.136C53.3981 10.2853 53.1421 10.36 52.7688 10.36ZM62.3625 15.192C61.6798 15.192 61.0932 15.064 60.6025 14.808C60.1118 14.5413 59.7065 14.1627 59.3865 13.672C59.0665 13.1813 58.8318 12.5787 58.6825 11.864C58.5332 11.1493 58.4585 10.3333 58.4585 9.416C58.4585 8.50933 58.5332 7.69867 58.6825 6.984C58.8318 6.25867 59.0665 5.65067 59.3865 5.16C59.7065 4.66933 60.1118 4.296 60.6025 4.04C61.0932 3.77333 61.6798 3.64 62.3625 3.64C63.0452 3.64 63.6318 3.77333 64.1225 4.04C64.6132 4.296 65.0185 4.66933 65.3385 5.16C65.6585 5.65067 65.8932 6.25867 66.0425 6.984C66.1918 7.69867 66.2665 8.50933 66.2665 9.416C66.2665 10.3333 66.1918 11.1493 66.0425 11.864C65.8932 12.5787 65.6585 13.1813 65.3385 13.672C65.0185 14.1627 64.6132 14.5413 64.1225 14.808C63.6318 15.064 63.0452 15.192 62.3625 15.192ZM62.3625 14.024C62.8105 14.024 63.1945 13.9387 63.5145 13.768C63.8345 13.5867 64.0905 13.336 64.2825 13.016C64.4852 12.696 64.6345 12.312 64.7305 11.864C64.8265 11.4053 64.8745 10.8933 64.8745 10.328V8.504C64.8745 7.94933 64.8265 7.44267 64.7305 6.984C64.6345 6.52533 64.4852 6.136 64.2825 5.816C64.0905 5.496 63.8345 5.25067 63.5145 5.08C63.1945 4.89867 62.8105 4.808 62.3625 4.808C61.9145 4.808 61.5305 4.89867 61.2105 5.08C60.8905 5.25067 60.6292 5.496 60.4265 5.816C60.2345 6.136 60.0905 6.52533 59.9945 6.984C59.8985 7.44267 59.8505 7.94933 59.8505 8.504V10.328C59.8505 10.8933 59.8985 11.4053 59.9945 11.864C60.0905 12.312 60.2345 12.696 60.4265 13.016C60.6292 13.336 60.8905 13.5867 61.2105 13.768C61.5305 13.9387 61.9145 14.024 62.3625 14.024ZM62.3625 10.36C61.9892 10.36 61.7278 10.2853 61.5785 10.136C61.4398 9.98667 61.3705 9.80533 61.3705 9.592V9.24C61.3705 9.02667 61.4398 8.84533 61.5785 8.696C61.7278 8.54667 61.9892 8.472 62.3625 8.472C62.7358 8.472 62.9918 8.54667 63.1305 8.696C63.2798 8.84533 63.3545 9.02667 63.3545 9.24V9.592C63.3545 9.80533 63.2798 9.98667 63.1305 10.136C62.9918 10.2853 62.7358 10.36 62.3625 10.36ZM71.9563 15.192C71.2736 15.192 70.6869 15.064 70.1963 14.808C69.7056 14.5413 69.3003 14.1627 68.9803 13.672C68.6603 13.1813 68.4256 12.5787 68.2763 11.864C68.1269 11.1493 68.0523 10.3333 68.0523 9.416C68.0523 8.50933 68.1269 7.69867 68.2763 6.984C68.4256 6.25867 68.6603 5.65067 68.9803 5.16C69.3003 4.66933 69.7056 4.296 70.1963 4.04C70.6869 3.77333 71.2736 3.64 71.9563 3.64C72.6389 3.64 73.2256 3.77333 73.7163 4.04C74.2069 4.296 74.6123 4.66933 74.9323 5.16C75.2523 5.65067 75.4869 6.25867 75.6363 6.984C75.7856 7.69867 75.8603 8.50933 75.8603 9.416C75.8603 10.3333 75.7856 11.1493 75.6363 11.864C75.4869 12.5787 75.2523 13.1813 74.9323 13.672C74.6123 14.1627 74.2069 14.5413 73.7163 14.808C73.2256 15.064 72.6389 15.192 71.9563 15.192ZM71.9563 14.024C72.4043 14.024 72.7883 13.9387 73.1083 13.768C73.4283 13.5867 73.6843 13.336 73.8763 13.016C74.0789 12.696 74.2283 12.312 74.3243 11.864C74.4203 11.4053 74.4683 10.8933 74.4683 10.328V8.504C74.4683 7.94933 74.4203 7.44267 74.3243 6.984C74.2283 6.52533 74.0789 6.136 73.8763 5.816C73.6843 5.496 73.4283 5.25067 73.1083 5.08C72.7883 4.89867 72.4043 4.808 71.9563 4.808C71.5083 4.808 71.1243 4.89867 70.8043 5.08C70.4843 5.25067 70.2229 5.496 70.0203 5.816C69.8283 6.136 69.6843 6.52533 69.5883 6.984C69.4923 7.44267 69.4443 7.94933 69.4443 8.504V10.328C69.4443 10.8933 69.4923 11.4053 69.5883 11.864C69.6843 12.312 69.8283 12.696 70.0203 13.016C70.2229 13.336 70.4843 13.5867 70.8043 13.768C71.1243 13.9387 71.5083 14.024 71.9563 14.024ZM71.9563 10.36C71.5829 10.36 71.3216 10.2853 71.1723 10.136C71.0336 9.98667 70.9643 9.80533 70.9643 9.592V9.24C70.9643 9.02667 71.0336 8.84533 71.1723 8.696C71.3216 8.54667 71.5829 8.472 71.9563 8.472C72.3296 8.472 72.5856 8.54667 72.7243 8.696C72.8736 8.84533 72.9483 9.02667 72.9483 9.24V9.592C72.9483 9.80533 72.8736 9.98667 72.7243 10.136C72.5856 10.2853 72.3296 10.36 71.9563 10.36ZM78.11 15V13.832H81.31V4.824H81.198L78.382 7.448L77.598 6.6L80.558 3.832H82.654V13.832H85.598V15H78.11ZM1.36 33V31.832H4.56V22.824H4.448L1.632 25.448L0.848 24.6L3.808 21.832H5.904V31.832H8.848V33H1.36ZM78.11 33V31.832H81.31V22.824H81.198L78.382 25.448L77.598 24.6L80.558 21.832H82.654V31.832H85.598V33H78.11ZM4.8 51.192C4.11733 51.192 3.53067 51.064 3.04 50.808C2.54933 50.5413 2.144 50.1627 1.824 49.672C1.504 49.1813 1.26933 48.5787 1.12 47.864C0.970667 47.1493 0.896 46.3333 0.896 45.416C0.896 44.5093 0.970667 43.6987 1.12 42.984C1.26933 42.2587 1.504 41.6507 1.824 41.16C2.144 40.6693 2.54933 40.296 3.04 40.04C3.53067 39.7733 4.11733 39.64 4.8 39.64C5.48267 39.64 6.06933 39.7733 6.56 40.04C7.05067 40.296 7.456 40.6693 7.776 41.16C8.096 41.6507 8.33067 42.2587 8.48 42.984C8.62933 43.6987 8.704 44.5093 8.704 45.416C8.704 46.3333 8.62933 47.1493 8.48 47.864C8.33067 48.5787 8.096 49.1813 7.776 49.672C7.456 50.1627 7.05067 50.5413 6.56 50.808C6.06933 51.064 5.48267 51.192 4.8 51.192ZM4.8 50.024C5.248 50.024 5.632 49.9387 5.952 49.768C6.272 49.5867 6.528 49.336 6.72 49.016C6.92267 48.696 7.072 48.312 7.168 47.864C7.264 47.4053 7.312 46.8933 7.312 46.328V44.504C7.312 43.9493 7.264 43.4427 7.168 42.984C7.072 42.5253 6.92267 42.136 6.72 41.816C6.528 41.496 6.272 41.2507 5.952 41.08C5.632 40.8987 5.248 40.808 4.8 40.808C4.352 40.808 3.968 40.8987 3.648 41.08C3.328 41.2507 3.06667 41.496 2.864 41.816C2.672 42.136 2.528 42.5253 2.432 42.984C2.336 43.4427 2.288 43.9493 2.288 44.504V46.328C2.288 46.8933 2.336 47.4053 2.432 47.864C2.528 48.312 2.672 48.696 2.864 49.016C3.06667 49.336 3.328 49.5867 3.648 49.768C3.968 49.9387 4.352 50.024 4.8 50.024ZM4.8 46.36C4.42667 46.36 4.16533 46.2853 4.016 46.136C3.87733 45.9867 3.808 45.8053 3.808 45.592V45.24C3.808 45.0267 3.87733 44.8453 4.016 44.696C4.16533 44.5467 4.42667 44.472 4.8 44.472C5.17333 44.472 5.42933 44.5467 5.568 44.696C5.71733 44.8453 5.792 45.0267 5.792 45.24V45.592C5.792 45.8053 5.71733 45.9867 5.568 46.136C5.42933 46.2853 5.17333 46.36 4.8 46.36ZM78.11 51V49.832H81.31V40.824H81.198L78.382 43.448L77.598 42.6L80.558 39.832H82.654V49.832H85.598V51H78.11ZM4.8 69.192C4.11733 69.192 3.53067 69.064 3.04 68.808C2.54933 68.5413 2.144 68.1627 1.824 67.672C1.504 67.1813 1.26933 66.5787 1.12 65.864C0.970667 65.1493 0.896 64.3333 0.896 63.416C0.896 62.5093 0.970667 61.6987 1.12 60.984C1.26933 60.2587 1.504 59.6507 1.824 59.16C2.144 58.6693 2.54933 58.296 3.04 58.04C3.53067 57.7733 4.11733 57.64 4.8 57.64C5.48267 57.64 6.06933 57.7733 6.56 58.04C7.05067 58.296 7.456 58.6693 7.776 59.16C8.096 59.6507 8.33067 60.2587 8.48 60.984C8.62933 61.6987 8.704 62.5093 8.704 63.416C8.704 64.3333 8.62933 65.1493 8.48 65.864C8.33067 66.5787 8.096 67.1813 7.776 67.672C7.456 68.1627 7.05067 68.5413 6.56 68.808C6.06933 69.064 5.48267 69.192 4.8 69.192ZM4.8 68.024C5.248 68.024 5.632 67.9387 5.952 67.768C6.272 67.5867 6.528 67.336 6.72 67.016C6.92267 66.696 7.072 66.312 7.168 65.864C7.264 65.4053 7.312 64.8933 7.312 64.328V62.504C7.312 61.9493 7.264 61.4427 7.168 60.984C7.072 60.5253 6.92267 60.136 6.72 59.816C6.528 59.496 6.272 59.2507 5.952 59.08C5.632 58.8987 5.248 58.808 4.8 58.808C4.352 58.808 3.968 58.8987 3.648 59.08C3.328 59.2507 3.06667 59.496 2.864 59.816C2.672 60.136 2.528 60.5253 2.432 60.984C2.336 61.4427 2.288 61.9493 2.288 62.504V64.328C2.288 64.8933 2.336 65.4053 2.432 65.864C2.528 66.312 2.672 66.696 2.864 67.016C3.06667 67.336 3.328 67.5867 3.648 67.768C3.968 67.9387 4.352 68.024 4.8 68.024ZM4.8 64.36C4.42667 64.36 4.16533 64.2853 4.016 64.136C3.87733 63.9867 3.808 63.8053 3.808 63.592V63.24C3.808 63.0267 3.87733 62.8453 4.016 62.696C4.16533 62.5467 4.42667 62.472 4.8 62.472C5.17333 62.472 5.42933 62.5467 5.568 62.696C5.71733 62.8453 5.792 63.0267 5.792 63.24V63.592C5.792 63.8053 5.71733 63.9867 5.568 64.136C5.42933 64.2853 5.17333 64.36 4.8 64.36ZM81.55 69.192C80.8673 69.192 80.2807 69.064 79.79 68.808C79.2993 68.5413 78.894 68.1627 78.574 67.672C78.254 67.1813 78.0193 66.5787 77.87 65.864C77.7207 65.1493 77.646 64.3333 77.646 63.416C77.646 62.5093 77.7207 61.6987 77.87 60.984C78.0193 60.2587 78.254 59.6507 78.574 59.16C78.894 58.6693 79.2993 58.296 79.79 58.04C80.2807 57.7733 80.8673 57.64 81.55 57.64C82.2327 57.64 82.8193 57.7733 83.31 58.04C83.8007 58.296 84.206 58.6693 84.526 59.16C84.846 59.6507 85.0807 60.2587 85.23 60.984C85.3793 61.6987 85.454 62.5093 85.454 63.416C85.454 64.3333 85.3793 65.1493 85.23 65.864C85.0807 66.5787 84.846 67.1813 84.526 67.672C84.206 68.1627 83.8007 68.5413 83.31 68.808C82.8193 69.064 82.2327 69.192 81.55 69.192ZM81.55 68.024C81.998 68.024 82.382 67.9387 82.702 67.768C83.022 67.5867 83.278 67.336 83.47 67.016C83.6727 66.696 83.822 66.312 83.918 65.864C84.014 65.4053 84.062 64.8933 84.062 64.328V62.504C84.062 61.9493 84.014 61.4427 83.918 60.984C83.822 60.5253 83.6727 60.136 83.47 59.816C83.278 59.496 83.022 59.2507 82.702 59.08C82.382 58.8987 81.998 58.808 81.55 58.808C81.102 58.808 80.718 58.8987 80.398 59.08C80.078 59.2507 79.8167 59.496 79.614 59.816C79.422 60.136 79.278 60.5253 79.182 60.984C79.086 61.4427 79.038 61.9493 79.038 62.504V64.328C79.038 64.8933 79.086 65.4053 79.182 65.864C79.278 66.312 79.422 66.696 79.614 67.016C79.8167 67.336 80.078 67.5867 80.398 67.768C80.718 67.9387 81.102 68.024 81.55 68.024ZM81.55 64.36C81.1767 64.36 80.9153 64.2853 80.766 64.136C80.6273 63.9867 80.558 63.8053 80.558 63.592V63.24C80.558 63.0267 80.6273 62.8453 80.766 62.696C80.9153 62.5467 81.1767 62.472 81.55 62.472C81.9233 62.472 82.1793 62.5467 82.318 62.696C82.4673 62.8453 82.542 63.0267 82.542 63.24V63.592C82.542 63.8053 82.4673 63.9867 82.318 64.136C82.1793 64.2853 81.9233 64.36 81.55 64.36ZM1.36 87V85.832H4.56V76.824H4.448L1.632 79.448L0.848 78.6L3.808 75.832H5.904V85.832H8.848V87H1.36ZM10.9538 87V85.832H14.1538V76.824H14.0418L11.2258 79.448L10.4418 78.6L13.4018 75.832H15.4978V85.832H18.4418V87H10.9538ZM23.9875 87.192C23.3048 87.192 22.7182 87.064 22.2275 86.808C21.7368 86.5413 21.3315 86.1627 21.0115 85.672C20.6915 85.1813 20.4568 84.5787 20.3075 83.864C20.1582 83.1493 20.0835 82.3333 20.0835 81.416C20.0835 80.5093 20.1582 79.6987 20.3075 78.984C20.4568 78.2587 20.6915 77.6507 21.0115 77.16C21.3315 76.6693 21.7368 76.296 22.2275 76.04C22.7182 75.7733 23.3048 75.64 23.9875 75.64C24.6702 75.64 25.2568 75.7733 25.7475 76.04C26.2382 76.296 26.6435 76.6693 26.9635 77.16C27.2835 77.6507 27.5182 78.2587 27.6675 78.984C27.8168 79.6987 27.8915 80.5093 27.8915 81.416C27.8915 82.3333 27.8168 83.1493 27.6675 83.864C27.5182 84.5787 27.2835 85.1813 26.9635 85.672C26.6435 86.1627 26.2382 86.5413 25.7475 86.808C25.2568 87.064 24.6702 87.192 23.9875 87.192ZM23.9875 86.024C24.4355 86.024 24.8195 85.9387 25.1395 85.768C25.4595 85.5867 25.7155 85.336 25.9075 85.016C26.1102 84.696 26.2595 84.312 26.3555 83.864C26.4515 83.4053 26.4995 82.8933 26.4995 82.328V80.504C26.4995 79.9493 26.4515 79.4427 26.3555 78.984C26.2595 78.5253 26.1102 78.136 25.9075 77.816C25.7155 77.496 25.4595 77.2507 25.1395 77.08C24.8195 76.8987 24.4355 76.808 23.9875 76.808C23.5395 76.808 23.1555 76.8987 22.8355 77.08C22.5155 77.2507 22.2542 77.496 22.0515 77.816C21.8595 78.136 21.7155 78.5253 21.6195 78.984C21.5235 79.4427 21.4755 79.9493 21.4755 80.504V82.328C21.4755 82.8933 21.5235 83.4053 21.6195 83.864C21.7155 84.312 21.8595 84.696 22.0515 85.016C22.2542 85.336 22.5155 85.5867 22.8355 85.768C23.1555 85.9387 23.5395 86.024 23.9875 86.024ZM23.9875 82.36C23.6142 82.36 23.3528 82.2853 23.2035 82.136C23.0648 81.9867 22.9955 81.8053 22.9955 81.592V81.24C22.9955 81.0267 23.0648 80.8453 23.2035 80.696C23.3528 80.5467 23.6142 80.472 23.9875 80.472C24.3608 80.472 24.6168 80.5467 24.7555 80.696C24.9048 80.8453 24.9795 81.0267 24.9795 81.24V81.592C24.9795 81.8053 24.9048 81.9867 24.7555 82.136C24.6168 82.2853 24.3608 82.36 23.9875 82.36ZM30.1413 87V85.832H33.3413V76.824H33.2293L30.4133 79.448L29.6293 78.6L32.5893 75.832H34.6853V85.832H37.6293V87H30.1413ZM39.735 87V85.832H42.935V76.824H42.823L40.007 79.448L39.223 78.6L42.183 75.832H44.279V85.832H47.223V87H39.735ZM52.7688 87.192C52.0861 87.192 51.4994 87.064 51.0088 86.808C50.5181 86.5413 50.1128 86.1627 49.7928 85.672C49.4728 85.1813 49.2381 84.5787 49.0888 83.864C48.9394 83.1493 48.8648 82.3333 48.8648 81.416C48.8648 80.5093 48.9394 79.6987 49.0888 78.984C49.2381 78.2587 49.4728 77.6507 49.7928 77.16C50.1128 76.6693 50.5181 76.296 51.0088 76.04C51.4994 75.7733 52.0861 75.64 52.7688 75.64C53.4514 75.64 54.0381 75.7733 54.5288 76.04C55.0194 76.296 55.4248 76.6693 55.7448 77.16C56.0648 77.6507 56.2994 78.2587 56.4488 78.984C56.5981 79.6987 56.6728 80.5093 56.6728 81.416C56.6728 82.3333 56.5981 83.1493 56.4488 83.864C56.2994 84.5787 56.0648 85.1813 55.7448 85.672C55.4248 86.1627 55.0194 86.5413 54.5288 86.808C54.0381 87.064 53.4514 87.192 52.7688 87.192ZM52.7688 86.024C53.2168 86.024 53.6008 85.9387 53.9208 85.768C54.2408 85.5867 54.4968 85.336 54.6888 85.016C54.8914 84.696 55.0408 84.312 55.1368 83.864C55.2328 83.4053 55.2808 82.8933 55.2808 82.328V80.504C55.2808 79.9493 55.2328 79.4427 55.1368 78.984C55.0408 78.5253 54.8914 78.136 54.6888 77.816C54.4968 77.496 54.2408 77.2507 53.9208 77.08C53.6008 76.8987 53.2168 76.808 52.7688 76.808C52.3208 76.808 51.9368 76.8987 51.6168 77.08C51.2968 77.2507 51.0354 77.496 50.8328 77.816C50.6408 78.136 50.4968 78.5253 50.4008 78.984C50.3048 79.4427 50.2568 79.9493 50.2568 80.504V82.328C50.2568 82.8933 50.3048 83.4053 50.4008 83.864C50.4968 84.312 50.6408 84.696 50.8328 85.016C51.0354 85.336 51.2968 85.5867 51.6168 85.768C51.9368 85.9387 52.3208 86.024 52.7688 86.024ZM52.7688 82.36C52.3954 82.36 52.1341 82.2853 51.9848 82.136C51.8461 81.9867 51.7768 81.8053 51.7768 81.592V81.24C51.7768 81.0267 51.8461 80.8453 51.9848 80.696C52.1341 80.5467 52.3954 80.472 52.7688 80.472C53.1421 80.472 53.3981 80.5467 53.5368 80.696C53.6861 80.8453 53.7608 81.0267 53.7608 81.24V81.592C53.7608 81.8053 53.6861 81.9867 53.5368 82.136C53.3981 82.2853 53.1421 82.36 52.7688 82.36ZM62.3625 87.192C61.6798 87.192 61.0932 87.064 60.6025 86.808C60.1118 86.5413 59.7065 86.1627 59.3865 85.672C59.0665 85.1813 58.8318 84.5787 58.6825 83.864C58.5332 83.1493 58.4585 82.3333 58.4585 81.416C58.4585 80.5093 58.5332 79.6987 58.6825 78.984C58.8318 78.2587 59.0665 77.6507 59.3865 77.16C59.7065 76.6693 60.1118 76.296 60.6025 76.04C61.0932 75.7733 61.6798 75.64 62.3625 75.64C63.0452 75.64 63.6318 75.7733 64.1225 76.04C64.6132 76.296 65.0185 76.6693 65.3385 77.16C65.6585 77.6507 65.8932 78.2587 66.0425 78.984C66.1918 79.6987 66.2665 80.5093 66.2665 81.416C66.2665 82.3333 66.1918 83.1493 66.0425 83.864C65.8932 84.5787 65.6585 85.1813 65.3385 85.672C65.0185 86.1627 64.6132 86.5413 64.1225 86.808C63.6318 87.064 63.0452 87.192 62.3625 87.192ZM62.3625 86.024C62.8105 86.024 63.1945 85.9387 63.5145 85.768C63.8345 85.5867 64.0905 85.336 64.2825 85.016C64.4852 84.696 64.6345 84.312 64.7305 83.864C64.8265 83.4053 64.8745 82.8933 64.8745 82.328V80.504C64.8745 79.9493 64.8265 79.4427 64.7305 78.984C64.6345 78.5253 64.4852 78.136 64.2825 77.816C64.0905 77.496 63.8345 77.2507 63.5145 77.08C63.1945 76.8987 62.8105 76.808 62.3625 76.808C61.9145 76.808 61.5305 76.8987 61.2105 77.08C60.8905 77.2507 60.6292 77.496 60.4265 77.816C60.2345 78.136 60.0905 78.5253 59.9945 78.984C59.8985 79.4427 59.8505 79.9493 59.8505 80.504V82.328C59.8505 82.8933 59.8985 83.4053 59.9945 83.864C60.0905 84.312 60.2345 84.696 60.4265 85.016C60.6292 85.336 60.8905 85.5867 61.2105 85.768C61.5305 85.9387 61.9145 86.024 62.3625 86.024ZM62.3625 82.36C61.9892 82.36 61.7278 82.2853 61.5785 82.136C61.4398 81.9867 61.3705 81.8053 61.3705 81.592V81.24C61.3705 81.0267 61.4398 80.8453 61.5785 80.696C61.7278 80.5467 61.9892 80.472 62.3625 80.472C62.7358 80.472 62.9918 80.5467 63.1305 80.696C63.2798 80.8453 63.3545 81.0267 63.3545 81.24V81.592C63.3545 81.8053 63.2798 81.9867 63.1305 82.136C62.9918 82.2853 62.7358 82.36 62.3625 82.36ZM71.9563 87.192C71.2736 87.192 70.6869 87.064 70.1963 86.808C69.7056 86.5413 69.3003 86.1627 68.9803 85.672C68.6603 85.1813 68.4256 84.5787 68.2763 83.864C68.1269 83.1493 68.0523 82.3333 68.0523 81.416C68.0523 80.5093 68.1269 79.6987 68.2763 78.984C68.4256 78.2587 68.6603 77.6507 68.9803 77.16C69.3003 76.6693 69.7056 76.296 70.1963 76.04C70.6869 75.7733 71.2736 75.64 71.9563 75.64C72.6389 75.64 73.2256 75.7733 73.7163 76.04C74.2069 76.296 74.6123 76.6693 74.9323 77.16C75.2523 77.6507 75.4869 78.2587 75.6363 78.984C75.7856 79.6987 75.8603 80.5093 75.8603 81.416C75.8603 82.3333 75.7856 83.1493 75.6363 83.864C75.4869 84.5787 75.2523 85.1813 74.9323 85.672C74.6123 86.1627 74.2069 86.5413 73.7163 86.808C73.2256 87.064 72.6389 87.192 71.9563 87.192ZM71.9563 86.024C72.4043 86.024 72.7883 85.9387 73.1083 85.768C73.4283 85.5867 73.6843 85.336 73.8763 85.016C74.0789 84.696 74.2283 84.312 74.3243 83.864C74.4203 83.4053 74.4683 82.8933 74.4683 82.328V80.504C74.4683 79.9493 74.4203 79.4427 74.3243 78.984C74.2283 78.5253 74.0789 78.136 73.8763 77.816C73.6843 77.496 73.4283 77.2507 73.1083 77.08C72.7883 76.8987 72.4043 76.808 71.9563 76.808C71.5083 76.808 71.1243 76.8987 70.8043 77.08C70.4843 77.2507 70.2229 77.496 70.0203 77.816C69.8283 78.136 69.6843 78.5253 69.5883 78.984C69.4923 79.4427 69.4443 79.9493 69.4443 80.504V82.328C69.4443 82.8933 69.4923 83.4053 69.5883 83.864C69.6843 84.312 69.8283 84.696 70.0203 85.016C70.2229 85.336 70.4843 85.5867 70.8043 85.768C71.1243 85.9387 71.5083 86.024 71.9563 86.024ZM71.9563 82.36C71.5829 82.36 71.3216 82.2853 71.1723 82.136C71.0336 81.9867 70.9643 81.8053 70.9643 81.592V81.24C70.9643 81.0267 71.0336 80.8453 71.1723 80.696C71.3216 80.5467 71.5829 80.472 71.9563 80.472C72.3296 80.472 72.5856 80.5467 72.7243 80.696C72.8736 80.8453 72.9483 81.0267 72.9483 81.24V81.592C72.9483 81.8053 72.8736 81.9867 72.7243 82.136C72.5856 82.2853 72.3296 82.36 71.9563 82.36ZM78.11 87V85.832H81.31V76.824H81.198L78.382 79.448L77.598 78.6L80.558 75.832H82.654V85.832H85.598V87H78.11Z" fill="white"/>
<path fill-rule="evenodd" clip-rule="evenodd" d="M16 21.5H15.5V22V23.7143H16.5V22.5H17.75V21.5H16ZM24.75 21.5H21.25V22.5H24.75V21.5ZM31.75 21.5H28.25V22.5H31.75V21.5ZM38.75 21.5H35.25V22.5H38.75V21.5ZM45.75 21.5H42.25V22.5H45.75V21.5ZM52.75 21.5H49.25V22.5H52.75V21.5ZM59.75 21.5H56.25V22.5H59.75V21.5ZM66.75 21.5H63.25V22.5H66.75V21.5ZM72 21.5H70.25V22.5H71.5V23.7143H72.5V22V21.5H72ZM15.5 27.1429V30.5714H16.5V27.1429H15.5ZM72.5 30.5714V27.1429H71.5V30.5714H72.5ZM15.5 34V37.4286H16.5V34H15.5ZM72.5 37.4286V34H71.5V37.4286H72.5ZM15.5 40.8571V44.2857H16.5V40.8571H15.5ZM72.5 44.2857V40.8571H71.5V44.2857H72.5ZM72.5 51.1429V47.7143H71.5V51.1429H72.5ZM15.5 47.7143V51.1429H16.5V47.7143H15.5ZM15.5 54.5714V58H16.5V54.5714H15.5ZM72.5 58V54.5714H71.5V58H72.5ZM15.5 61.4286V64.8571H16.5V61.4286H15.5ZM72.5 64.8571V61.4286H71.5V64.8571H72.5ZM15.5 68.2857V70V70.5H16H17.75V69.5H16.5V68.2857H15.5ZM72.5 70V68.2857H71.5V69.5H70.25V70.5H72H72.5V70ZM21.25 70.5H24.75V69.5H21.25V70.5ZM28.25 70.5H31.75V69.5H28.25V70.5ZM35.25 70.5H38.75V69.5H35.25V70.5ZM42.25 70.5H45.75V69.5H42.25V70.5ZM49.25 70.5H52.75V69.5H49.25V70.5ZM56.25 70.5H59.75V69.5H56.25V70.5Z" fill="white"/>
<circle cx="38" cy="44" r="16" stroke="url(#paint0_linear_611_5412)" stroke-width="4"/>
<path d="M63.95 70.5L63.95 43.3999L35 43.3999M35 43.3999L40.5 47.7999M35 43.3999L40.5 38.9999" stroke="white" stroke-width="2"/>
<defs>
<linearGradient id="paint0_linear_611_5412" x1="56" y1="26" x2="20" y2="62" gradientUnits="userSpaceOnUse">
<stop offset="0.167969" stop-color="#F14AFF"/>
<stop offset="0.859375" stop-color="#401AFF"/>
</linearGradient>
</defs>
</svg>
