<svg width="25" height="24" viewBox="0 0 25 24" fill="none" xmlns="http://www.w3.org/2000/svg">
<path fill-rule="evenodd" clip-rule="evenodd" d="M12.5599 6.36074e-06C9.57825 -0.00296524 6.69296 1.03535 4.42109 2.92889C2.14923 4.82242 0.639302 7.4474 0.1619 10.3334C-0.315501 13.2194 0.270829 16.1778 1.81582 18.6784C3.3608 21.179 5.76346 23.0584 8.59321 23.9798C9.2248 24.0931 9.44817 23.7079 9.44817 23.3831C9.44817 23.0583 9.44817 22.3182 9.44817 21.291C5.9436 22.0387 5.20417 19.637 5.20417 19.637C4.97167 18.8926 4.47774 18.2531 3.81004 17.8319C2.6778 17.0766 3.90247 17.0766 3.90247 17.0766C4.29937 17.1316 4.67831 17.2744 5.01059 17.4942C5.34288 17.7141 5.61979 18.0052 5.82036 18.3455C5.99078 18.6485 6.22055 18.9155 6.49647 19.1312C6.7724 19.347 7.08905 19.5071 7.42826 19.6026C7.76747 19.698 8.12256 19.7268 8.47315 19.6874C8.82374 19.6479 9.16294 19.541 9.47127 19.3726C9.51962 18.7513 9.79278 18.1674 10.2415 17.7262C7.45326 17.4165 4.52636 16.3591 4.52636 11.684C4.50722 10.4627 4.96777 9.28099 5.81266 8.38349C5.43636 7.3216 5.48034 6.15988 5.93589 5.12828C5.93589 5.12828 6.99112 4.79596 9.38655 6.38958C11.4435 5.83578 13.6147 5.83578 15.6717 6.38958C18.0671 4.79596 19.1146 5.12828 19.1146 5.12828C19.5765 6.14897 19.6315 7.30235 19.2687 8.36083C20.1136 9.25834 20.5741 10.4401 20.555 11.6614C20.555 16.3893 17.6204 17.424 14.8244 17.7035C15.1242 17.999 15.3557 18.3543 15.5032 18.7452C15.6507 19.1361 15.7108 19.5536 15.6794 19.9693C15.6794 21.6158 15.6794 22.9451 15.6794 23.3454C15.6794 23.7456 15.9027 24.0553 16.542 23.9345C19.3396 22.9888 21.7062 21.1041 23.2239 18.6132C24.7416 16.1223 25.3127 13.1856 24.8363 10.3219C24.3598 7.45814 22.8665 4.85167 20.6201 2.96295C18.3738 1.07422 15.5189 0.024771 12.5599 6.36074e-06Z" fill="currentColor"/>
</svg>
