<svg width="104" height="104" viewBox="0 0 104 104" fill="none" xmlns="http://www.w3.org/2000/svg">
<circle cx="52" cy="52" r="52" fill="#6A76FB"/>
<path d="M70.6308 34.5472C76.8423 43.7001 79.91 54.0244 78.7632 65.9099C78.7584 65.9602 78.7323 66.0064 78.691 66.0367C73.9871 69.4983 69.4297 71.5991 64.9362 72.9923C64.9012 73.003 64.8638 73.0024 64.8292 72.9907C64.7945 72.9789 64.7644 72.9566 64.743 72.9269C63.7049 71.4793 62.7617 69.9531 61.9353 68.3504C61.8879 68.256 61.9312 68.1423 62.0288 68.1051C63.5269 67.5394 64.9514 66.8615 66.3215 66.0587C66.4295 65.9954 66.4363 65.8403 66.3367 65.7659C66.0458 65.5496 65.7578 65.3222 65.4821 65.0948C65.4305 65.0528 65.3611 65.0445 65.3027 65.0728C56.4071 69.1896 46.6625 69.1896 37.6618 65.0728C37.6033 65.0466 37.5339 65.0555 37.4837 65.0969C37.2087 65.3243 36.92 65.5496 36.6319 65.7659C36.5322 65.8403 36.5405 65.9954 36.6491 66.0587C38.0193 66.8463 39.4438 67.5394 40.9398 68.1079C41.0367 68.1451 41.0828 68.256 41.0346 68.3504C40.2261 69.9551 39.2829 71.4813 38.2255 72.9289C38.1795 72.9875 38.1038 73.0144 38.0323 72.9923C33.5602 71.5991 29.0027 69.4983 24.2989 66.0367C24.2597 66.0064 24.2315 65.9581 24.2274 65.9079C23.269 55.627 25.2222 45.2173 32.3522 34.5451C32.3694 34.5169 32.3955 34.4948 32.4258 34.4818C35.9341 32.8681 39.6926 31.6809 43.621 31.0029C43.6925 30.9919 43.764 31.025 43.8011 31.0883C44.2865 31.9496 44.8413 33.0541 45.2167 33.9567C49.3575 33.3228 53.5629 33.3228 57.7904 33.9567C58.1657 33.0734 58.7013 31.9496 59.1846 31.0883C59.2018 31.0569 59.2285 31.0317 59.2609 31.0164C59.2932 31.001 59.3296 30.9963 59.3647 31.0029C63.2952 31.683 67.0537 32.8701 70.5593 34.4818C70.5902 34.4948 70.6157 34.5169 70.6308 34.5472ZM47.3218 54.0946C47.3651 51.0554 45.1541 48.5405 42.3787 48.5405C39.626 48.5405 37.4363 51.0333 37.4363 54.0946C37.4363 57.1553 39.6693 59.6481 42.3787 59.6481C45.1321 59.6481 47.3218 57.1553 47.3218 54.0946ZM65.5969 54.0946C65.6402 51.0554 63.4292 48.5405 60.6545 48.5405C57.901 48.5405 55.7114 51.0333 55.7114 54.0946C55.7114 57.1553 57.9444 59.6481 60.6545 59.6481C63.4292 59.6481 65.5969 57.1553 65.5969 54.0946Z" fill="white"/>
</svg>
