<svg width="104" height="104" viewBox="0 0 104 104" fill="none" xmlns="http://www.w3.org/2000/svg">
<circle cx="52" cy="52" r="52" fill="white"/>
<mask id="mask0_611_5550" style="mask-type:alpha" maskUnits="userSpaceOnUse" x="26" y="26" width="52" height="52">
<rect x="26" y="26" width="52" height="52" fill="url(#paint0_linear_611_5550)"/>
</mask>
<g mask="url(#mask0_611_5550)">
<path d="M45.0691 26C42.1968 26 39.8687 28.3284 39.8687 31.1997C39.868 31.8819 40.002 32.5575 40.2629 33.188C40.5239 33.8185 40.9068 34.3915 41.3897 34.8743C41.8726 35.3572 42.4461 35.7404 43.0774 36.0021C43.7087 36.2637 44.3855 36.3988 45.0691 36.3995H50.2704V31.1997C50.2715 29.822 49.7242 28.5002 48.7488 27.5251C47.7734 26.55 46.4498 26.0014 45.0691 26ZM45.0691 39.8659H31.2004C28.3281 39.8659 26 42.1943 26 45.0665C26 47.9379 28.3281 50.2663 31.2004 50.2663H45.07C47.9414 50.2663 50.2704 47.9379 50.2704 45.0665C50.2704 42.1943 47.9414 39.8659 45.0691 39.8659Z" fill="#36C5F0"/>
<path d="M78.001 45.0665C78.001 42.1943 75.672 39.8659 72.7997 39.8659C69.9275 39.8659 67.5993 42.1943 67.5993 45.0665V50.2663H72.7997C74.1805 50.2649 75.5041 49.7163 76.4795 48.7412C77.4549 47.7661 78.0022 46.4443 78.001 45.0665ZM64.1324 45.0665V31.1997C64.1335 29.822 63.5862 28.5002 62.6108 27.5251C61.6354 26.55 60.3118 26.0014 58.9311 26C56.0588 26 53.7307 28.3284 53.7307 31.1997V45.0657C53.7307 47.9388 56.0588 50.2671 58.9311 50.2671C60.3118 50.2658 61.6354 49.7172 62.6108 48.7421C63.5862 47.767 64.1335 46.4452 64.1324 45.0674" fill="#2EB67D"/>
<path d="M58.931 78.0007C60.3117 77.9993 61.6353 77.4507 62.6107 76.4756C63.5862 75.5005 64.1335 74.1787 64.1323 72.8009C64.1335 71.4232 63.5862 70.1014 62.6107 69.1263C61.6353 68.1511 60.3117 67.6026 58.931 67.6012H53.7306V72.8009C53.7306 75.6723 56.0587 78.0007 58.931 78.0007ZM58.931 64.1347H72.8006C75.672 64.1347 78.001 61.8063 78.001 58.9341C78.0021 57.5564 77.4548 56.2346 76.4794 55.2594C75.504 54.2843 74.1804 53.7358 72.7997 53.7344H58.931C56.0587 53.7344 53.7306 56.0627 53.7306 58.9341C53.7299 59.6163 53.8639 60.2919 54.1249 60.9224C54.3858 61.5528 54.7687 62.1259 55.2516 62.6087C55.7345 63.0916 56.308 63.4748 56.9393 63.7364C57.5706 63.9981 58.2474 64.1332 58.931 64.1338" fill="#ECB22E"/>
<path d="M26 58.9341C25.9993 59.6163 26.1333 60.2919 26.3943 60.9224C26.6552 61.5528 27.0381 62.1259 27.521 62.6087C28.0039 63.0916 28.5774 63.4748 29.2087 63.7364C29.84 63.9981 30.5168 64.1332 31.2004 64.1338C32.5811 64.1325 33.9047 63.5839 34.8802 62.6088C35.8556 61.6337 36.4029 60.3119 36.4017 58.9341V53.7344H31.2004C28.3281 53.7344 26 56.0627 26 58.9341ZM39.8687 58.9341V72.8001C39.8687 75.6723 42.1968 78.0007 45.0691 78.0007C46.4498 77.9993 47.7734 77.4507 48.7488 76.4756C49.7242 75.5005 50.2715 74.1787 50.2704 72.8009V58.9341C50.2711 58.2519 50.1371 57.5762 49.8761 56.9457C49.615 56.3151 49.2321 55.742 48.7491 55.2592C48.2661 54.7763 47.6925 54.3932 47.0611 54.1315C46.4297 53.8699 45.7528 53.7349 45.0691 53.7344C42.1968 53.7344 39.8687 56.0627 39.8687 58.9341Z" fill="#E01E5A"/>
</g>
<defs>
<linearGradient id="paint0_linear_611_5550" x1="78" y1="26" x2="26" y2="78" gradientUnits="userSpaceOnUse">
<stop stop-color="#F1F3F3"/>
<stop offset="1" stop-color="#F1F3F3" stop-opacity="0.8"/>
</linearGradient>
</defs>
</svg>
