<svg width="104" height="104" viewBox="0 0 104 104" fill="none" xmlns="http://www.w3.org/2000/svg">
<circle cx="52" cy="52" r="52" fill="#0D92F2"/>
<path d="M43.41 75C61.9015 75 72.0137 59.6124 72.0137 46.2688C72.0137 45.8318 72.0049 45.3968 71.9853 44.9636C73.9528 43.5336 75.6509 41.7629 77 39.7346C75.1987 40.539 73.2603 41.0803 71.227 41.3245C73.3024 40.0742 74.8958 38.0967 75.6476 35.7393C73.674 36.9152 71.5151 37.7442 69.2639 38.1904C67.4293 36.2276 64.8177 35 61.9256 35C56.3739 35 51.8719 39.5222 51.8719 45.0965C51.8719 45.889 51.9602 46.6598 52.1327 47.399C43.7773 46.9767 36.3684 42.9585 31.4099 36.8486C30.5168 38.3895 30.0471 40.141 30.0486 41.924C30.0486 45.4274 31.8234 48.5201 34.5223 50.3295C32.9259 50.2805 31.3645 49.8474 29.9693 49.0665C29.9679 49.1089 29.9679 49.1502 29.9679 49.1955C29.9679 54.0858 33.4332 58.1689 38.0332 59.0941C37.1692 59.3305 36.2777 59.4501 35.3823 59.4496C34.7482 59.4491 34.1155 59.3881 33.4929 59.2674C34.7728 63.2796 38.4841 66.1993 42.8841 66.2809C39.4433 68.9898 35.1089 70.6033 30.398 70.6033C29.5875 70.6033 28.7869 70.557 28 70.4636C32.4492 73.3281 37.7323 74.9995 43.4105 74.9995" fill="white"/>
</svg>
