<svg width="104" height="104" viewBox="0 0 104 104" fill="none" xmlns="http://www.w3.org/2000/svg">
<circle cx="52" cy="52" r="52" fill="#F42525"/>
<path fill-rule="evenodd" clip-rule="evenodd" d="M73.0974 34.1345C75.4208 34.7587 77.2504 36.5981 77.8715 38.9338C79 43.1674 79 52.0001 79 52.0001C79 52.0001 79 60.8326 77.8715 65.0667C77.2504 67.4019 75.4208 69.2413 73.0974 69.8657C68.8863 71 51.9999 71 51.9999 71C51.9999 71 35.1137 71 30.9026 69.8657C28.5792 69.2413 26.7493 67.4021 26.1285 65.0665C25 60.8328 25 52.0001 25 52.0001C25 52.0001 25 43.1674 26.1285 38.9338C26.7493 36.5981 28.5792 34.7587 30.9026 34.1345C35.1137 33 51.9999 33 51.9999 33C51.9999 33 68.8863 33 73.0974 34.1345ZM60.5903 52.0012L46.4766 60.0203V43.9814L60.5903 52.0012Z" fill="white"/>
</svg>
