<svg width="109" height="28" viewBox="0 0 109 28" fill="none" xmlns="http://www.w3.org/2000/svg">
<path fill-rule="evenodd" clip-rule="evenodd" d="M10.5 20C7.00485 20 3.90855 18.3736 2 15.8721V26H107V15.8721C105.091 18.3736 101.995 20 98.5 20C92.701 20 88 15.5228 88 10C88 4.47715 92.701 0 98.5 0C104.299 0 109 4.47715 109 10V28H0V10C0 4.47715 4.70101 0 10.5 0C16.299 0 21 4.47715 21 10C21 15.5228 16.299 20 10.5 20ZM10.5 18C15.2875 18 19 14.3274 19 10C19 5.67255 15.2875 2 10.5 2C5.7125 2 2 5.67255 2 10C2 14.3274 5.7125 18 10.5 18ZM98.5 2C103.287 2 107 5.67255 107 10C107 14.3274 103.287 18 98.5 18C93.7125 18 90 14.3274 90 10C90 5.67255 93.7125 2 98.5 2Z" fill="currentColor"/>
<path fill-rule="evenodd" clip-rule="evenodd" d="M43.7347 10.0762C43.7347 10.1924 43.7327 10.3082 43.7285 10.4235V19.5303H41.7285V15.948C39.8437 18.4052 36.8062 20 33.3801 20C27.6613 20 23.0254 15.557 23.0254 10.0762C23.0254 4.59539 27.6613 0.152344 33.3801 0.152344C39.0988 0.152344 43.7347 4.59539 43.7347 10.0762ZM33.3801 18C37.9631 18 41.5594 14.5442 41.7285 10.3827V9.7696C41.5594 5.60811 37.9631 2.15234 33.3801 2.15234C28.6849 2.15234 25.0254 5.77922 25.0254 10.0762C25.0254 14.3731 28.6849 18 33.3801 18Z" fill="currentColor"/>
<path d="M49.9023 6.79126C49.9023 5.34763 50.5703 4.21212 51.6205 3.41785C52.6901 2.60889 54.1557 2.16233 55.649 2.19395C57.1375 2.22547 58.5789 2.72953 59.6383 3.72504C60.6813 4.7052 61.438 6.23983 61.438 8.50995H63.438C63.438 5.75974 62.5027 3.67231 61.0078 2.26757C59.5293 0.878192 57.5868 0.234532 55.6913 0.194399C53.8007 0.154367 51.8824 0.712229 50.4141 1.82267C48.9264 2.94779 47.9023 4.64665 47.9023 6.79126V19.537H49.9023V6.79126Z" fill="currentColor"/>
<path d="M84.7824 14.9717C83.9167 16.3953 82.5491 17.9131 80.889 18.7473L80.8496 18.7685C78.7865 19.8746 76.3931 20.2515 74.0764 19.8346L74.0578 19.8312C71.7379 19.4094 69.6408 18.2176 68.1234 16.4597L68.0895 16.4201C66.5696 14.6406 65.7365 12.4001 65.7344 10.0861C65.7323 7.77208 66.5612 5.52999 68.0778 3.74782L68.1117 3.7082C69.6258 1.94771 71.7207 0.752192 74.0399 0.32635L74.0586 0.322927C76.3746 -0.0979759 78.7686 0.274749 80.8338 1.37726L80.873 1.39833C82.5052 2.27878 83.9134 3.6271 84.8249 5.16923C85.0656 5.57659 85.2717 5.99748 85.4382 6.42684C85.5331 6.67185 85.6152 6.91963 85.6833 7.16923H83.5867C82.8954 5.44506 81.6112 4.00801 79.9538 3.10239L79.9146 3.08113C78.2383 2.17682 76.2898 1.87115 74.4064 2.217L74.3877 2.22046C72.5117 2.56931 70.8189 3.5432 69.6004 4.97505L69.5667 5.01486C68.3656 6.44495 67.7096 8.23607 67.7113 10.0842C67.713 11.9324 68.3722 13.7225 69.576 15.1505L69.6098 15.1903C70.8309 16.62 72.5256 17.591 74.4023 17.9365L74.4208 17.9399C76.3049 18.2825 78.2528 17.9734 79.9275 17.0662L79.9667 17.0448L80.0189 17.016C81.6494 16.106 82.9111 14.6789 83.5921 12.9717H85.6872C85.6268 13.1987 85.5415 13.4456 85.4333 13.7062C85.268 14.1039 85.049 14.5334 84.7824 14.9717Z" fill="currentColor"/>
</svg>
