<svg width="56" height="56" viewBox="0 0 56 56" fill="none" xmlns="http://www.w3.org/2000/svg">
<circle cx="28" cy="28" r="28" fill="url(#paint0_linear_888_7473)"/>
<circle cx="28" cy="28" r="28" fill="url(#paint1_linear_888_7473)"/>
<path d="M23.3865 46C22.5925 46 21.8707 45.8774 21.2211 45.6321C20.5714 45.3868 19.988 45.0557 19.4707 44.6387C18.9654 44.2218 18.5263 43.7312 18.1534 43.1671C17.7925 42.603 17.4857 42.002 17.2331 41.3643C16.9925 40.7266 16.812 40.0705 16.6917 39.396C16.5835 38.7338 16.5293 38.0777 16.5293 37.4277V34.4292C16.5293 32.7982 16.1564 31.627 15.4105 30.9157C14.6647 30.2044 13.5278 29.8487 12 29.8487V26.1696C13.5278 26.1696 14.6647 25.814 15.4105 25.1027C16.1564 24.3914 16.5293 23.208 16.5293 21.5524V18.5539C16.5293 17.9162 16.5774 17.2601 16.6737 16.5856C16.782 15.9111 16.9504 15.255 17.1789 14.6173C17.4075 13.9796 17.6962 13.3848 18.0451 12.8329C18.406 12.2688 18.8391 11.7782 19.3444 11.3613C19.8617 10.9443 20.4511 10.6132 21.1128 10.3679C21.7865 10.1226 22.5444 10 23.3865 10L24 12.8881C23.2662 12.8636 22.7008 13.023 22.3038 13.3664C21.9068 13.6975 21.618 14.139 21.4376 14.6909C21.2571 15.2427 21.1489 15.862 21.1128 16.5488C21.0887 17.2233 21.0767 17.8917 21.0767 18.5539V21.5524C21.0767 23.0118 20.7218 24.3056 20.012 25.4338C19.3143 26.5621 18.2256 27.4205 16.7459 28.0092C18.2376 28.5979 19.3323 29.4502 20.0301 30.5662C20.7278 31.6822 21.0767 32.9699 21.0767 34.4292V37.4277C21.0767 38.0899 21.1128 38.7583 21.185 39.4328C21.2692 40.1196 21.4195 40.7389 21.6361 41.2907C21.8526 41.8426 22.1474 42.2841 22.5203 42.6152C22.9053 42.9586 23.3985 43.118 24 43.0935L23.3865 46Z" fill="#181A1B"/>
<path d="M32.6135 46C33.4075 46 34.1293 45.8774 34.7789 45.6321C35.4286 45.3868 36.012 45.0557 36.5293 44.6387C37.0346 44.2218 37.4737 43.7312 37.8466 43.1671C38.2075 42.603 38.5143 42.002 38.7669 41.3643C39.0075 40.7266 39.188 40.0705 39.3083 39.396C39.4165 38.7338 39.4707 38.0777 39.4707 37.4277V34.4292C39.4707 32.7982 39.8436 31.627 40.5895 30.9157C41.3353 30.2044 42.4722 29.8487 44 29.8487V26.1696C42.4722 26.1696 41.3353 25.814 40.5895 25.1027C39.8436 24.3914 39.4707 23.208 39.4707 21.5524V18.5539C39.4707 17.9162 39.4226 17.2601 39.3263 16.5856C39.218 15.9111 39.0496 15.255 38.8211 14.6173C38.5925 13.9796 38.3038 13.3848 37.9549 12.8329C37.594 12.2688 37.1609 11.7782 36.6556 11.3613C36.1383 10.9443 35.5489 10.6132 34.8872 10.3679C34.2135 10.1226 33.4556 10 32.6135 10L32 12.8881C32.7338 12.8636 33.2992 13.023 33.6962 13.3664C34.0932 13.6975 34.382 14.139 34.5624 14.6909C34.7429 15.2427 34.8511 15.862 34.8872 16.5488C34.9113 17.2233 34.9233 17.8917 34.9233 18.5539V21.5524C34.9233 23.0118 35.2782 24.3056 35.988 25.4338C36.6857 26.5621 37.7744 27.4205 39.2541 28.0092C37.7624 28.5979 36.6677 29.4502 35.9699 30.5662C35.2722 31.6822 34.9233 32.9699 34.9233 34.4292V37.4277C34.9233 38.0899 34.8872 38.7583 34.815 39.4328C34.7308 40.1196 34.5805 40.7389 34.3639 41.2907C34.1474 41.8426 33.8526 42.2841 33.4797 42.6152C33.0947 42.9586 32.6015 43.118 32 43.0935L32.6135 46Z" fill="#181A1B"/>
<defs>
<linearGradient id="paint0_linear_888_7473" x1="56" y1="-1.07288e-06" x2="5.60284e-06" y2="56" gradientUnits="userSpaceOnUse">
<stop offset="0.156707" stop-color="#F14AFF"/>
<stop offset="0.829497" stop-color="#401AFF"/>
</linearGradient>
<linearGradient id="paint1_linear_888_7473" x1="56.0248" y1="-1.24374e-06" x2="-1.10311" y2="1.14889" gradientUnits="userSpaceOnUse">
<stop stop-color="#57F906"/>
<stop offset="0.59579" stop-color="#00CCC0"/>
</linearGradient>
</defs>
</svg>
