<svg width="56" height="56" viewBox="0 0 56 56" fill="none" xmlns="http://www.w3.org/2000/svg">
<circle cx="28" cy="28" r="28" fill="url(#paint0_linear_888_7469)"/>
<path d="M39.25 37C34.7325 37 31.15 34.3026 28 31.4586C24.85 34.3026 21.2675 37 16.75 37C11.925 37 8 32.9629 8 28C8 23.0371 11.925 19 16.75 19C21.2675 19 24.85 21.6974 28 24.5414C31.15 21.6974 34.7325 19 39.25 19C44.075 19 48 23.0371 48 28C48 32.9629 44.075 37 39.25 37ZM31.7525 28C34.185 30.1549 36.5925 31.8571 39.25 31.8571C41.3175 31.8571 43 30.1266 43 28C43 25.8734 41.3175 24.1429 39.25 24.1429C36.5925 24.1429 34.185 25.8451 31.7525 28ZM16.75 24.1429C14.6825 24.1429 13 25.8734 13 28C13 30.1266 14.6825 31.8571 16.75 31.8571C19.4075 31.8571 21.815 30.1549 24.2475 28C21.815 25.8451 19.4075 24.1429 16.75 24.1429Z" fill="#181A1B"/>
<defs>
<linearGradient id="paint0_linear_888_7469" x1="56" y1="-5.21541e-06" x2="-5.21541e-06" y2="56" gradientUnits="userSpaceOnUse">
<stop offset="0.178571" stop-color="#FFE600"/>
<stop offset="0.84375" stop-color="#FD6A00"/>
</linearGradient>
</defs>
</svg>
