<svg width="325" height="325" viewBox="0 0 325 325" fill="none" xmlns="http://www.w3.org/2000/svg">
<circle opacity="0.12" cx="162.662" cy="162.165" r="124" fill="url(#paint0_linear_949_4872)"/>
<circle opacity="0.12" cx="162.662" cy="162.165" r="104" fill="url(#paint1_linear_949_4872)"/>
<mask id="mask0_949_4872" style="mask-type:alpha" maskUnits="userSpaceOnUse" x="58" y="58" width="209" height="209">
<circle cx="162.662" cy="162.165" r="104" fill="#181A1B"/>
</mask>
<g mask="url(#mask0_949_4872)">
<g opacity="0.8">
<path d="M-309.338 237.435C-305.768 234.885 -302.198 232.555 -298.628 230.315C-294.728 227.885 -290.838 225.555 -286.948 223.315C-283.058 221.075 -279.158 218.755 -275.258 216.505L-263.578 209.725L-251.898 202.975C-247.998 200.735 -244.105 198.488 -240.218 196.235L-228.538 189.485L-216.838 182.725C-212.951 180.478 -209.058 178.232 -205.158 175.985L-193.478 169.235L-181.838 162.485C-177.951 160.238 -174.058 157.992 -170.158 155.745L-158.488 148.995L-146.798 142.245L-135.118 135.505L-123.408 128.725L-111.718 121.975C-107.828 119.735 -103.938 117.475 -100.028 115.235C-96.1179 112.995 -92.2479 110.735 -88.3479 108.485L-76.6579 101.735L-64.9779 94.9849L-53.2879 88.2349L-41.6079 81.4949L-29.9179 74.7449L-18.2379 68.0049L-6.55789 61.2649L5.16211 54.5649C9.05544 52.3049 12.9488 50.0549 16.8421 47.8149L28.5221 41.0649L40.1621 34.3349L51.8521 27.5949C55.7388 25.3549 59.6288 23.1282 63.5221 20.9149C67.4121 18.7149 71.3121 16.5349 75.2021 14.4649C79.0921 12.3949 82.9921 10.4649 86.8921 8.76488C90.6682 7.11104 94.5749 5.77312 98.5721 4.76488C102.395 3.8083 106.321 3.32468 110.262 3.32488C114.178 3.41253 118.08 3.81382 121.932 4.52489C125.832 5.16489 129.732 5.91489 133.622 6.19489C137.544 6.55956 141.499 6.22091 145.302 5.19489C149.551 3.89914 153.517 1.81257 156.992 -0.955116C161.268 -4.39079 165.179 -8.25788 168.662 -12.4951C169.682 -13.6951 170.682 -14.9151 171.662 -16.1551C172.642 -17.3951 173.622 -18.6418 174.602 -19.8951C176.522 -22.3951 178.482 -24.9951 180.382 -27.5151C184.252 -32.6651 188.232 -37.8951 192.322 -42.7651C196.069 -47.2625 200.055 -51.5554 204.262 -55.6251C205.992 -57.2851 207.702 -58.8151 209.482 -60.3051C211.262 -61.7951 213.022 -63.1651 214.822 -64.5251C216.822 -66.0151 218.822 -67.4351 220.822 -68.8251C222.822 -70.2151 224.822 -71.5551 226.822 -72.8251C229.622 -74.6551 232.462 -76.4451 260.132 -91.7451" stroke="white" stroke-linecap="round" stroke-linejoin="round"/>
<path d="M-309.338 303.345C-306.418 300.285 -303.508 296.845 -300.588 293.205C-296.688 288.345 -292.808 283.135 -288.908 278.145C-285.008 273.155 -281.108 268.405 -277.218 264.145C-273.556 260.074 -269.66 256.221 -265.548 252.605C-261.811 249.354 -257.902 246.307 -253.838 243.475C-249.948 240.745 -246.058 238.245 -242.158 235.845C-238.258 233.445 -234.378 231.145 -230.478 228.845C-226.578 226.545 -222.688 224.305 -218.788 222.045L-207.118 215.295L-195.428 208.555L-183.748 201.805L-172.068 195.055L-160.388 188.315L-148.708 181.575C-144.821 179.329 -140.928 177.079 -137.028 174.825L-125.348 168.085L-113.658 161.345L-101.978 154.595L-90.3079 147.855L-78.6179 141.105L-66.9279 134.365L-55.2379 127.615L-43.5579 120.865L-31.8379 114.125L-20.1479 107.375L-8.4679 100.635L3.16211 93.8954L14.8321 87.1454L26.5121 80.3954C30.4121 78.1487 34.3054 75.902 38.1921 73.6553L49.8721 66.9254L61.5521 60.1854C65.4521 57.9354 69.3321 55.6954 73.2321 53.4754C77.1321 51.2554 81.0221 49.0454 84.9121 46.9254C88.8021 44.8054 92.6921 42.7454 96.5821 40.9254C100.365 39.1099 104.272 37.5627 108.272 36.2954C112.068 35.1106 115.987 34.3624 119.952 34.0653C123.853 33.8557 127.765 34.0265 131.632 34.5753C135.522 35.0853 139.422 35.8354 143.322 36.3154C147.189 36.8852 151.117 36.9155 154.992 36.4053C159.14 35.7308 163.115 34.2495 166.692 32.0453C170.984 29.3319 174.909 26.0786 178.372 22.3653C182.501 17.9321 186.4 13.2893 190.052 8.45535C193.942 3.45535 197.842 -1.85465 201.742 -6.82465C205.482 -11.6047 209.422 -16.3547 213.462 -20.6347C215.395 -22.6747 217.355 -24.6213 219.342 -26.4746C221.329 -28.328 223.349 -30.088 225.402 -31.7546C227.402 -33.3446 229.402 -34.8746 231.342 -36.3246C233.282 -37.7746 235.342 -39.1746 237.342 -40.5046C239.112 -41.6946 240.842 -42.8046 242.622 -43.9246C244.402 -45.0446 246.132 -46.0846 247.912 -47.1546C254.632 -51.1546 261.832 -55.4146 327.122 -91.7646" stroke="white" stroke-linecap="round" stroke-linejoin="round"/>
<path d="M-309.338 350.725L-304.838 348.185C-300.838 345.925 -296.838 343.685 -292.898 341.575C-290.938 340.521 -288.981 339.505 -287.028 338.525C-285.028 337.525 -283.108 336.635 -281.168 335.775C-277.387 334.068 -273.479 332.66 -269.478 331.565C-265.664 330.545 -261.744 329.975 -257.798 329.865C-253.887 329.836 -249.981 330.126 -246.118 330.735C-242.218 331.285 -238.318 331.975 -234.428 332.275C-230.523 332.662 -226.581 332.433 -222.748 331.595C-218.564 330.565 -214.605 328.775 -211.068 326.315C-206.804 323.311 -202.886 319.843 -199.388 315.975C-195.488 311.805 -191.598 306.975 -187.708 302.045C-183.818 297.115 -179.908 292.045 -176.018 287.215C-172.128 282.385 -168.238 277.925 -164.338 273.895C-160.657 270.081 -156.757 266.484 -152.658 263.125C-148.758 259.925 -144.868 257.125 -140.978 254.445C-137.088 251.765 -133.188 249.365 -129.298 246.995C-125.408 244.625 -121.508 242.335 -117.608 240.065L-105.928 233.275L-94.2479 226.525L-82.5679 219.785L-70.8379 213.045C-66.9512 210.798 -63.0579 208.551 -59.1579 206.305L-47.4779 199.555L-35.8379 192.815L-24.1479 186.065L-12.4679 179.315L-0.787903 172.575L10.9021 165.825L22.5921 159.075L34.2721 152.335L45.9721 145.575L57.6521 138.835L69.3321 132.085L81.0121 125.345L92.7021 118.615C96.5888 116.368 100.479 114.141 104.372 111.935C108.262 109.725 112.162 107.545 116.052 105.475C119.942 103.405 123.842 101.475 127.732 99.7746C131.498 98.1024 135.403 96.7639 139.402 95.7746C143.231 94.8681 147.158 94.4415 151.092 94.5046C155.01 94.6545 158.912 95.1025 162.762 95.8446C166.627 96.6041 170.529 97.1582 174.452 97.5046C178.397 97.8143 182.364 97.4043 186.162 96.2946C190.41 94.9154 194.367 92.7625 197.832 89.9446C202.108 86.4548 206.028 82.549 209.532 78.2846C213.422 73.6746 217.312 68.4846 221.212 63.3346C225.112 58.1846 229.002 53.0546 232.892 48.3346C236.539 43.9187 240.428 39.7088 244.542 35.7246C248.236 32.2046 252.14 28.9119 256.232 25.8646C260.122 22.9546 264.022 20.3546 267.912 17.8646C269.865 16.6246 271.822 15.4146 273.782 14.2346C275.782 13.0446 277.682 11.8846 279.642 10.7246C283.642 8.37128 287.622 6.03794 291.582 3.72461C295.542 1.41128 299.519 -0.888726 303.512 -3.17539L314.072 -9.28539L376.602 -45.2754" stroke="white" stroke-linecap="round" stroke-linejoin="round"/>
<path d="M-309.338 388.916C-304.298 386.016 -299.265 383.109 -294.238 380.196L-283.668 374.096L-271.738 367.216L-259.838 360.336C-255.925 358.089 -252.015 355.859 -248.108 353.646C-244.208 351.436 -240.318 349.276 -236.428 347.246C-232.538 345.216 -228.628 343.296 -224.738 341.676C-220.959 340.067 -217.052 338.776 -213.058 337.816C-209.228 336.92 -205.311 336.454 -201.378 336.426C-197.468 336.465 -193.566 336.769 -189.698 337.336C-185.798 337.836 -181.898 338.416 -178.008 338.606C-174.086 338.857 -170.149 338.496 -166.338 337.536C-162.143 336.358 -158.187 334.456 -154.648 331.916C-150.387 328.833 -146.471 325.299 -142.968 321.376C-139.068 317.136 -135.188 312.216 -131.288 307.186C-127.388 302.156 -123.498 297.006 -119.598 292.186C-115.698 287.366 -111.818 282.846 -107.928 278.866C-104.254 275.104 -100.35 271.573 -96.2379 268.296C-92.3479 265.186 -88.4579 262.436 -84.5579 259.866C-80.6579 257.296 -76.7779 254.866 -72.8779 252.556C-68.9779 250.246 -65.0879 247.936 -61.1979 245.676C-57.3079 243.416 -53.4179 241.156 -49.5179 238.906C-45.6179 236.656 -41.7379 234.406 -37.8379 232.156L-26.1579 225.416L-14.4779 218.666L-2.7879 211.916L8.89212 205.176L20.5721 198.426L32.3021 191.726L43.9821 184.976L55.6721 178.226L67.3621 171.476L79.0521 164.726L90.7321 157.976L102.422 151.236C106.322 148.989 110.212 146.749 114.092 144.516C118.002 142.286 121.892 140.066 125.782 137.916C129.672 135.766 133.572 133.656 137.452 131.746C141.243 129.84 145.155 128.183 149.162 126.786C152.938 125.475 156.861 124.632 160.842 124.276C164.741 124 168.66 124.164 172.522 124.766C176.412 125.316 180.312 126.146 184.202 126.766C188.055 127.466 191.986 127.624 195.882 127.236C200.025 126.68 204.004 125.259 207.562 123.066C211.88 120.349 215.809 117.059 219.242 113.286C223.379 108.782 227.277 104.066 230.922 99.1557C234.812 94.0457 238.712 88.7457 242.612 83.7857C246.512 78.8257 250.392 74.2057 254.292 70.1157C257.95 66.2691 261.855 62.6648 265.982 59.3257C269.872 56.1557 273.762 53.3857 277.662 50.7957C281.562 48.2057 285.442 45.7957 289.342 43.4657C293.242 41.1357 297.132 38.8457 301.032 36.5857C304.932 34.3257 308.842 32.0457 312.752 29.7857L324.692 22.8857L336.622 16.0057L347.162 9.88574L376.612 -7.11426" stroke="white" stroke-linecap="round" stroke-linejoin="round"/>
<path d="M-309.338 322.894C-307.078 322.894 -304.818 323.104 -302.548 323.354C-298.658 323.794 -294.758 324.484 -290.868 324.914C-286.992 325.429 -283.064 325.429 -279.188 324.914C-275.049 324.253 -271.079 322.793 -267.498 320.614C-263.22 317.941 -259.302 314.732 -255.838 311.064C-251.701 306.723 -247.795 302.167 -244.138 297.414C-240.238 292.414 -236.358 287.224 -232.458 282.314C-228.558 277.404 -224.678 272.824 -220.778 268.724C-217.097 264.838 -213.198 261.165 -209.098 257.724C-205.198 254.474 -201.308 251.594 -197.418 248.934C-193.528 246.274 -189.628 243.804 -185.728 241.434C-181.828 239.064 -177.948 236.764 -174.048 234.484C-170.148 232.204 -166.268 229.954 -162.368 227.704L-150.688 220.944L-139.008 214.204L-127.318 207.454L-115.648 200.724L-103.958 193.974L-92.2779 187.234L-80.5979 180.494L-68.9279 173.724L-57.2379 166.984L-45.5479 160.234L-33.8379 153.464L-22.1779 146.724L-10.4879 139.974L1.16211 133.224L12.8521 126.484L24.5621 119.724L36.2521 112.974L47.9221 106.234L59.6121 99.4943L71.2821 92.7243L82.9621 86.0043C86.8621 83.7643 90.7588 81.551 94.6521 79.3643C98.5421 77.1943 102.432 75.0743 106.322 73.1243C110.117 71.1821 114.02 69.4593 118.012 67.9643C121.784 66.562 125.692 65.5566 129.672 64.9643C133.548 64.4499 137.469 64.3694 141.362 64.7243C145.252 65.0543 149.152 65.7243 153.052 66.3943C156.901 67.1245 160.815 67.4596 164.732 67.3943C168.783 67.2222 172.757 66.2288 176.412 64.4743C180.704 62.3244 184.643 59.5323 188.092 56.1943C192.291 52.1429 196.198 47.7987 199.782 43.1943C203.682 38.3243 207.562 33.0543 211.462 27.9943C215.362 22.9343 219.252 18.1243 223.162 13.7243C226.83 9.60259 230.734 5.69609 234.852 2.02434C238.592 -1.25876 242.504 -4.33981 246.572 -7.20567C248.572 -8.61567 250.572 -9.95567 252.572 -11.2057C254.572 -12.4557 256.572 -13.7557 258.572 -14.9857C262.512 -17.4157 266.572 -19.8157 270.502 -22.1357C273.969 -24.229 277.465 -26.2757 280.992 -28.2757C312.862 -46.7357 344.732 -64.9857 376.602 -83.8057" stroke="white" stroke-linecap="round" stroke-linejoin="round"/>
<path d="M-267.838 594.165L-95.7379 494.795L-85.1779 488.725L-73.2379 481.835L-61.2979 474.945L-49.5679 468.165L-37.8379 461.405L-26.1579 454.655L-14.4779 447.915L-2.83789 441.165L8.83212 434.425L20.5321 427.725L32.1621 420.935L43.8521 414.185L55.5421 407.445L67.2521 400.725L78.9421 394.015C82.8321 391.785 86.7221 389.575 90.6121 387.425C94.5021 385.275 98.4021 383.175 102.302 381.225C106.202 379.275 110.092 377.485 113.982 375.985C117.775 374.505 121.681 373.332 125.662 372.475C129.508 371.682 133.417 371.237 137.342 371.145C141.242 371.055 145.122 371.285 149.022 371.515C152.922 371.745 156.802 371.955 160.702 371.845C164.638 371.769 168.554 371.266 172.382 370.345C176.44 369.326 180.361 367.825 184.062 365.875C188.166 363.707 192.077 361.191 195.752 358.355C199.642 355.405 203.532 352.045 207.432 348.565C211.332 345.085 215.212 341.485 219.112 338.015C223.012 334.545 226.902 331.205 230.802 328.195C234.516 325.276 238.418 322.603 242.482 320.195C246.226 318.018 250.138 316.146 254.182 314.595C258.001 313.168 261.901 311.969 265.862 311.005C269.772 310.005 273.662 309.225 277.552 308.265C281.531 307.333 285.435 306.107 289.232 304.595C293.356 302.89 297.277 300.73 300.922 298.155C305.108 295.147 309.014 291.766 312.592 288.055C316.502 284.055 320.392 279.535 324.282 274.735C328.172 269.935 332.062 264.875 335.952 260.065C339.842 255.255 343.742 250.665 347.632 246.525C354.664 238.99 362.493 232.241 370.982 226.395C372.862 225.095 374.732 223.855 376.602 222.655" stroke="white" stroke-linecap="round" stroke-linejoin="round"/>
<path d="M-309.338 579.925L-128.838 475.725L-118.278 469.625L-106.328 462.725C-102.328 460.425 -98.3279 458.125 -94.3279 455.825L-82.6079 449.055L-70.9179 442.315L-59.2279 435.565L-47.5479 428.825L-35.8679 422.075L-24.1879 415.335L-12.4979 408.585L-0.837891 401.835L10.8321 395.095C14.7321 392.848 18.6288 390.612 22.5221 388.385C26.4121 386.155 30.3121 383.945 34.2021 381.795C38.0921 379.645 41.9921 377.555 45.8921 375.625C49.6854 373.706 53.5812 371.996 57.5621 370.505C61.3454 369.078 65.2565 368.016 69.2421 367.335C73.1051 366.708 77.0238 366.494 80.9321 366.695C84.8221 366.885 88.7121 367.435 92.6021 367.915C96.4739 368.46 100.383 368.697 104.292 368.625C108.286 368.509 112.233 367.731 115.972 366.325C120.184 364.664 124.121 362.378 127.652 359.545C131.834 356.176 135.74 352.477 139.332 348.485C143.212 344.285 147.112 339.665 151.012 335.005C154.912 330.345 158.792 325.655 162.692 321.215C166.592 316.775 170.472 312.595 174.372 308.775C178.272 304.955 182.162 301.535 186.062 298.375C189.962 295.215 193.842 292.375 197.742 289.715C201.642 287.055 205.542 284.615 209.432 282.395C213.322 280.175 217.232 278.145 221.122 276.395C224.909 274.651 228.816 273.181 232.812 271.995C236.623 270.872 240.541 270.148 244.502 269.835C248.396 269.605 252.301 269.685 256.182 270.075C260.082 270.415 263.982 270.915 267.862 271.145C271.764 271.467 275.691 271.272 279.542 270.565C283.689 269.664 287.63 267.996 291.162 265.645C295.445 262.753 299.366 259.359 302.842 255.535C306.732 251.375 310.632 246.535 314.522 241.535C318.412 236.535 322.312 231.265 326.202 226.345C330.092 221.425 333.982 216.825 337.872 212.755C341.54 208.921 345.445 205.321 349.562 201.975C353.452 198.825 357.342 196.055 361.232 193.475C365.122 190.895 369.022 188.475 372.922 186.175L376.572 184.005" stroke="white" stroke-linecap="round" stroke-linejoin="round"/>
<path d="M-309.338 541.725L-161.898 456.605L-151.338 450.505L-139.408 443.615L-127.468 436.725L-115.738 429.955C-111.838 427.695 -107.938 425.455 -104.048 423.195L-92.3579 416.455L-80.6879 409.725L-68.9979 402.975L-57.3279 396.235L-45.6379 389.495C-41.7379 387.248 -37.8446 385.011 -33.9579 382.785C-30.0679 380.565 -26.1679 378.355 -22.2679 376.205C-18.3679 374.055 -14.4879 371.965 -10.5979 370.055C-6.79959 368.159 -2.90041 366.474 1.08212 365.005C4.87349 363.604 8.78702 362.559 12.7721 361.885C16.6346 361.285 20.5478 361.077 24.4521 361.265C28.3421 361.425 32.2421 361.925 36.1321 362.365C40.0023 362.892 43.9067 363.126 47.8121 363.065C51.807 362.959 55.7555 362.182 59.4921 360.765C63.7288 359.048 67.6674 356.672 71.1621 353.725C75.3829 350.166 79.2876 346.248 82.8321 342.015C86.7321 337.505 90.6221 332.495 94.5221 327.475C98.4221 322.455 102.302 317.475 106.192 312.865C109.876 308.53 113.778 304.384 117.882 300.445C121.59 296.901 125.49 293.563 129.562 290.445C133.442 287.445 137.342 284.785 141.242 282.255C145.142 279.725 149.022 277.335 152.932 274.995C156.842 272.655 160.712 270.375 164.612 268.105C168.512 265.835 172.402 263.575 176.302 261.335C180.202 259.095 184.092 256.855 187.992 254.655C191.892 252.455 195.782 250.295 199.682 248.245C203.582 246.195 207.472 244.245 211.362 242.585C215.142 240.959 219.057 239.667 223.062 238.725C226.891 237.818 230.818 237.395 234.752 237.465C238.671 237.592 242.576 238.013 246.432 238.725C250.307 239.509 254.223 240.074 258.162 240.415C262.103 240.723 266.067 240.279 269.842 239.105C274.115 237.617 278.073 235.345 281.512 232.405C285.781 228.754 289.683 224.695 293.162 220.285C297.052 215.505 300.942 210.125 304.832 204.855C308.722 199.585 312.622 194.425 316.512 189.805C320.134 185.471 324.025 181.37 328.162 177.525C331.857 174.149 335.757 171.006 339.842 168.115C343.742 165.335 347.632 162.845 351.532 160.445C355.432 158.045 359.312 155.755 363.212 153.445L374.912 146.725L376.602 145.725" stroke="white" stroke-linecap="round" stroke-linejoin="round"/>
<path d="M-309.338 503.525L-194.988 437.525L-184.428 431.435L-172.488 424.545L-160.548 417.645L-148.838 410.845L-137.158 404.105L-125.468 397.355L-113.788 390.605L-102.098 383.865C-98.2046 381.625 -94.3146 379.392 -90.4279 377.165C-86.5279 374.935 -82.6279 372.725 -78.7379 370.585C-74.8479 368.445 -70.9579 366.365 -67.0679 364.485C-63.2706 362.612 -59.3673 360.963 -55.3779 359.545C-51.5864 358.199 -47.6705 357.235 -43.6879 356.665C-39.8196 356.157 -35.9106 356.033 -32.0179 356.295C-28.1179 356.515 -24.2279 357.035 -20.3279 357.485C-16.4611 358.005 -12.5568 358.193 -8.6579 358.045C-4.63674 357.811 -0.684168 356.898 3.0321 355.345C7.26464 353.498 11.2006 351.034 14.7121 348.035C18.9074 344.43 22.8128 340.502 26.3921 336.285C30.2821 331.795 34.1821 326.865 38.0721 321.895C41.9621 316.925 45.8521 311.965 49.7521 307.365C53.6521 302.765 57.5321 298.585 61.4321 294.825C65.1509 291.258 69.0671 287.903 73.1621 284.775C77.0521 281.775 80.9421 279.125 84.8421 276.595C88.7421 274.065 92.6321 271.695 96.5321 269.375C100.432 267.055 104.312 264.765 108.212 262.495C112.112 260.225 115.992 257.985 119.892 255.725L131.582 248.975L143.262 242.225L154.952 235.485L166.612 228.725C170.522 226.485 174.422 224.265 178.302 222.105C182.182 219.945 186.092 217.825 189.982 215.905C193.764 213.981 197.669 212.31 201.672 210.905C209.155 208.225 217.211 207.56 225.032 208.975C228.932 209.615 232.822 210.635 236.702 211.315C240.545 212.091 244.487 212.256 248.382 211.805C252.568 211.167 256.559 209.603 260.062 207.225C264.403 204.203 268.33 200.626 271.742 196.585C275.632 192.165 279.522 186.995 283.422 181.685C287.322 176.375 291.202 170.925 295.102 166.005C298.72 161.381 302.621 156.986 306.782 152.845C310.451 149.221 314.353 145.84 318.462 142.725C322.362 139.775 326.252 137.165 330.142 134.725C334.032 132.285 337.932 129.915 341.832 127.615C345.732 125.315 349.612 123.065 353.512 120.805C357.412 118.545 361.312 116.305 365.202 114.045L376.602 107.465" stroke="white" stroke-linecap="round" stroke-linejoin="round"/>
<path d="M-309.338 465.315L-228.068 418.395L-217.508 412.305L-205.578 405.415L-193.628 398.515L-181.908 391.725L-170.218 384.975L-158.538 378.235L-146.838 371.535C-142.938 369.305 -139.038 367.075 -135.148 364.905C-131.258 362.735 -127.358 360.615 -123.468 358.665C-119.694 356.722 -115.811 355 -111.838 353.505C-108.059 352.088 -104.145 351.059 -100.158 350.435C-96.2907 349.876 -92.3737 349.745 -88.4779 350.045C-84.5779 350.315 -80.6779 350.965 -76.7879 351.525C-72.93 352.177 -69.0198 352.469 -65.1079 352.395C-61.0728 352.239 -57.102 351.333 -53.3979 349.725C-49.1424 347.802 -45.204 345.243 -41.7179 342.135C-37.5224 338.412 -33.6177 334.374 -30.0379 330.055C-26.1379 325.485 -22.2479 320.475 -18.3479 315.515C-14.4479 310.555 -10.5679 305.635 -6.67789 301.145C-2.9963 296.868 0.905655 292.786 5.01212 288.915C8.72552 285.427 12.6245 282.143 16.6921 279.075C20.5721 276.135 24.4721 273.485 28.3721 270.975C32.2721 268.465 36.1521 266.095 40.0521 263.765C43.9521 261.435 47.8321 259.165 51.7321 256.895L63.4121 250.125L75.1021 243.375L86.7821 236.635L98.4621 229.885L110.162 223.125L121.852 216.375L133.532 209.635L145.232 202.895C149.132 200.655 153.022 198.415 156.912 196.225C160.802 194.035 164.702 191.845 168.592 189.835C172.387 187.824 176.286 186.015 180.272 184.415C184.033 182.883 187.954 181.779 191.962 181.125C195.83 180.57 199.754 180.53 203.632 181.005C207.522 181.445 211.422 182.335 215.312 183.105C219.143 183.982 223.062 184.418 226.992 184.405C231.058 184.291 235.046 183.266 238.662 181.405C243.02 179.058 246.968 176.018 250.352 172.405C254.541 167.971 258.439 163.271 262.022 158.335C265.912 153.155 269.812 147.685 273.712 142.595C277.612 137.505 281.492 132.785 285.392 128.595C289.035 124.715 292.934 121.084 297.062 117.725C300.811 114.681 304.713 111.831 308.752 109.185C312.642 106.615 316.532 104.185 320.432 101.895C324.332 99.6052 328.222 97.2952 332.112 95.0252L343.792 88.2752L355.482 81.5152C359.372 79.2752 363.262 77.0152 367.162 74.7752L376.602 69.3252" stroke="white" stroke-linecap="round" stroke-linejoin="round"/>
<path d="M-201.666 594.165L-62.666 513.905L-52.106 507.805L-40.176 500.915L-28.236 494.025L-16.506 487.255L-4.83601 480.505L6.894 473.725L18.564 466.985L30.254 460.235L41.934 453.495L53.614 446.745C57.514 444.505 61.4073 442.258 65.294 440.005L76.984 433.265L88.664 426.515C92.5507 424.268 96.444 422.021 100.344 419.775L112.024 413.025L123.704 406.285L135.384 399.555C139.271 397.321 143.167 395.101 147.074 392.895C150.964 390.705 154.854 388.545 158.744 386.455C162.634 384.365 166.534 382.385 170.434 380.575C174.334 378.765 178.214 377.115 182.104 375.695C185.932 374.287 189.834 373.092 193.794 372.115C197.684 371.115 201.574 370.455 205.464 369.895C209.354 369.335 213.254 368.895 217.154 368.515C221.054 368.135 224.934 367.665 228.834 367.065C232.766 366.494 236.665 365.713 240.514 364.725C244.483 363.652 248.386 362.35 252.204 360.825C256.094 359.285 259.994 357.515 263.884 355.575C267.774 353.635 271.674 351.575 275.574 349.305C279.474 347.035 283.364 344.715 287.264 342.205C291.164 339.695 295.054 336.995 298.954 334.075C302.854 331.155 306.754 327.985 310.634 324.515C314.514 321.045 318.434 317.255 322.314 313.305C326.194 309.355 330.124 305.195 334.004 301.025C337.884 296.855 341.804 292.585 345.684 288.575C349.564 284.565 353.484 280.705 357.364 277.165C361.244 273.625 365.154 270.335 369.044 267.325C371.564 265.365 374.084 263.511 376.604 261.765" stroke="white" stroke-linecap="round" stroke-linejoin="round"/>
<path d="M-309.338 121.505L-304.418 118.665L-292.738 111.925L-281.068 105.185L-269.378 98.435L-257.708 91.725L-246.018 84.975L-234.338 78.235L-222.658 71.495L-210.968 64.725L-199.278 57.975L-187.598 51.225L-175.908 44.485L-164.218 37.725L-152.538 30.975L-140.838 24.235L-129.148 17.485L-117.488 10.725L-105.838 3.99503L-94.1579 -2.74496L-82.4779 -9.48496L-70.7679 -16.275L-59.0979 -23.015L-47.4179 -29.755L-35.7379 -36.495L-24.0579 -43.245L-12.3679 -49.985C-8.48122 -52.2316 -4.5879 -54.4783 -0.687897 -56.725L10.9921 -63.465C14.8921 -65.695 18.7821 -67.925 22.6721 -70.105C26.5621 -72.285 30.4721 -74.435 34.3621 -76.415C38.1606 -78.3836 42.0593 -80.1526 46.0421 -81.715C48.0421 -82.475 49.9921 -83.145 51.9521 -83.715C53.8483 -84.2637 55.7749 -84.7011 57.7221 -85.025C61.5856 -85.6506 65.5098 -85.8151 69.4121 -85.515C70.4121 -85.435 71.4121 -85.345 72.4121 -85.215C73.4121 -85.085 74.4121 -84.965 75.3421 -84.815C77.2821 -84.535 79.2221 -84.205 81.1621 -83.905C82.1621 -83.765 83.0921 -83.615 84.0721 -83.485C85.0521 -83.355 86.0721 -83.245 87.0221 -83.145C89.0423 -82.9469 91.074 -82.8901 93.1021 -82.975C95.0617 -83.07 97.0109 -83.3174 98.9321 -83.715C101.016 -84.1542 103.055 -84.7869 105.022 -85.605C105.902 -85.975 106.782 -86.385 107.672 -86.855C108.562 -87.325 109.442 -87.855 110.332 -88.405C111.222 -88.955 112.102 -89.575 112.982 -90.225C113.682 -90.735 114.372 -91.225 115.062 -91.835" stroke="white" stroke-linecap="round" stroke-linejoin="round"/>
<path d="M-309.338 159.725L-306.338 158.025L-294.648 151.275L-282.968 144.535L-271.338 137.725L-259.658 130.985C-255.765 128.738 -251.871 126.492 -247.978 124.245L-236.298 117.495L-224.618 110.755L-212.938 104.015L-201.258 97.2648L-189.578 90.5248L-177.838 83.8148L-166.158 77.0648L-154.458 70.3148L-142.838 63.5748L-131.148 56.8248L-119.458 50.0748L-107.778 43.3348L-96.0979 36.5848L-84.4179 29.8448L-72.7379 23.0948L-61.0579 16.3548L-49.3779 9.61485L-37.6979 2.86485L-26.0179 -3.86515L-14.3379 -10.6152L-2.66788 -17.3552L9.02209 -24.1052L20.7021 -30.8452C24.5888 -33.0852 28.4821 -35.3185 32.3821 -37.5452C36.2721 -39.7652 40.1721 -41.9652 44.0721 -44.0852C47.9721 -46.2052 51.8621 -48.2152 55.7521 -49.9952C59.5216 -51.7744 63.4315 -53.2394 67.4421 -54.3752C71.2634 -55.4221 75.2006 -55.9865 79.1621 -56.0552C83.0807 -56.0695 86.9929 -55.7349 90.8521 -55.0552C92.7921 -54.7352 94.7221 -54.3652 96.6621 -54.0552C97.6621 -53.8852 98.6021 -53.7252 99.5821 -53.5852C100.562 -53.4452 101.582 -53.3052 102.582 -53.2052C104.471 -52.9918 106.372 -52.9149 108.272 -52.9752C110.296 -53.0449 112.307 -53.3264 114.272 -53.8152C115.268 -54.0767 116.249 -54.3905 117.212 -54.7552C118.237 -55.1412 119.238 -55.5852 120.212 -56.0852C121.212 -56.5952 122.212 -57.1652 123.212 -57.8052C124.212 -58.4452 125.212 -59.1552 126.212 -59.9152C128.344 -61.5755 130.371 -63.3656 132.282 -65.2752C134.282 -67.2752 136.212 -69.3552 138.092 -71.5252C139.972 -73.6952 141.702 -75.8552 143.472 -78.1252C145.242 -80.3952 146.942 -82.6852 148.662 -84.9752C150.382 -87.2652 152.082 -89.5652 153.752 -91.7852" stroke="white" stroke-linecap="round" stroke-linejoin="round"/>
<path d="M-309.338 197.915L-308.338 197.335L-296.658 190.595L-284.968 183.845L-273.288 177.105L-261.608 170.355L-249.928 163.615L-238.248 156.875L-226.558 150.125L-214.888 143.385L-203.198 136.635L-191.528 129.895L-179.838 123.155L-168.158 116.405C-164.258 114.158 -160.361 111.908 -156.468 109.655L-144.838 102.915C-140.938 100.668 -137.041 98.4179 -133.148 96.1646L-121.458 89.4246L-109.738 82.7246L-98.0579 75.9746L-86.3679 69.2246L-74.6879 62.4846L-62.9979 55.7246L-51.3279 48.9846L-39.6379 42.2346L-27.9679 35.4946C-24.0679 33.2546 -20.1746 31.0079 -16.2879 28.7546L-4.5979 22.0146L7.0621 15.2746L18.7621 8.52461L30.4321 1.72461L42.1621 -4.98539C46.0521 -7.21539 49.9521 -9.44539 53.8421 -11.6254C57.7321 -13.8054 61.6221 -15.9354 65.5221 -17.9054C69.3017 -19.8582 73.1878 -21.5976 77.1621 -23.1154C80.9417 -24.5151 84.8558 -25.5205 88.8421 -26.1154C92.7166 -26.6516 96.6416 -26.7188 100.532 -26.3154C104.422 -25.9354 108.312 -25.1154 112.202 -24.4354C116.051 -23.6767 119.971 -23.3413 123.892 -23.4354C125.814 -23.5282 127.723 -23.8062 129.592 -24.2654C130.607 -24.512 131.609 -24.8124 132.592 -25.1654C133.616 -25.5418 134.617 -25.9759 135.592 -26.4654C136.592 -26.9554 137.592 -27.4654 138.592 -28.1254C139.082 -28.4354 139.592 -28.7554 140.072 -29.1254C140.552 -29.4954 141.072 -29.8254 141.562 -30.1854C142.562 -30.9254 143.512 -31.7154 144.482 -32.5454C145.452 -33.3754 146.402 -34.2554 147.332 -35.1754C149.432 -37.1754 151.492 -39.4654 153.472 -41.7854C154.472 -42.9354 155.472 -44.1254 156.402 -45.3154C157.332 -46.5054 158.332 -47.7254 159.272 -48.9454C160.212 -50.1654 161.272 -51.5654 162.272 -52.8754L165.272 -56.8754L168.272 -60.8754C169.272 -62.1854 170.272 -63.5254 171.272 -64.8154C174.742 -69.3454 178.112 -73.4854 181.842 -77.6154C185.505 -81.7034 189.38 -85.5954 193.452 -89.2754C194.402 -90.1254 195.342 -90.9654 196.292 -91.7754" stroke="white" stroke-linecap="round" stroke-linejoin="round"/>
<path d="M-309.338 427.115C-293.278 417.848 -277.215 408.578 -261.148 399.305L-250.588 393.195L-238.658 386.315L-226.718 379.415L-214.988 372.645L-203.298 365.915C-199.408 363.685 -195.508 361.455 -191.608 359.265C-187.708 357.075 -183.828 354.925 -179.938 352.895C-176.048 350.865 -172.148 348.975 -168.258 347.385C-164.478 345.828 -160.57 344.603 -156.578 343.725C-152.735 342.894 -148.809 342.515 -144.878 342.595C-140.964 342.769 -137.066 343.197 -133.208 343.875C-129.347 344.572 -125.446 345.023 -121.528 345.225C-117.568 345.397 -113.61 344.862 -109.838 343.645C-105.588 342.16 -101.634 339.935 -98.1579 337.075C-93.8921 333.57 -89.977 329.658 -86.4679 325.395C-82.5779 320.815 -78.6779 315.645 -74.7879 310.545C-70.8979 305.445 -67.0079 300.395 -63.1079 295.785C-59.4421 291.415 -55.5431 287.245 -51.4279 283.295C-47.7231 279.779 -43.8236 276.474 -39.7479 273.395C-35.8479 270.445 -31.9579 267.795 -28.0579 265.285C-24.1579 262.775 -20.2779 260.425 -16.3879 258.115C-12.4979 255.805 -8.59788 253.525 -4.69788 251.265C-0.797876 249.005 3.08211 246.755 6.97211 244.505L18.6521 237.725L30.3321 230.985L42.0121 224.235L53.7021 217.495L65.3821 210.745L77.0721 203.995L88.7621 197.245L100.452 190.495L112.162 183.785L123.842 177.045C127.755 174.798 131.652 172.565 135.532 170.345C139.432 168.125 143.322 165.935 147.212 163.845C151.102 161.755 155.002 159.765 158.892 158.065C162.656 156.389 166.562 155.051 170.562 154.065C174.384 153.137 178.311 152.717 182.242 152.815C186.176 152.992 190.087 153.508 193.932 154.355C197.778 155.259 201.675 155.927 205.602 156.355C209.549 156.718 213.529 156.261 217.292 155.015C221.582 153.465 225.541 151.121 228.962 148.105C233.215 144.342 237.115 140.198 240.612 135.725C244.502 130.925 248.402 125.585 252.302 120.355C256.202 115.125 260.082 110.025 263.982 105.455C267.617 101.164 271.518 97.1057 275.662 93.305C279.366 89.9468 283.267 86.8113 287.342 83.915C291.242 81.115 295.132 78.605 299.032 76.195C302.932 73.785 306.812 71.485 310.712 69.195C314.612 66.905 318.502 64.645 322.392 62.395L334.082 55.635L345.812 48.865L357.742 41.975L369.672 35.085L376.602 31.085" stroke="white" stroke-linecap="round" stroke-linejoin="round"/>
</g>
</g>
<path fill-rule="evenodd" clip-rule="evenodd" d="M162.657 0.165039H162.667C163.772 0.165073 164.667 1.06053 164.667 2.1651C164.667 3.26967 163.772 4.16507 162.667 4.16504H162.657C161.553 4.16507 160.657 3.26967 160.657 2.1651C160.657 1.06053 161.552 0.165073 162.657 0.165039ZM152.693 2.45816C152.774 3.55973 151.947 4.51873 150.845 4.60016L150.836 4.60089C149.734 4.68239 148.775 3.85547 148.693 2.75391C148.612 1.65235 149.439 0.693291 150.54 0.611793L150.551 0.611049C151.652 0.529619 152.611 1.3566 152.693 2.45816ZM172.632 2.45817C172.713 1.3566 173.672 0.529622 174.774 0.611053L174.784 0.611797C175.885 0.693295 176.712 1.65235 176.631 2.75391C176.549 3.85547 175.59 4.68239 174.489 4.60089L174.479 4.60017C173.377 4.51874 172.55 3.55973 172.632 2.45817ZM140.791 3.63485C140.954 4.72729 140.201 5.74524 139.108 5.9085L139.099 5.90995C138.006 6.07328 136.988 5.3201 136.825 4.22767C136.662 3.13524 137.415 2.11725 138.507 1.95392L138.517 1.95243C139.61 1.78917 140.627 2.54242 140.791 3.63485ZM184.534 3.63486C184.697 2.54242 185.715 1.78918 186.807 1.95244L186.817 1.95393C187.91 2.11726 188.663 3.13525 188.499 4.22768C188.336 5.3201 187.318 6.07329 186.226 5.90995L186.216 5.90851C185.124 5.74524 184.37 4.7273 184.534 3.63486ZM128.998 5.69989C129.242 6.77698 128.568 7.84862 127.491 8.09345L127.481 8.09564C126.404 8.34054 125.332 7.66593 125.087 6.58885C124.843 5.51178 125.517 4.4401 126.594 4.19519L126.604 4.19296C127.681 3.94812 128.753 4.6228 128.998 5.69989ZM196.327 5.69989C196.571 4.6228 197.643 3.94812 198.72 4.19296L198.73 4.1952C199.807 4.44011 200.482 5.51178 200.237 6.58886C199.992 7.66594 198.92 8.34055 197.843 8.09564L197.833 8.09346C196.756 7.84862 196.082 6.77699 196.327 5.69989ZM117.403 8.64293C117.728 9.69854 117.136 10.8179 116.081 11.1431L116.071 11.146C115.016 11.4713 113.896 10.8793 113.571 9.82366C113.246 8.76807 113.838 7.64866 114.893 7.32338L114.903 7.32042C115.959 6.99521 117.078 7.58732 117.403 8.64293ZM207.921 8.64293C208.246 7.58732 209.366 6.99522 210.421 7.32043L210.431 7.32339C211.486 7.64867 212.079 8.76808 211.753 9.82367C211.428 10.8793 210.309 11.4713 209.253 11.146L209.244 11.1431C208.188 10.8179 207.596 9.69854 207.921 8.64293ZM106.055 12.4536C106.459 13.4817 105.953 14.6425 104.925 15.0463L104.915 15.0499C103.887 15.4538 102.726 14.9478 102.323 13.9197C101.919 12.8916 102.425 11.7308 103.453 11.3269L103.462 11.3232C104.49 10.9194 105.651 11.4255 106.055 12.4536ZM219.269 12.4536C219.673 11.4255 220.834 10.9194 221.862 11.3232L221.871 11.3269C222.899 11.7308 223.406 12.8916 223.002 13.9197C222.598 14.9478 221.437 15.4538 220.409 15.0499L220.4 15.0463C219.372 14.6425 218.865 13.4817 219.269 12.4536ZM95.0326 17.1048C95.5125 18.0996 95.0951 19.2952 94.1002 19.7751L94.0913 19.7794C93.0965 20.2594 91.9009 19.842 91.421 18.8472C90.941 17.8523 91.3583 16.6568 92.3532 16.1768L92.3623 16.1724C93.3571 15.6925 94.5527 16.1099 95.0326 17.1048ZM230.292 17.1048C230.772 16.1099 231.967 15.6925 232.962 16.1724L232.971 16.1768C233.966 16.6568 234.383 17.8524 233.903 18.8472C233.423 19.842 232.228 20.2594 231.233 19.7794L231.224 19.7751C230.229 19.2952 229.812 18.0996 230.292 17.1048ZM84.3848 22.5735C84.938 23.5296 84.6113 24.7531 83.6552 25.3062L83.6467 25.3112C82.6906 25.8644 81.4671 25.5378 80.9139 24.5817C80.3607 23.6257 80.6873 22.4022 81.6434 21.849L81.6521 21.8439C82.6082 21.2908 83.8317 21.6174 84.3848 22.5735ZM240.939 22.5735C241.493 21.6174 242.716 21.2908 243.672 21.8439L243.681 21.849C244.637 22.4022 244.964 23.6257 244.41 24.5818C243.857 25.5378 242.634 25.8644 241.678 25.3112L241.669 25.3062C240.713 24.7531 240.386 23.5296 240.939 22.5735ZM74.1799 28.8219C74.8029 29.734 74.5685 30.9784 73.6564 31.6014L73.6483 31.607C72.7362 32.23 71.4917 31.9957 70.8687 31.0837C70.2456 30.1716 70.4799 28.9271 71.392 28.3041L71.4003 28.2984C72.3124 27.6754 73.5569 27.9097 74.1799 28.8219ZM251.144 28.8219C251.767 27.9098 253.012 27.6754 253.924 28.2984L253.932 28.3041C254.844 28.9272 255.079 30.1716 254.456 31.0837C253.833 31.9958 252.588 32.23 251.676 31.607L251.668 31.6014C250.756 30.9784 250.521 29.734 251.144 28.8219ZM64.4678 35.8155C65.157 36.6786 65.016 37.9371 64.1528 38.6263L64.1451 38.6324C63.282 39.3217 62.0235 39.1807 61.3343 38.3176C60.645 37.4545 60.786 36.196 61.6491 35.5068L61.657 35.5005C62.5201 34.8113 63.7786 34.9523 64.4678 35.8155ZM260.856 35.8155C261.546 34.9523 262.804 34.8113 263.667 35.5005L263.675 35.5068C264.538 36.196 264.679 37.4545 263.99 38.3176C263.301 39.1808 262.042 39.3217 261.179 38.6325L261.171 38.6263C260.308 37.9371 260.167 36.6787 260.856 35.8155ZM55.304 43.5118C56.0554 44.3213 56.0083 45.5868 55.1988 46.3382L55.1915 46.3449C54.382 47.0964 53.1166 47.0494 52.3651 46.2399C51.6136 45.4304 51.6606 44.1649 52.4701 43.4134L52.4775 43.4066C53.287 42.6551 54.5525 42.7022 55.304 43.5118ZM270.02 43.5118C270.772 42.7022 272.037 42.6551 272.847 43.4066L272.854 43.4134C273.664 44.165 273.711 45.4304 272.959 46.2399C272.208 47.0494 270.942 47.0965 270.133 46.345L270.125 46.3383C269.316 45.5868 269.269 44.3214 270.02 43.5118ZM46.737 51.868C47.5465 52.6195 47.5935 53.8849 46.842 54.6945L46.8353 54.7017C46.0839 55.5112 44.8184 55.5583 44.0089 54.8069C43.1993 54.0554 43.1522 52.79 43.9037 51.9804L43.9105 51.973C44.662 51.1635 45.9275 51.1165 46.737 51.868ZM278.587 51.868C279.397 51.1165 280.662 51.1635 281.414 51.973L281.421 51.9804C282.172 52.79 282.125 54.0554 281.315 54.8069C280.506 55.5583 279.24 55.5112 278.489 54.7017L278.482 54.6945C277.731 53.885 277.778 52.6195 278.587 51.868ZM38.8147 60.8372C39.6778 61.5264 39.8188 62.7849 39.1295 63.648L39.1234 63.6557C38.4342 64.5189 37.1757 64.6599 36.3125 63.9707C35.4494 63.2815 35.3084 62.0231 35.9976 61.1599L36.0039 61.152C36.6931 60.2889 37.9516 60.1479 38.8147 60.8372ZM286.51 60.8372C287.373 60.1479 288.631 60.2889 289.32 61.152L289.327 61.1599C290.016 62.0231 289.875 63.2815 289.012 63.9707C288.148 64.6599 286.89 64.5189 286.201 63.6557L286.195 63.6481C285.505 62.7849 285.646 61.5265 286.51 60.8372ZM31.5808 70.3716C32.4928 70.9946 32.7271 72.2391 32.1041 73.1512L32.0985 73.1593C31.4755 74.0714 30.2311 74.3058 29.3189 73.6828C28.4068 73.0598 28.1725 71.8153 28.7955 70.9032L28.8012 70.8949C29.4242 69.9828 30.6687 69.7485 31.5808 70.3716ZM293.743 70.3716C294.656 69.7485 295.9 69.9828 296.523 70.8949L296.529 70.9032C297.152 71.8153 296.917 73.0598 296.005 73.6828C295.093 74.3058 293.849 74.0714 293.226 73.1593L293.22 73.1512C292.597 72.2391 292.831 70.9947 293.743 70.3716ZM25.0788 80.4168C26.0349 80.9701 26.3614 82.1936 25.8082 83.1496L25.8033 83.1581C25.2502 84.1142 24.0267 84.4409 23.0706 83.8877C22.1145 83.3346 21.7879 82.1111 22.341 81.155L22.3461 81.1463C22.8993 80.1902 24.1228 79.8636 25.0788 80.4168ZM300.245 80.4169C301.201 79.8637 302.425 80.1902 302.978 81.1463L302.983 81.155C303.536 82.1111 303.21 83.3346 302.254 83.8877C301.298 84.4409 300.074 84.1142 299.521 83.1581L299.516 83.1496C298.963 82.1936 299.289 80.9701 300.245 80.4169ZM19.3443 90.9239C20.3391 91.4038 20.7565 92.5994 20.2765 93.5943L20.2722 93.6031C19.7923 94.598 18.5967 95.0154 17.6019 94.5355C16.607 94.0556 16.1896 92.86 16.6695 91.8652L16.6739 91.8561C17.1539 90.8612 18.3494 90.4439 19.3443 90.9239ZM305.98 90.9239C306.975 90.4439 308.17 90.8613 308.65 91.8561L308.655 91.8652C309.135 92.8601 308.717 94.0556 307.722 94.5355C306.728 95.0155 305.532 94.598 305.052 93.6032L305.048 93.5943C304.568 92.5994 304.985 91.4039 305.98 90.9239ZM14.4168 101.826C15.4448 102.229 15.9509 103.39 15.547 104.418L15.5434 104.427C15.1396 105.456 13.9788 105.962 12.9507 105.558C11.9226 105.154 11.4165 103.993 11.8203 102.965L11.824 102.956C12.2278 101.928 13.3887 101.422 14.4168 101.826ZM310.907 101.826C311.936 101.422 313.096 101.928 313.5 102.956L313.504 102.965C313.908 103.993 313.402 105.154 312.374 105.558C311.345 105.962 310.185 105.456 309.781 104.427L309.777 104.418C309.373 103.39 309.879 102.229 310.907 101.826ZM10.3207 113.074C11.3763 113.399 11.9684 114.519 11.6431 115.574L11.6402 115.584C11.315 116.639 10.1956 117.231 9.14 116.906C8.08439 116.581 7.49229 115.461 7.8175 114.406L7.82046 114.396C8.14574 113.341 9.26515 112.749 10.3207 113.074ZM315.003 113.074C316.059 112.749 317.178 113.341 317.504 114.396L317.507 114.406C317.832 115.462 317.24 116.581 316.184 116.906C315.129 117.231 314.009 116.639 313.684 115.584L313.681 115.574C313.356 114.519 313.948 113.399 315.003 113.074ZM7.08593 124.59C8.16301 124.835 8.83762 125.907 8.59271 126.984L8.59053 126.994C8.34569 128.071 7.27406 128.745 6.19696 128.501C5.11987 128.256 4.44519 127.184 4.69003 126.107L4.69227 126.097C4.93718 125.02 6.00885 124.345 7.08593 124.59ZM318.238 124.59C319.315 124.346 320.387 125.02 320.632 126.097L320.634 126.107C320.879 127.184 320.204 128.256 319.127 128.501C318.05 128.745 316.979 128.071 316.734 126.994L316.732 126.984C316.487 125.907 317.161 124.835 318.238 124.59ZM4.72475 136.328C5.81717 136.491 6.57036 137.509 6.40702 138.602L6.40558 138.611C6.24231 139.704 5.22437 140.457 4.13193 140.294C3.03949 140.13 2.28625 139.112 2.44951 138.02L2.451 138.01C2.61433 136.918 3.63232 136.164 4.72475 136.328ZM320.599 136.328C321.692 136.164 322.71 136.918 322.873 138.01L322.875 138.02C323.038 139.112 322.285 140.13 321.192 140.294C320.1 140.457 319.082 139.704 318.919 138.611L318.917 138.602C318.754 137.509 319.507 136.491 320.599 136.328ZM3.25098 148.196C4.35254 148.278 5.17946 149.237 5.09796 150.338L5.09724 150.348C5.01581 151.45 4.0568 152.277 2.95524 152.195C1.85367 152.114 1.02669 151.155 1.10812 150.053L1.10887 150.043C1.19037 148.942 2.14942 148.115 3.25098 148.196ZM322.073 148.196C323.175 148.115 324.134 148.942 324.215 150.043L324.216 150.053C324.298 151.155 323.471 152.114 322.369 152.195C321.267 152.277 320.308 151.45 320.227 150.348L320.226 150.339C320.145 149.237 320.972 148.278 322.073 148.196ZM2.66217 160.16C3.76674 160.16 4.66214 161.055 4.66211 162.16V162.17C4.66214 163.275 3.76674 164.17 2.66217 164.17C1.5576 164.17 0.662143 163.275 0.662109 162.17V162.16C0.662144 161.055 1.5576 160.16 2.66217 160.16ZM322.662 160.16C323.767 160.16 324.662 161.055 324.662 162.16V162.17C324.662 163.275 323.767 164.17 322.662 164.17C321.557 164.17 320.662 163.275 320.662 162.17V162.16C320.662 161.056 321.557 160.16 322.662 160.16ZM2.95524 172.135C4.0568 172.053 5.01581 172.88 5.09723 173.982L5.09796 173.992C5.17946 175.093 4.35254 176.052 3.25098 176.134C2.14942 176.215 1.19036 175.388 1.10886 174.287L1.10812 174.277C1.02669 173.175 1.85367 172.216 2.95524 172.135ZM322.369 172.135C323.471 172.216 324.298 173.175 324.216 174.277L324.215 174.287C324.134 175.388 323.175 176.215 322.073 176.134C320.972 176.052 320.145 175.093 320.226 173.992L320.227 173.982C320.308 172.88 321.267 172.053 322.369 172.135ZM4.13192 184.036C5.22436 183.873 6.24231 184.626 6.40557 185.719L6.40702 185.729C6.57035 186.821 5.81717 187.839 4.72474 188.002C3.63231 188.166 2.61432 187.412 2.45099 186.32L2.4495 186.31C2.28624 185.218 3.03949 184.2 4.13192 184.036ZM321.192 184.036C322.285 184.2 323.038 185.218 322.875 186.31L322.873 186.32C322.71 187.412 321.692 188.166 320.599 188.002C319.507 187.839 318.754 186.821 318.917 185.729L318.919 185.719C319.082 184.626 320.1 183.873 321.192 184.036ZM6.19696 195.829C7.27405 195.585 8.34569 196.259 8.59052 197.336L8.59271 197.346C8.83761 198.423 8.163 199.495 7.08592 199.74C6.00885 199.985 4.93717 199.31 4.69226 198.233L4.69003 198.223C4.44519 197.146 5.11987 196.074 6.19696 195.829ZM319.127 195.829C320.204 196.074 320.879 197.146 320.634 198.223L320.632 198.233C320.387 199.31 319.315 199.985 318.238 199.74C317.161 199.495 316.487 198.423 316.732 197.346L316.734 197.336C316.979 196.259 318.05 195.585 319.127 195.829ZM9.14 207.424C10.1956 207.099 11.315 207.691 11.6402 208.746L11.6431 208.756C11.9684 209.811 11.3763 210.931 10.3207 211.256C9.26514 211.581 8.14573 210.989 7.82046 209.934L7.81749 209.924C7.49228 208.869 8.08439 207.749 9.14 207.424ZM316.184 207.424C317.24 207.749 317.832 208.869 317.507 209.924L317.504 209.934C317.178 210.989 316.059 211.581 315.003 211.256C313.948 210.931 313.356 209.811 313.681 208.756L313.684 208.747C314.009 207.691 315.129 207.099 316.184 207.424ZM12.9507 218.772C13.9788 218.368 15.1396 218.874 15.5434 219.903L15.547 219.912C15.9509 220.94 15.4448 222.101 14.4167 222.505C13.3887 222.908 12.2278 222.402 11.824 221.374L11.8203 221.365C11.4165 220.337 11.9226 219.176 12.9507 218.772ZM312.374 218.772C313.402 219.176 313.908 220.337 313.504 221.365L313.5 221.374C313.096 222.402 311.936 222.908 310.907 222.505C309.879 222.101 309.373 220.94 309.777 219.912L309.781 219.903C310.185 218.875 311.345 218.368 312.374 218.772ZM17.6018 229.795C18.5967 229.315 19.7923 229.732 20.2722 230.727L20.2765 230.736C20.7564 231.731 20.3391 232.926 19.3442 233.406C18.3494 233.886 17.1538 233.469 16.6739 232.474L16.6695 232.465C16.1895 231.47 16.607 230.274 17.6018 229.795ZM307.722 229.795C308.717 230.274 309.135 231.47 308.655 232.465L308.65 232.474C308.17 233.469 306.975 233.886 305.98 233.406C304.985 232.926 304.568 231.731 305.048 230.736L305.052 230.727C305.532 229.732 306.728 229.315 307.722 229.795ZM23.0706 240.442C24.0267 239.889 25.2502 240.216 25.8033 241.172L25.8082 241.18C26.3614 242.137 26.0349 243.36 25.0788 243.913C24.1228 244.466 22.8993 244.14 22.3461 243.184L22.341 243.175C21.7879 242.219 22.1145 240.995 23.0706 240.442ZM302.254 240.442C303.21 240.996 303.536 242.219 302.983 243.175L302.978 243.184C302.425 244.14 301.201 244.466 300.245 243.913C299.289 243.36 298.963 242.137 299.516 241.18L299.521 241.172C300.074 240.216 301.298 239.889 302.254 240.442ZM29.3189 250.647C30.231 250.024 31.4755 250.259 32.0985 251.171L32.104 251.179C32.7271 252.091 32.4928 253.335 31.5807 253.958C30.6687 254.582 29.4242 254.347 28.8011 253.435L28.7955 253.427C28.1725 252.515 28.4068 251.27 29.3189 250.647ZM296.005 250.647C296.917 251.27 297.152 252.515 296.529 253.427L296.523 253.435C295.9 254.347 294.656 254.582 293.743 253.959C292.831 253.335 292.597 252.091 293.22 251.179L293.226 251.171C293.849 250.259 295.093 250.024 296.005 250.647ZM36.3125 260.359C37.1757 259.67 38.4342 259.811 39.1234 260.674L39.1295 260.682C39.8188 261.545 39.6778 262.804 38.8147 263.493C37.9516 264.182 36.6931 264.041 36.0038 263.178L35.9975 263.17C35.3083 262.307 35.4494 261.049 36.3125 260.359ZM289.012 260.359C289.875 261.049 290.016 262.307 289.327 263.17L289.32 263.178C288.631 264.041 287.373 264.182 286.51 263.493C285.646 262.804 285.505 261.545 286.195 260.682L286.201 260.674C286.89 259.811 288.148 259.67 289.012 260.359ZM44.0088 269.523C44.8184 268.772 46.0839 268.819 46.8353 269.628L46.842 269.636C47.5935 270.445 47.5465 271.711 46.737 272.462C45.9275 273.214 44.662 273.167 43.9105 272.357L43.9036 272.35C43.1522 271.54 43.1993 270.275 44.0088 269.523ZM281.315 269.523C282.125 270.275 282.172 271.54 281.421 272.35L281.414 272.357C280.662 273.167 279.397 273.214 278.587 272.462C277.778 271.711 277.731 270.445 278.482 269.636L278.489 269.628C279.24 268.819 280.506 268.772 281.315 269.523ZM52.365 278.09C53.1166 277.281 54.382 277.234 55.1915 277.985L55.1987 277.992C56.0083 278.743 56.0554 280.009 55.3039 280.818C54.5525 281.628 53.287 281.675 52.4775 280.923L52.4701 280.917C51.6606 280.165 51.6135 278.9 52.365 278.09ZM272.959 278.09C273.711 278.9 273.664 280.165 272.854 280.917L272.847 280.924C272.037 281.675 270.772 281.628 270.02 280.818C269.269 280.009 269.316 278.743 270.125 277.992L270.133 277.985C270.942 277.234 272.208 277.281 272.959 278.09ZM61.3342 286.012C62.0235 285.149 63.282 285.008 64.1451 285.698L64.1528 285.704C65.016 286.393 65.157 287.651 64.4678 288.515C63.7786 289.378 62.5201 289.519 61.6569 288.83L61.6491 288.823C60.7859 288.134 60.645 286.876 61.3342 286.012ZM263.99 286.012C264.679 286.876 264.538 288.134 263.675 288.823L263.667 288.83C262.804 289.519 261.546 289.378 260.856 288.515C260.167 287.651 260.308 286.393 261.171 285.704L261.179 285.698C262.042 285.008 263.301 285.149 263.99 286.012ZM70.8686 293.246C71.4917 292.334 72.7362 292.1 73.6482 292.723L73.6564 292.729C74.5685 293.352 74.8028 294.596 74.1798 295.508C73.5568 296.42 72.3124 296.655 71.4003 296.032L71.3919 296.026C70.4799 295.403 70.2456 294.158 70.8686 293.246ZM254.456 293.246C255.079 294.158 254.844 295.403 253.932 296.026L253.924 296.032C253.012 296.655 251.767 296.42 251.144 295.508C250.521 294.596 250.756 293.352 251.668 292.729L251.676 292.723C252.588 292.1 253.832 292.334 254.456 293.246ZM80.9139 299.748C81.4671 298.792 82.6906 298.466 83.6467 299.019L83.6552 299.024C84.6113 299.577 84.9379 300.8 84.3848 301.757C83.8316 302.713 82.6082 303.039 81.6521 302.486L81.6433 302.481C80.6873 301.928 80.3607 300.704 80.9139 299.748ZM244.41 299.748C244.963 300.704 244.637 301.928 243.681 302.481L243.672 302.486C242.716 303.039 241.493 302.713 240.939 301.757C240.386 300.8 240.713 299.577 241.669 299.024L241.678 299.019C242.634 298.466 243.857 298.792 244.41 299.748ZM91.4209 305.483C91.9009 304.488 93.0965 304.071 94.0913 304.551L94.1002 304.555C95.0951 305.035 95.5125 306.23 95.0326 307.225C94.5527 308.22 93.3571 308.638 92.3622 308.158L92.3531 308.153C91.3583 307.673 90.9409 306.478 91.4209 305.483ZM233.903 305.483C234.383 306.478 233.966 307.673 232.971 308.153L232.962 308.158C231.967 308.638 230.772 308.22 230.292 307.225C229.812 306.23 230.229 305.035 231.224 304.555L231.233 304.551C232.228 304.071 233.423 304.488 233.903 305.483ZM102.323 310.41C102.726 309.382 103.887 308.876 104.915 309.28L104.925 309.284C105.953 309.688 106.459 310.848 106.055 311.876C105.651 312.905 104.49 313.411 103.462 313.007L103.453 313.003C102.425 312.599 101.919 311.438 102.323 310.41ZM223.002 310.41C223.406 311.438 222.899 312.599 221.871 313.003L221.862 313.007C220.834 313.411 219.673 312.905 219.269 311.876C218.865 310.848 219.372 309.688 220.4 309.284L220.409 309.28C221.437 308.876 222.598 309.382 223.002 310.41ZM113.571 314.506C113.896 313.451 115.016 312.859 116.071 313.184L116.081 313.187C117.136 313.512 117.728 314.632 117.403 315.687C117.078 316.743 115.959 317.335 114.903 317.01L114.893 317.007C113.838 316.681 113.246 315.562 113.571 314.506ZM211.753 314.506C212.078 315.562 211.486 316.681 210.431 317.007L210.421 317.01C209.366 317.335 208.246 316.743 207.921 315.687C207.596 314.632 208.188 313.512 209.244 313.187L209.253 313.184C210.309 312.859 211.428 313.451 211.753 314.506ZM125.087 317.741C125.332 316.664 126.404 315.99 127.481 316.234L127.491 316.237C128.568 316.481 129.242 317.553 128.998 318.63C128.753 319.707 127.681 320.382 126.604 320.137L126.594 320.135C125.517 319.89 124.843 318.818 125.087 317.741ZM200.237 317.741C200.482 318.818 199.807 319.89 198.73 320.135L198.72 320.137C197.643 320.382 196.571 319.707 196.327 318.63C196.082 317.553 196.756 316.481 197.833 316.237L197.843 316.234C198.92 315.99 199.992 316.664 200.237 317.741ZM136.825 320.102C136.988 319.01 138.006 318.257 139.099 318.42L139.108 318.422C140.201 318.585 140.954 319.603 140.791 320.695C140.627 321.788 139.609 322.541 138.517 322.378L138.507 322.376C137.415 322.213 136.661 321.195 136.825 320.102ZM188.499 320.102C188.663 321.195 187.91 322.213 186.817 322.376L186.807 322.378C185.715 322.541 184.697 321.788 184.533 320.695C184.37 319.603 185.123 318.585 186.216 318.422L186.226 318.42C187.318 318.257 188.336 319.01 188.499 320.102ZM148.693 321.576C148.775 320.475 149.734 319.648 150.836 319.729L150.845 319.73C151.947 319.811 152.774 320.77 152.692 321.872C152.611 322.973 151.652 323.8 150.55 323.719L150.54 323.718C149.439 323.637 148.612 322.678 148.693 321.576ZM176.631 321.576C176.712 322.678 175.885 323.637 174.784 323.718L174.774 323.719C173.672 323.8 172.713 322.973 172.632 321.872C172.55 320.77 173.377 319.811 174.479 319.73L174.489 319.729C175.59 319.648 176.549 320.475 176.631 321.576ZM160.657 322.165C160.657 321.06 161.553 320.165 162.657 320.165H162.667C163.772 320.165 164.667 321.06 164.667 322.165C164.667 323.27 163.772 324.165 162.667 324.165H162.657C161.552 324.165 160.657 323.27 160.657 322.165Z" fill="#E4E6E7"/>
<path d="M276.477 44.8711C276.477 47.6325 274.238 49.8711 271.477 49.8711C268.715 49.8711 266.477 47.6325 266.477 44.8711C266.477 42.1097 268.715 39.8711 271.477 39.8711C274.238 39.8711 276.477 42.1097 276.477 44.8711Z" fill="url(#paint2_linear_949_4872)"/>
<path d="M77.5371 294.358C77.5371 297.12 75.2985 299.358 72.5371 299.358C69.7757 299.358 67.5371 297.12 67.5371 294.358C67.5371 291.597 69.7757 289.358 72.5371 289.358C75.2985 289.358 77.5371 291.597 77.5371 294.358Z" fill="url(#paint3_linear_949_4872)"/>
<defs>
<linearGradient id="paint0_linear_949_4872" x1="286.662" y1="38.165" x2="38.6621" y2="286.165" gradientUnits="userSpaceOnUse">
<stop offset="0.253937" stop-color="#57F906"/>
<stop offset="0.732284" stop-color="#00CCC0"/>
</linearGradient>
<linearGradient id="paint1_linear_949_4872" x1="266.662" y1="58.165" x2="58.6621" y2="266.165" gradientUnits="userSpaceOnUse">
<stop offset="0.253937" stop-color="#57F906"/>
<stop offset="0.732284" stop-color="#00CCC0"/>
</linearGradient>
<linearGradient id="paint2_linear_949_4872" x1="276.481" y1="39.8711" x2="266.477" y2="49.8711" gradientUnits="userSpaceOnUse">
<stop stop-color="#57F906"/>
<stop offset="0.59579" stop-color="#00CCC0"/>
</linearGradient>
<linearGradient id="paint3_linear_949_4872" x1="77.5415" y1="289.358" x2="67.5371" y2="299.358" gradientUnits="userSpaceOnUse">
<stop stop-color="#57F906"/>
<stop offset="0.59579" stop-color="#00CCC0"/>
</linearGradient>
</defs>
</svg>
