<svg width="324" height="324" viewBox="0 0 324 324" fill="none" xmlns="http://www.w3.org/2000/svg">
<circle opacity="0.12" cx="162" cy="162" r="124" fill="url(#paint0_linear_611_6077)"/>
<circle opacity="0.12" cx="162" cy="162" r="104" fill="url(#paint1_linear_611_6077)"/>
<mask id="mask0_611_6077" style="mask-type:alpha" maskUnits="userSpaceOnUse" x="58" y="58" width="208" height="208">
<circle cx="162" cy="162" r="104" fill="#181A1B"/>
</mask>
<g mask="url(#mask0_611_6077)">
<g opacity="0.8">
<path d="M-310 237.27C-306.43 234.72 -302.86 232.39 -299.29 230.15C-295.39 227.72 -291.5 225.39 -287.61 223.15C-283.72 220.91 -279.82 218.59 -275.92 216.34L-264.24 209.56L-252.56 202.81C-248.66 200.57 -244.767 198.323 -240.88 196.07L-229.2 189.32L-217.5 182.56C-213.613 180.313 -209.72 178.067 -205.82 175.82L-194.14 169.07L-182.5 162.32C-178.613 160.073 -174.72 157.827 -170.82 155.58L-159.15 148.83L-147.46 142.08L-135.78 135.34L-124.07 128.56L-112.38 121.81C-108.49 119.57 -104.6 117.31 -100.69 115.07C-96.78 112.83 -92.91 110.57 -89.01 108.32L-77.32 101.57L-65.64 94.8198L-53.95 88.0698L-42.27 81.3298L-30.58 74.5798L-18.9 67.8398L-7.22 61.0998L4.5 54.3998C8.39333 52.1398 12.2867 49.8898 16.18 47.6498L27.86 40.8998L39.5 34.1698L51.19 27.4298C55.0767 25.1898 58.9667 22.9632 62.86 20.7498C66.75 18.5498 70.65 16.3698 74.54 14.2998C78.43 12.2298 82.33 10.2998 86.23 8.59985C90.0061 6.946 93.9128 5.60808 97.91 4.59985C101.733 3.64326 105.659 3.15964 109.6 3.15984C113.516 3.24749 117.418 3.64878 121.27 4.35985C125.17 4.99985 129.07 5.74985 132.96 6.02985C136.882 6.39452 140.837 6.05587 144.64 5.02985C148.889 3.7341 152.855 1.64754 156.33 -1.12016C160.606 -4.55583 164.517 -8.42292 168 -12.6602C169.02 -13.8602 170.02 -15.0802 171 -16.3202C171.98 -17.5602 172.96 -18.8068 173.94 -20.0602C175.86 -22.5602 177.82 -25.1602 179.72 -27.6802C183.59 -32.8302 187.57 -38.0602 191.66 -42.9302C195.407 -47.4276 199.393 -51.7204 203.6 -55.7902C205.33 -57.4502 207.04 -58.9802 208.82 -60.4702C210.6 -61.9602 212.36 -63.3302 214.16 -64.6902C216.16 -66.1802 218.16 -67.6002 220.16 -68.9902C222.16 -70.3802 224.16 -71.7202 226.16 -72.9902C228.96 -74.8202 231.8 -76.6102 259.47 -91.9102" stroke="white" stroke-linecap="round" stroke-linejoin="round"/>
<path d="M-310 303.18C-307.08 300.12 -304.17 296.68 -301.25 293.04C-297.35 288.18 -293.47 282.97 -289.57 277.98C-285.67 272.99 -281.77 268.24 -277.88 263.98C-274.219 259.909 -270.322 256.055 -266.21 252.44C-262.473 249.189 -258.564 246.141 -254.5 243.31C-250.61 240.58 -246.72 238.08 -242.82 235.68C-238.92 233.28 -235.04 230.98 -231.14 228.68C-227.24 226.38 -223.35 224.14 -219.45 221.88L-207.78 215.13L-196.09 208.39L-184.41 201.64L-172.73 194.89L-161.05 188.15L-149.37 181.41C-145.483 179.163 -141.59 176.913 -137.69 174.66L-126.01 167.92L-114.32 161.18L-102.64 154.43L-90.97 147.69L-79.28 140.94L-67.59 134.2L-55.9 127.45L-44.22 120.7L-32.5 113.96L-20.81 107.21L-9.13 100.47L2.5 93.7298L14.17 86.9798L25.85 80.2298C29.75 77.9832 33.6433 75.7365 37.53 73.4898L49.21 66.7598L60.89 60.0198C64.79 57.7698 68.67 55.5298 72.57 53.3098C76.47 51.0898 80.36 48.8798 84.25 46.7598C88.14 44.6398 92.03 42.5798 95.92 40.7598C99.7033 38.9443 103.61 37.3972 107.61 36.1298C111.406 34.9451 115.325 34.1969 119.29 33.8998C123.191 33.6902 127.102 33.861 130.97 34.4098C134.86 34.9198 138.76 35.6698 142.66 36.1498C146.527 36.7196 150.455 36.7499 154.33 36.2398C158.478 35.5653 162.453 34.084 166.03 31.8798C170.322 29.1663 174.247 25.9131 177.71 22.1998C181.839 17.7666 185.738 13.1238 189.39 8.28983C193.28 3.28983 197.18 -2.02018 201.08 -6.99018C204.82 -11.7702 208.76 -16.5202 212.8 -20.8002C214.733 -22.8402 216.693 -24.7868 218.68 -26.6402C220.667 -28.4935 222.687 -30.2535 224.74 -31.9202C226.74 -33.5102 228.74 -35.0402 230.68 -36.4902C232.62 -37.9402 234.68 -39.3402 236.68 -40.6702C238.45 -41.8602 240.18 -42.9702 241.96 -44.0902C243.74 -45.2102 245.47 -46.2502 247.25 -47.3202C253.97 -51.3202 261.17 -55.5802 326.46 -91.9302" stroke="white" stroke-linecap="round" stroke-linejoin="round"/>
<path d="M-310 350.56L-305.5 348.02C-301.5 345.76 -297.5 343.52 -293.56 341.41C-291.6 340.357 -289.643 339.34 -287.69 338.36C-285.69 337.36 -283.77 336.47 -281.83 335.61C-278.049 333.903 -274.141 332.496 -270.14 331.4C-266.326 330.381 -262.406 329.81 -258.46 329.7C-254.549 329.671 -250.643 329.962 -246.78 330.57C-242.88 331.12 -238.98 331.81 -235.09 332.11C-231.185 332.498 -227.244 332.268 -223.41 331.43C-219.226 330.4 -215.267 328.61 -211.73 326.15C-207.466 323.146 -203.549 319.678 -200.05 315.81C-196.15 311.64 -192.26 306.81 -188.37 301.88C-184.48 296.95 -180.57 291.88 -176.68 287.05C-172.79 282.22 -168.9 277.76 -165 273.73C-161.319 269.916 -157.419 266.32 -153.32 262.96C-149.42 259.76 -145.53 256.96 -141.64 254.28C-137.75 251.6 -133.85 249.2 -129.96 246.83C-126.07 244.46 -122.17 242.17 -118.27 239.9L-106.59 233.11L-94.91 226.36L-83.23 219.62L-71.5 212.88C-67.6133 210.633 -63.72 208.387 -59.82 206.14L-48.14 199.39L-36.5 192.65L-24.81 185.9L-13.13 179.15L-1.45001 172.41L10.24 165.66L21.93 158.91L33.61 152.17L45.31 145.41L56.99 138.67L68.67 131.92L80.35 125.18L92.04 118.45C95.9267 116.203 99.8167 113.977 103.71 111.77C107.6 109.56 111.5 107.38 115.39 105.31C119.28 103.24 123.18 101.31 127.07 99.6101C130.835 97.9378 134.74 96.5993 138.74 95.6101C142.569 94.7036 146.496 94.277 150.43 94.3401C154.348 94.49 158.25 94.9379 162.1 95.6801C165.965 96.4396 169.867 96.9937 173.79 97.3401C177.734 97.6498 181.702 97.2398 185.5 96.1301C189.748 94.7508 193.705 92.598 197.17 89.7801C201.446 86.2902 205.366 82.3844 208.87 78.1201C212.76 73.5101 216.65 68.3201 220.55 63.1701C224.45 58.0201 228.34 52.8901 232.23 48.1701C235.877 43.7541 239.766 39.5443 243.88 35.5601C247.574 32.0401 251.478 28.7474 255.57 25.7001C259.46 22.7901 263.36 20.1901 267.25 17.7001C269.203 16.4601 271.16 15.2501 273.12 14.0701C275.12 12.8801 277.02 11.7201 278.98 10.5601C282.98 8.20673 286.96 5.87339 290.92 3.56006C294.88 1.24673 298.857 -1.05328 302.85 -3.33994L313.41 -9.44994L375.94 -45.4399" stroke="white" stroke-linecap="round" stroke-linejoin="round"/>
<path d="M-310 388.75C-304.96 385.85 -299.927 382.944 -294.9 380.03L-284.33 373.93L-272.4 367.05L-260.5 360.17C-256.587 357.924 -252.677 355.694 -248.77 353.48C-244.87 351.27 -240.98 349.11 -237.09 347.08C-233.2 345.05 -229.29 343.13 -225.4 341.51C-221.621 339.901 -217.714 338.61 -213.72 337.65C-209.89 336.754 -205.973 336.288 -202.04 336.26C-198.131 336.3 -194.228 336.604 -190.36 337.17C-186.46 337.67 -182.56 338.25 -178.67 338.44C-174.748 338.691 -170.811 338.33 -167 337.37C-162.806 336.193 -158.849 334.291 -155.31 331.75C-151.049 328.667 -147.133 325.133 -143.63 321.21C-139.73 316.97 -135.85 312.05 -131.95 307.02C-128.05 301.99 -124.16 296.84 -120.26 292.02C-116.36 287.2 -112.48 282.68 -108.59 278.7C-104.916 274.938 -101.012 271.408 -96.9 268.13C-93.01 265.02 -89.12 262.27 -85.22 259.7C-81.32 257.13 -77.44 254.7 -73.54 252.39C-69.64 250.08 -65.75 247.77 -61.86 245.51C-57.97 243.25 -54.08 240.99 -50.18 238.74C-46.28 236.49 -42.4 234.24 -38.5 231.99L-26.82 225.25L-15.14 218.5L-3.45001 211.75L8.23001 205.01L19.91 198.26L31.64 191.56L43.32 184.81L55.01 178.06L66.7 171.31L78.39 164.56L90.07 157.81L101.76 151.07C105.66 148.824 109.55 146.584 113.43 144.35C117.34 142.12 121.23 139.9 125.12 137.75C129.01 135.6 132.91 133.49 136.79 131.58C140.581 129.674 144.493 128.017 148.5 126.62C152.276 125.31 156.199 124.467 160.18 124.11C164.079 123.834 167.997 123.998 171.86 124.6C175.75 125.15 179.65 125.98 183.54 126.6C187.392 127.301 191.324 127.459 195.22 127.07C199.363 126.514 203.342 125.093 206.9 122.9C211.217 120.183 215.147 116.893 218.58 113.12C222.716 108.617 226.615 103.9 230.26 98.9902C234.15 93.8802 238.05 88.5802 241.95 83.6202C245.85 78.6602 249.73 74.0402 253.63 69.9502C257.288 66.1036 261.193 62.4993 265.32 59.1602C269.21 55.9902 273.1 53.2202 277 50.6302C280.9 48.0402 284.78 45.6302 288.68 43.3002C292.58 40.9702 296.47 38.6802 300.37 36.4202C304.27 34.1602 308.18 31.8802 312.09 29.6202L324.03 22.7202L335.96 15.8402L346.5 9.72021L375.95 -7.27979" stroke="white" stroke-linecap="round" stroke-linejoin="round"/>
<path d="M-310 322.73C-307.74 322.73 -305.48 322.94 -303.21 323.19C-299.32 323.63 -295.42 324.32 -291.53 324.75C-287.654 325.265 -283.726 325.265 -279.85 324.75C-275.711 324.088 -271.741 322.628 -268.16 320.45C-263.882 317.777 -259.964 314.567 -256.5 310.9C-252.363 306.559 -248.457 302.002 -244.8 297.25C-240.9 292.25 -237.02 287.06 -233.12 282.15C-229.22 277.24 -225.34 272.66 -221.44 268.56C-217.76 264.673 -213.86 261.001 -209.76 257.56C-205.86 254.31 -201.97 251.43 -198.08 248.77C-194.19 246.11 -190.29 243.64 -186.39 241.27C-182.49 238.9 -178.61 236.6 -174.71 234.32C-170.81 232.04 -166.93 229.79 -163.03 227.54L-151.35 220.78L-139.67 214.04L-127.98 207.29L-116.31 200.56L-104.62 193.81L-92.94 187.07L-81.26 180.33L-69.59 173.56L-57.9 166.82L-46.21 160.07L-34.5 153.3L-22.84 146.56L-11.15 139.81L0.5 133.06L12.19 126.32L23.9 119.56L35.59 112.81L47.26 106.07L58.95 99.3298L70.62 92.5598L82.3 85.8398C86.2 83.5998 90.0967 81.3865 93.99 79.1998C97.88 77.0298 101.77 74.9098 105.66 72.9598C109.455 71.0175 113.358 69.2947 117.35 67.7998C121.122 66.3974 125.03 65.392 129.01 64.7998C132.886 64.2853 136.807 64.2048 140.7 64.5598C144.59 64.8898 148.49 65.5598 152.39 66.2298C156.239 66.9599 160.153 67.295 164.07 67.2298C168.121 67.0576 172.095 66.0642 175.75 64.3098C180.042 62.1599 183.98 59.3678 187.43 56.0298C191.629 51.9784 195.536 47.6341 199.12 43.0298C203.02 38.1598 206.9 32.8898 210.8 27.8298C214.7 22.7698 218.59 17.9598 222.5 13.5598C226.168 9.43804 230.071 5.53154 234.19 1.85979C237.93 -1.42331 241.842 -4.50436 245.91 -7.37022C247.91 -8.78022 249.91 -10.1202 251.91 -11.3702C253.91 -12.6202 255.91 -13.9202 257.91 -15.1502C261.85 -17.5802 265.91 -19.9802 269.84 -22.3002C273.307 -24.3935 276.803 -26.4402 280.33 -28.4402C312.2 -46.9002 344.07 -65.1502 375.94 -83.9702" stroke="white" stroke-linecap="round" stroke-linejoin="round"/>
<path d="M-268.5 594L-96.4 494.63L-85.84 488.56L-73.9 481.67L-61.96 474.78L-50.23 468L-38.5 461.24L-26.82 454.49L-15.14 447.75L-3.5 441L8.17001 434.26L19.87 427.56L31.5 420.77L43.19 414.02L54.88 407.28L66.59 400.56L78.28 393.85C82.17 391.62 86.06 389.41 89.95 387.26C93.84 385.11 97.74 383.01 101.64 381.06C105.54 379.11 109.43 377.32 113.32 375.82C117.113 374.34 121.019 373.167 125 372.31C128.846 371.517 132.755 371.072 136.68 370.98C140.58 370.89 144.46 371.12 148.36 371.35C152.26 371.58 156.14 371.79 160.04 371.68C163.976 371.604 167.892 371.101 171.72 370.18C175.777 369.161 179.699 367.66 183.4 365.71C187.504 363.542 191.415 361.026 195.09 358.19C198.98 355.24 202.87 351.88 206.77 348.4C210.67 344.92 214.55 341.32 218.45 337.85C222.35 334.38 226.24 331.04 230.14 328.03C233.854 325.11 237.756 322.438 241.82 320.03C245.564 317.853 249.476 315.981 253.52 314.43C257.339 313.003 261.239 311.804 265.2 310.84C269.11 309.84 273 309.06 276.89 308.1C280.869 307.168 284.773 305.941 288.57 304.43C292.694 302.724 296.615 300.564 300.26 297.99C304.446 294.982 308.352 291.601 311.93 287.89C315.84 283.89 319.73 279.37 323.62 274.57C327.51 269.77 331.4 264.71 335.29 259.9C339.18 255.09 343.08 250.5 346.97 246.36C354.002 238.825 361.831 232.076 370.32 226.23C372.2 224.93 374.07 223.69 375.94 222.49" stroke="white" stroke-linecap="round" stroke-linejoin="round"/>
<path d="M-310 579.76L-129.5 475.56L-118.94 469.46L-106.99 462.56C-102.99 460.26 -98.99 457.96 -94.99 455.66L-83.27 448.89L-71.58 442.15L-59.89 435.4L-48.21 428.66L-36.53 421.91L-24.85 415.17L-13.16 408.42L-1.5 401.67L10.17 394.93C14.07 392.683 17.9667 390.447 21.86 388.22C25.75 385.99 29.65 383.78 33.54 381.63C37.43 379.48 41.33 377.39 45.23 375.46C49.0233 373.541 52.9191 371.831 56.9 370.34C60.6833 368.913 64.5944 367.851 68.58 367.17C72.443 366.543 76.3617 366.329 80.27 366.53C84.16 366.72 88.05 367.27 91.94 367.75C95.8118 368.295 99.7207 368.532 103.63 368.46C107.624 368.344 111.57 367.566 115.31 366.16C119.521 364.499 123.459 362.213 126.99 359.38C131.172 356.011 135.078 352.312 138.67 348.32C142.55 344.12 146.45 339.5 150.35 334.84C154.25 330.18 158.13 325.49 162.03 321.05C165.93 316.61 169.81 312.43 173.71 308.61C177.61 304.79 181.5 301.37 185.4 298.21C189.3 295.05 193.18 292.21 197.08 289.55C200.98 286.89 204.88 284.45 208.77 282.23C212.66 280.01 216.57 277.98 220.46 276.23C224.247 274.486 228.153 273.016 232.15 271.83C235.961 270.706 239.879 269.983 243.84 269.67C247.734 269.44 251.639 269.52 255.52 269.91C259.42 270.25 263.32 270.75 267.2 270.98C271.102 271.302 275.029 271.107 278.88 270.4C283.026 269.499 286.968 267.831 290.5 265.48C294.783 262.588 298.704 259.194 302.18 255.37C306.07 251.21 309.97 246.37 313.86 241.37C317.75 236.37 321.65 231.1 325.54 226.18C329.43 221.26 333.32 216.66 337.21 212.59C340.878 208.756 344.783 205.156 348.9 201.81C352.79 198.66 356.68 195.89 360.57 193.31C364.46 190.73 368.36 188.31 372.26 186.01L375.91 183.84" stroke="white" stroke-linecap="round" stroke-linejoin="round"/>
<path d="M-310 541.56L-162.56 456.44L-152 450.34L-140.07 443.45L-128.13 436.56L-116.4 429.79C-112.5 427.53 -108.6 425.29 -104.71 423.03L-93.02 416.29L-81.35 409.56L-69.66 402.81L-57.99 396.07L-46.3 389.33C-42.4 387.083 -38.5067 384.846 -34.62 382.62C-30.73 380.4 -26.83 378.19 -22.93 376.04C-19.03 373.89 -15.15 371.8 -11.26 369.89C-7.4617 367.994 -3.56252 366.309 0.420013 364.84C4.21138 363.439 8.12491 362.394 12.11 361.72C15.9725 361.12 19.8857 360.912 23.79 361.1C27.68 361.26 31.58 361.76 35.47 362.2C39.3402 362.727 43.2446 362.961 47.15 362.9C51.1448 362.794 55.0934 362.017 58.83 360.6C63.0667 358.883 67.0053 356.507 70.5 353.56C74.7208 350.001 78.6254 346.083 82.17 341.85C86.07 337.34 89.96 332.33 93.86 327.31C97.76 322.29 101.64 317.31 105.53 312.7C109.214 308.365 113.116 304.219 117.22 300.28C120.928 296.736 124.827 293.398 128.9 290.28C132.78 287.28 136.68 284.62 140.58 282.09C144.48 279.56 148.36 277.17 152.27 274.83C156.18 272.49 160.05 270.21 163.95 267.94C167.85 265.67 171.74 263.41 175.64 261.17C179.54 258.93 183.43 256.69 187.33 254.49C191.23 252.29 195.12 250.13 199.02 248.08C202.92 246.03 206.81 244.08 210.7 242.42C214.48 240.794 218.395 239.502 222.4 238.56C226.229 237.653 230.156 237.23 234.09 237.3C238.009 237.427 241.914 237.848 245.77 238.56C249.645 239.344 253.561 239.908 257.5 240.25C261.441 240.558 265.405 240.114 269.18 238.94C273.453 237.452 277.411 235.18 280.85 232.24C285.119 228.589 289.021 224.53 292.5 220.12C296.39 215.34 300.28 209.96 304.17 204.69C308.06 199.42 311.96 194.26 315.85 189.64C319.472 185.306 323.363 181.205 327.5 177.36C331.195 173.984 335.095 170.841 339.18 167.95C343.08 165.17 346.97 162.68 350.87 160.28C354.77 157.88 358.65 155.59 362.55 153.28L374.25 146.56L375.94 145.56" stroke="white" stroke-linecap="round" stroke-linejoin="round"/>
<path d="M-310 503.36L-195.65 437.36L-185.09 431.27L-173.15 424.38L-161.21 417.48L-149.5 410.68L-137.82 403.94L-126.13 397.19L-114.45 390.44L-102.76 383.7C-98.8667 381.46 -94.9767 379.226 -91.09 377C-87.19 374.77 -83.29 372.56 -79.4 370.42C-75.51 368.28 -71.62 366.2 -67.73 364.32C-63.9327 362.447 -60.0294 360.798 -56.04 359.38C-52.2485 358.034 -48.3326 357.07 -44.35 356.5C-40.4817 355.992 -36.5727 355.868 -32.68 356.13C-28.78 356.35 -24.89 356.87 -20.99 357.32C-17.1232 357.84 -13.2189 358.028 -9.32001 357.88C-5.29885 357.646 -1.34628 356.733 2.37 355.18C6.60253 353.332 10.5385 350.869 14.05 347.87C18.2453 344.265 22.1507 340.337 25.73 336.12C29.62 331.63 33.52 326.7 37.41 321.73C41.3 316.76 45.19 311.8 49.09 307.2C52.99 302.6 56.87 298.42 60.77 294.66C64.4888 291.093 68.405 287.738 72.5 284.61C76.39 281.61 80.28 278.96 84.18 276.43C88.08 273.9 91.97 271.53 95.87 269.21C99.77 266.89 103.65 264.6 107.55 262.33C111.45 260.06 115.33 257.82 119.23 255.56L130.92 248.81L142.6 242.06L154.29 235.32L165.95 228.56C169.86 226.32 173.76 224.1 177.64 221.94C181.52 219.78 185.43 217.66 189.32 215.74C193.101 213.816 197.007 212.145 201.01 210.74C208.493 208.06 216.549 207.394 224.37 208.81C228.27 209.45 232.16 210.47 236.04 211.15C239.883 211.926 243.825 212.091 247.72 211.64C251.906 211.002 255.896 209.437 259.4 207.06C263.741 204.038 267.668 200.461 271.08 196.42C274.97 192 278.86 186.83 282.76 181.52C286.66 176.21 290.54 170.76 294.44 165.84C298.058 161.216 301.959 156.821 306.12 152.68C309.789 149.056 313.69 145.675 317.8 142.56C321.7 139.61 325.59 137 329.48 134.56C333.37 132.12 337.27 129.75 341.17 127.45C345.07 125.15 348.95 122.9 352.85 120.64C356.75 118.38 360.65 116.14 364.54 113.88L375.94 107.3" stroke="white" stroke-linecap="round" stroke-linejoin="round"/>
<path d="M-310 465.15L-228.73 418.23L-218.17 412.14L-206.24 405.25L-194.29 398.35L-182.57 391.56L-170.88 384.81L-159.2 378.07L-147.5 371.37C-143.6 369.14 -139.7 366.91 -135.81 364.74C-131.92 362.57 -128.02 360.45 -124.13 358.5C-120.356 356.557 -116.473 354.835 -112.5 353.34C-108.721 351.923 -104.807 350.894 -100.82 350.27C-96.9528 349.711 -93.0358 349.58 -89.14 349.88C-85.24 350.15 -81.34 350.8 -77.45 351.36C-73.5921 352.012 -69.6819 352.303 -65.77 352.23C-61.7349 352.074 -57.7641 351.168 -54.06 349.56C-49.8045 347.637 -45.8661 345.078 -42.38 341.97C-38.1846 338.247 -34.2799 334.209 -30.7 329.89C-26.8 325.32 -22.91 320.31 -19.01 315.35C-15.11 310.39 -11.23 305.47 -7.34 300.98C-3.65841 296.703 0.243546 292.621 4.35001 288.75C8.06341 285.262 11.9624 281.978 16.03 278.91C19.91 275.97 23.81 273.32 27.71 270.81C31.61 268.3 35.49 265.93 39.39 263.6C43.29 261.27 47.17 259 51.07 256.73L62.75 249.96L74.44 243.21L86.12 236.47L97.8 229.72L109.5 222.96L121.19 216.21L132.87 209.47L144.57 202.73C148.47 200.49 152.36 198.25 156.25 196.06C160.14 193.87 164.04 191.68 167.93 189.67C171.725 187.659 175.624 185.85 179.61 184.25C183.371 182.718 187.292 181.614 191.3 180.96C195.168 180.405 199.092 180.365 202.97 180.84C206.86 181.28 210.76 182.17 214.65 182.94C218.481 183.817 222.4 184.253 226.33 184.24C230.395 184.126 234.383 183.101 238 181.24C242.358 178.893 246.306 175.853 249.69 172.24C253.879 167.806 257.777 163.106 261.36 158.17C265.25 152.99 269.15 147.52 273.05 142.43C276.95 137.34 280.83 132.62 284.73 128.43C288.373 124.55 292.272 120.919 296.4 117.56C300.149 114.516 304.051 111.666 308.09 109.02C311.98 106.45 315.87 104.02 319.77 101.73C323.67 99.4401 327.56 97.1302 331.45 94.8602L343.13 88.1102L354.82 81.3501C358.71 79.1101 362.6 76.8502 366.5 74.6102L375.94 69.1602" stroke="white" stroke-linecap="round" stroke-linejoin="round"/>
<path d="M-202.328 594L-63.3281 513.74L-52.7681 507.64L-40.8381 500.75L-28.8981 493.86L-17.1681 487.09L-5.49812 480.34L6.23189 473.56L17.9019 466.82L29.5919 460.07L41.2719 453.33L52.9519 446.58C56.8519 444.34 60.7452 442.093 64.6319 439.84L76.3219 433.1L88.0019 426.35C91.8886 424.103 95.7819 421.856 99.6819 419.61L111.362 412.86L123.042 406.12L134.722 399.39C138.609 397.156 142.505 394.936 146.412 392.73C150.302 390.54 154.192 388.38 158.082 386.29C161.972 384.2 165.872 382.22 169.772 380.41C173.672 378.6 177.552 376.95 181.442 375.53C185.27 374.122 189.172 372.927 193.132 371.95C197.022 370.95 200.912 370.29 204.802 369.73C208.692 369.17 212.592 368.73 216.492 368.35C220.392 367.97 224.272 367.5 228.172 366.9C232.104 366.329 236.003 365.548 239.852 364.56C243.821 363.487 247.724 362.185 251.542 360.66C255.432 359.12 259.332 357.35 263.222 355.41C267.112 353.47 271.012 351.41 274.912 349.14C278.812 346.87 282.702 344.55 286.602 342.04C290.502 339.53 294.392 336.83 298.292 333.91C302.192 330.99 306.092 327.82 309.972 324.35C313.852 320.88 317.772 317.09 321.652 313.14C325.532 309.19 329.462 305.03 333.342 300.86C337.222 296.69 341.142 292.42 345.022 288.41C348.902 284.4 352.822 280.54 356.702 277C360.582 273.46 364.492 270.17 368.382 267.16C370.902 265.2 373.422 263.346 375.942 261.6" stroke="white" stroke-linecap="round" stroke-linejoin="round"/>
<path d="M-310 121.34L-305.08 118.5L-293.4 111.76L-281.73 105.02L-270.04 98.27L-258.37 91.56L-246.68 84.81L-235 78.07L-223.32 71.33L-211.63 64.56L-199.94 57.81L-188.26 51.06L-176.57 44.32L-164.88 37.56L-153.2 30.81L-141.5 24.07L-129.81 17.32L-118.15 10.56L-106.5 3.82999L-94.82 -2.91L-83.14 -9.65L-71.43 -16.44L-59.76 -23.18L-48.08 -29.92L-36.4 -36.66L-24.72 -43.41L-13.03 -50.15C-9.14333 -52.3967 -5.25001 -54.6433 -1.35001 -56.89L10.33 -63.63C14.23 -65.86 18.12 -68.09 22.01 -70.27C25.9 -72.45 29.81 -74.6 33.7 -76.58C37.4985 -78.5486 41.3971 -80.3177 45.38 -81.88C47.38 -82.64 49.33 -83.31 51.29 -83.88C53.1862 -84.4287 55.1128 -84.8661 57.06 -85.19C60.9235 -85.8157 64.8477 -85.9801 68.75 -85.68C69.75 -85.6 70.75 -85.51 71.75 -85.38C72.75 -85.25 73.75 -85.13 74.68 -84.98C76.62 -84.7 78.56 -84.37 80.5 -84.07C81.5 -83.93 82.43 -83.78 83.41 -83.65C84.39 -83.52 85.41 -83.41 86.36 -83.31C88.3802 -83.112 90.4118 -83.0552 92.44 -83.14C94.3996 -83.235 96.3488 -83.4825 98.27 -83.88C100.354 -84.3192 102.393 -84.9519 104.36 -85.77C105.24 -86.14 106.12 -86.55 107.01 -87.02C107.9 -87.49 108.78 -88.02 109.67 -88.57C110.56 -89.12 111.44 -89.74 112.32 -90.39C113.02 -90.9 113.71 -91.39 114.4 -92" stroke="white" stroke-linecap="round" stroke-linejoin="round"/>
<path d="M-310 159.56L-307 157.86L-295.31 151.11L-283.63 144.37L-272 137.56L-260.32 130.82C-256.427 128.573 -252.533 126.326 -248.64 124.08L-236.96 117.33L-225.28 110.59L-213.6 103.85L-201.92 97.0998L-190.24 90.3598L-178.5 83.6498L-166.82 76.8998L-155.12 70.1498L-143.5 63.4098L-131.81 56.6598L-120.12 49.9098L-108.44 43.1698L-96.76 36.4198L-85.08 29.6798L-73.4 22.9298L-61.72 16.1898L-50.04 9.44981L-38.36 2.69981L-26.68 -4.03019L-15 -10.7802L-3.32999 -17.5202L8.35999 -24.2702L20.04 -31.0102C23.9267 -33.2502 27.82 -35.4835 31.72 -37.7102C35.61 -39.9302 39.51 -42.1302 43.41 -44.2502C47.31 -46.3702 51.2 -48.3802 55.09 -50.1602C58.8595 -51.9395 62.7694 -53.4044 66.78 -54.5402C70.6012 -55.5871 74.5385 -56.1515 78.5 -56.2202C82.4186 -56.2346 86.3307 -55.8999 90.19 -55.2202C92.13 -54.9002 94.06 -54.5302 96 -54.2202C97 -54.0502 97.94 -53.8902 98.92 -53.7502C99.9 -53.6102 100.92 -53.4702 101.92 -53.3702C103.809 -53.1568 105.71 -53.0799 107.61 -53.1402C109.634 -53.2099 111.645 -53.4915 113.61 -53.9802C114.606 -54.2418 115.587 -54.5555 116.55 -54.9202C117.574 -55.3062 118.576 -55.7503 119.55 -56.2502C120.55 -56.7602 121.55 -57.3302 122.55 -57.9702C123.55 -58.6102 124.55 -59.3202 125.55 -60.0802C127.681 -61.7405 129.709 -63.5306 131.62 -65.4402C133.62 -67.4402 135.55 -69.5202 137.43 -71.6902C139.31 -73.8602 141.04 -76.0202 142.81 -78.2902C144.58 -80.5602 146.28 -82.8502 148 -85.1402C149.72 -87.4302 151.42 -89.7302 153.09 -91.9502" stroke="white" stroke-linecap="round" stroke-linejoin="round"/>
<path d="M-310 197.75L-309 197.17L-297.32 190.43L-285.63 183.68L-273.95 176.94L-262.27 170.19L-250.59 163.45L-238.91 156.71L-227.22 149.96L-215.55 143.22L-203.86 136.47L-192.19 129.73L-180.5 122.99L-168.82 116.24C-164.92 113.993 -161.023 111.743 -157.13 109.49L-145.5 102.75C-141.6 100.503 -137.703 98.2534 -133.81 96.0001L-122.12 89.2601L-110.4 82.5601L-98.72 75.8101L-87.03 69.0601L-75.35 62.3201L-63.66 55.5601L-51.99 48.8201L-40.3 42.0701L-28.63 35.3301C-24.73 33.0901 -20.8367 30.8434 -16.95 28.5901L-5.26001 21.8501L6.39999 15.1101L18.1 8.36006L29.77 1.56006L41.5 -5.14994C45.39 -7.37994 49.29 -9.60994 53.18 -11.7899C57.07 -13.9699 60.96 -16.0999 64.86 -18.0699C68.6396 -20.0228 72.5257 -21.7622 76.5 -23.2799C80.2796 -24.6797 84.1937 -25.685 88.18 -26.2799C92.0545 -26.8162 95.9795 -26.8834 99.87 -26.4799C103.76 -26.0999 107.65 -25.2799 111.54 -24.5999C115.389 -23.8412 119.309 -23.5059 123.23 -23.5999C125.152 -23.6928 127.061 -23.9707 128.93 -24.4299C129.945 -24.6765 130.947 -24.977 131.93 -25.3299C132.954 -25.7064 133.955 -26.1404 134.93 -26.6299C135.93 -27.1199 136.93 -27.6299 137.93 -28.2899C138.42 -28.5999 138.93 -28.9199 139.41 -29.2899C139.89 -29.6599 140.41 -29.9899 140.9 -30.3499C141.9 -31.0899 142.85 -31.8799 143.82 -32.7099C144.79 -33.5399 145.74 -34.4199 146.67 -35.3399C148.77 -37.3399 150.83 -39.6299 152.81 -41.9499C153.81 -43.0999 154.81 -44.2899 155.74 -45.4799C156.67 -46.6699 157.67 -47.8899 158.61 -49.1099C159.55 -50.3299 160.61 -51.7299 161.61 -53.0399L164.61 -57.0399L167.61 -61.0399C168.61 -62.3499 169.61 -63.6899 170.61 -64.9799C174.08 -69.5099 177.45 -73.6499 181.18 -77.7799C184.842 -81.8679 188.718 -85.76 192.79 -89.4399C193.74 -90.2899 194.68 -91.1299 195.63 -91.9399" stroke="white" stroke-linecap="round" stroke-linejoin="round"/>
<path d="M-310 426.95C-293.94 417.683 -277.877 408.413 -261.81 399.14L-251.25 393.03L-239.32 386.15L-227.38 379.25L-215.65 372.48L-203.96 365.75C-200.07 363.52 -196.17 361.29 -192.27 359.1C-188.37 356.91 -184.49 354.76 -180.6 352.73C-176.71 350.7 -172.81 348.81 -168.92 347.22C-165.14 345.663 -161.232 344.438 -157.24 343.56C-153.397 342.729 -149.471 342.35 -145.54 342.43C-141.626 342.604 -137.728 343.032 -133.87 343.71C-130.009 344.407 -126.108 344.858 -122.19 345.06C-118.23 345.232 -114.272 344.697 -110.5 343.48C-106.25 341.995 -102.296 339.77 -98.82 336.91C-94.5542 333.405 -90.6391 329.493 -87.13 325.23C-83.24 320.65 -79.34 315.48 -75.45 310.38C-71.56 305.28 -67.67 300.23 -63.77 295.62C-60.1042 291.25 -56.2052 287.08 -52.09 283.13C-48.3852 279.614 -44.4857 276.309 -40.41 273.23C-36.51 270.28 -32.62 267.63 -28.72 265.12C-24.82 262.61 -20.94 260.26 -17.05 257.95C-13.16 255.64 -9.25999 253.36 -5.35999 251.1C-1.45999 248.84 2.42 246.59 6.31 244.34L17.99 237.56L29.67 230.82L41.35 224.07L53.04 217.33L64.72 210.58L76.41 203.83L88.1 197.08L99.79 190.33L111.5 183.62L123.18 176.88C127.093 174.633 130.99 172.4 134.87 170.18C138.77 167.96 142.66 165.77 146.55 163.68C150.44 161.59 154.34 159.6 158.23 157.9C161.994 156.224 165.899 154.886 169.9 153.9C173.722 152.972 177.649 152.552 181.58 152.65C185.514 152.828 189.425 153.343 193.27 154.19C197.116 155.094 201.013 155.762 204.94 156.19C208.887 156.553 212.867 156.096 216.63 154.85C220.92 153.3 224.879 150.956 228.3 147.94C232.553 144.177 236.452 140.033 239.95 135.56C243.84 130.76 247.74 125.42 251.64 120.19C255.54 114.96 259.42 109.86 263.32 105.29C266.954 100.999 270.855 96.9408 275 93.14C278.704 89.7818 282.604 86.6463 286.68 83.75C290.58 80.95 294.47 78.44 298.37 76.03C302.27 73.62 306.15 71.32 310.05 69.03C313.95 66.74 317.84 64.48 321.73 62.23L333.42 55.47L345.15 48.7L357.08 41.81L369.01 34.92L375.94 30.92" stroke="white" stroke-linecap="round" stroke-linejoin="round"/>
</g>
</g>
<circle cx="162" cy="162" r="160" stroke="#E3E7E8" stroke-width="4" stroke-linecap="round" stroke-linejoin="round" stroke-dasharray="0.01 12"/>
<circle cx="271" cy="45" r="5" fill="url(#paint2_linear_611_6077)"/>
<circle cx="73" cy="294" r="5" fill="url(#paint3_linear_611_6077)"/>
<defs>
<linearGradient id="paint0_linear_611_6077" x1="286" y1="38" x2="38" y2="286" gradientUnits="userSpaceOnUse">
<stop offset="0.253937" stop-color="#57F906"/>
<stop offset="0.732284" stop-color="#00CCC0"/>
</linearGradient>
<linearGradient id="paint1_linear_611_6077" x1="266" y1="58" x2="58" y2="266" gradientUnits="userSpaceOnUse">
<stop offset="0.253937" stop-color="#57F906"/>
<stop offset="0.732284" stop-color="#00CCC0"/>
</linearGradient>
<linearGradient id="paint2_linear_611_6077" x1="276.004" y1="40" x2="266" y2="50" gradientUnits="userSpaceOnUse">
<stop stop-color="#57F906"/>
<stop offset="0.59579" stop-color="#00CCC0"/>
</linearGradient>
<linearGradient id="paint3_linear_611_6077" x1="78.0044" y1="289" x2="68" y2="299" gradientUnits="userSpaceOnUse">
<stop stop-color="#57F906"/>
<stop offset="0.59579" stop-color="#00CCC0"/>
</linearGradient>
</defs>
</svg>
