<svg width="324" height="163" viewBox="0 0 324 163" fill="none" xmlns="http://www.w3.org/2000/svg">
<circle opacity="0.12" cx="162" cy="1" r="124" fill="url(#paint0_linear_611_5621)"/>
<circle opacity="0.12" cx="162" cy="1" r="104" fill="url(#paint1_linear_611_5621)"/>
<mask id="mask0_611_5621" style="mask-type:alpha" maskUnits="userSpaceOnUse" x="58" y="-103" width="208" height="208">
<circle cx="162" cy="1" r="104" fill="#181A1B"/>
</mask>
<g mask="url(#mask0_611_5621)">
<g opacity="0.8">
<path d="M506.991 95.8993H505.821L483.701 95.8293C476.334 95.7893 468.961 95.7426 461.581 95.6893C454.201 95.636 446.831 95.5693 439.471 95.4893C432.091 95.3893 424.721 95.2793 417.351 95.0993C409.981 94.9193 402.601 94.6993 395.241 94.3693C387.881 94.0393 380.501 93.6393 373.161 93.0893C365.821 92.5393 358.461 91.8293 351.161 90.8993C347.507 90.4393 343.871 89.9126 340.251 89.3193C336.631 88.726 333.027 88.0293 329.441 87.2293C322.295 85.6941 315.275 83.6216 308.441 81.0293C301.744 78.4233 295.29 75.2344 289.151 71.4993C283.116 67.7468 277.291 63.6673 271.701 59.2793C268.891 57.1193 266.101 54.9293 263.301 52.7593C260.501 50.5893 257.701 48.4193 254.831 46.3193C249.093 42.0599 243.08 38.1847 236.831 34.7193C230.435 31.2362 223.742 28.3281 216.831 26.0293C214.671 25.3226 212.494 24.656 210.301 24.0293C205.326 22.6908 200.282 21.6226 195.191 20.8293C192.717 20.4493 190.234 20.116 187.741 19.8293C185.241 19.5593 182.741 19.3593 180.231 19.1993C177.491 19.0193 174.761 18.8993 172.011 18.8293L169.611 18.7793C167.661 18.7793 165.751 18.7793 163.801 18.7793C162.481 18.7793 161.171 18.7793 159.851 18.7793H156.761H154.081H151.511H148.831H145.741H141.801C139.851 18.7793 137.941 18.7793 135.991 18.8293H133.611C130.881 18.8993 128.121 18.9993 125.401 19.1493C122.851 19.2793 120.401 19.4593 117.831 19.6893C115.261 19.9193 112.831 20.2193 110.301 20.5693C105.225 21.2868 100.194 22.2884 95.2308 23.5693C92.8908 24.1693 90.5708 24.8493 88.2908 25.5693C81.2971 27.8482 74.5312 30.7742 68.0808 34.3093C61.7936 37.8087 55.7619 41.7485 50.0308 46.0993C47.1708 48.2293 44.3808 50.4393 41.6008 52.6493C38.8208 54.8593 36.0808 57.1093 33.2908 59.3093C27.7375 63.7998 21.9277 67.9635 15.8908 71.7793C9.70674 75.6241 3.17462 78.8785 -3.61922 81.4993C-10.5151 84.0774 -17.5994 86.1201 -24.8092 87.6093C-28.4192 88.3693 -32.0592 89.0293 -35.7192 89.6093C-39.3792 90.1893 -43.0392 90.6893 -46.7192 91.1393C-54.0792 92.0393 -61.4592 92.7193 -68.8492 93.2593C-76.2392 93.7993 -83.6492 94.1993 -91.0692 94.5193C-98.4892 94.8393 -105.889 95.0493 -113.299 95.2193C-120.709 95.3893 -128.129 95.5093 -135.539 95.5993C-142.949 95.6893 -150.369 95.7493 -157.779 95.8093L-178.949 95.9393" stroke="white" stroke-linecap="round" stroke-linejoin="round"/>
<path d="M506.991 65.4202H505.261L483.101 65.3401C475.721 65.3401 468.334 65.2968 460.941 65.2101C453.547 65.1235 446.161 65.0535 438.781 65.0002C431.381 64.9135 423.987 64.7868 416.601 64.6201C409.201 64.4401 401.811 64.2102 394.421 63.8902C387.031 63.5702 379.631 63.1502 372.261 62.6002C364.891 62.0502 357.501 61.3502 350.161 60.4202C346.491 59.9502 342.831 59.4202 339.161 58.8202C335.491 58.2202 331.881 57.5401 328.281 56.7401C321.102 55.2065 314.048 53.134 307.181 50.5402C300.413 47.929 293.885 44.7336 287.671 40.9901C281.566 37.2329 275.668 33.1503 270.001 28.7602C267.151 26.6102 264.331 24.4202 261.501 22.2602C258.671 20.1002 255.791 17.9102 252.871 15.8102C246.987 11.5308 240.819 7.65526 234.411 4.21014C227.778 0.687234 220.839 -2.22799 213.681 -4.49985C210.681 -5.43985 207.681 -6.25984 204.681 -6.98984C199.961 -8.10984 195.181 -8.98985 190.361 -9.65985C188.441 -9.92985 186.511 -10.1598 184.571 -10.3698C180.911 -10.7498 177.261 -11.0099 173.571 -11.1999C171.091 -11.3299 168.571 -11.4199 166.111 -11.4799C164.161 -11.5299 162.221 -11.5698 160.271 -11.5898H155.191H150.331C148.641 -11.5898 146.941 -11.5899 145.251 -11.5399C143.311 -11.5399 141.361 -11.4898 139.411 -11.4398C136.921 -11.3698 134.411 -11.2799 131.951 -11.1599C128.271 -10.9699 124.611 -10.6999 120.951 -10.3199C119.024 -10.1199 117.094 -9.88651 115.161 -9.61984C110.351 -8.96984 105.531 -8.10985 100.811 -7.02985C97.7208 -6.31985 94.6608 -5.51985 91.6408 -4.59985C84.3849 -2.39441 77.3536 0.491747 70.6408 4.02014C64.1788 7.46897 57.9758 11.3826 52.0808 15.7302C49.3208 17.7302 46.6108 19.8202 43.9208 21.9202C40.9208 24.2502 38.0008 26.5902 35.0208 28.9202C29.3806 33.3953 23.4948 37.5518 17.3908 41.3701C11.1499 45.1877 4.56835 48.4182 -2.26923 51.0201C-9.21448 53.6062 -16.349 55.6523 -23.6092 57.1402C-27.2392 57.9102 -30.8992 58.5702 -34.6092 59.1402C-38.3192 59.7102 -41.9792 60.2301 -45.6792 60.6801C-53.0692 61.5801 -60.4892 62.2602 -67.9192 62.8102C-75.3492 63.3602 -82.7692 63.7502 -90.2092 64.0602C-97.6492 64.3702 -105.079 64.6001 -112.519 64.7701C-119.959 64.9401 -127.389 65.0502 -134.819 65.1402C-142.249 65.2302 -149.679 65.3002 -157.109 65.3502L-178.949 65.5002" stroke="white" stroke-linecap="round" stroke-linejoin="round"/>
<path d="M506.991 34.94H500.991C493.511 34.94 486.034 34.9134 478.561 34.86C471.087 34.8067 463.591 34.7667 456.071 34.74C448.591 34.6734 441.084 34.5934 433.551 34.5L427.771 34.43C422.164 34.35 416.551 34.2467 410.931 34.12C403.361 33.94 395.801 33.7101 388.231 33.3901C380.661 33.0701 373.031 32.66 365.441 32.1C357.851 31.54 350.181 30.8501 342.581 29.9201C338.754 29.4601 334.937 28.93 331.131 28.33C327.321 27.72 323.531 27.04 319.771 26.25C312.199 24.7011 304.744 22.6261 297.461 20.0401C292.872 18.3854 288.373 16.4928 283.981 14.37C281.431 13.15 278.981 11.85 276.471 10.49C269.711 6.75003 263.301 2.55003 256.971 -1.72997C253.721 -3.91997 250.481 -6.13997 247.221 -8.31997C243.961 -10.5 240.661 -12.63 237.291 -14.68C235.921 -15.52 234.551 -16.33 233.161 -17.13C227.123 -20.616 220.847 -23.6735 214.381 -26.28C211.381 -27.47 208.381 -28.54 205.381 -29.52C199.213 -31.4773 192.923 -33.024 186.551 -34.15C184.924 -34.45 183.284 -34.72 181.631 -34.96C178.371 -35.45 175.081 -35.84 171.801 -36.15C167.541 -36.55 163.231 -36.81 158.951 -36.94C154.871 -37.05 150.751 -37.05 146.671 -36.94C142.401 -36.81 138.091 -36.55 133.831 -36.15C130.541 -35.84 127.251 -35.45 123.991 -34.96C122.351 -34.72 120.701 -34.45 119.071 -34.15C112.665 -33.0205 106.341 -31.4671 100.141 -29.5C97.0808 -28.5 94.0708 -27.45 91.1408 -26.26C84.6722 -23.6543 78.3964 -20.5933 72.3608 -17.1C70.9708 -16.3 69.5908 -15.49 68.2208 -14.65C64.8508 -12.6 61.5608 -10.47 58.2808 -8.27996C55.0008 -6.08996 51.7708 -3.88996 48.5208 -1.68996C42.1708 2.60004 35.7308 6.83004 28.9708 10.59C26.5108 11.95 24.0208 13.25 21.4808 14.47C17.0419 16.6254 12.4922 18.5447 7.85078 20.22C0.497688 22.8509 -7.03508 24.9497 -14.6892 26.5C-18.4892 27.28 -22.3126 27.9667 -26.1592 28.56C-30.0059 29.1534 -33.8626 29.6801 -37.7292 30.1401C-45.3892 31.0601 -53.0792 31.75 -60.7892 32.3C-68.4992 32.85 -76.0992 33.3 -83.7892 33.58C-91.4792 33.86 -99.0392 34.12 -106.669 34.29C-111.963 34.4167 -117.256 34.5134 -122.549 34.58L-129.449 34.6701C-137.009 34.7701 -144.573 34.84 -152.139 34.88C-159.706 34.92 -167.249 34.9667 -174.769 35.02H-178.949" stroke="white" stroke-linecap="round" stroke-linejoin="round"/>
<path d="M506.991 4.50064C502.361 4.50064 497.741 4.50064 493.121 4.50064C485.461 4.50064 477.794 4.4773 470.121 4.43063C462.447 4.38396 454.741 4.34062 447.001 4.30062C439.241 4.24729 431.481 4.1773 423.721 4.09063C415.891 3.99063 408.061 3.88065 400.231 3.70065C392.401 3.52065 384.391 3.30065 376.471 2.98065C372.101 2.80065 367.711 2.60062 363.341 2.36062C359.681 2.16062 356.014 1.93731 352.341 1.69064C344.131 1.13064 335.991 0.430647 327.821 -0.489353C323.627 -0.95602 319.451 -1.4927 315.291 -2.09937C311.131 -2.70604 306.981 -3.3927 302.841 -4.15937C295.721 -5.50937 288.681 -7.15937 281.741 -9.15937C280.351 -9.55937 278.971 -9.96936 277.601 -10.3994C269.071 -13.1012 260.707 -16.3 252.551 -19.9794C249.961 -21.1394 247.391 -22.3294 244.821 -23.5394C242.251 -24.7494 239.711 -25.9994 237.171 -27.2294C233.751 -28.8894 230.341 -30.5594 226.911 -32.2294C220.301 -35.3894 213.761 -38.3494 206.911 -40.9994C202.911 -42.5394 198.911 -43.9394 194.741 -45.1794C190.951 -46.3294 187.121 -47.3194 183.221 -48.1794C179.841 -48.9127 176.431 -49.5294 172.991 -50.0294C169.551 -50.5194 166.081 -50.8994 162.611 -51.1394C156.052 -51.5994 149.469 -51.5994 142.911 -51.1394C139.437 -50.886 135.981 -50.5127 132.541 -50.0194C129.101 -49.526 125.687 -48.9094 122.301 -48.1694C118.414 -47.3227 114.574 -46.3227 110.781 -45.1694C106.651 -43.9194 102.621 -42.5294 98.6108 -40.9794C91.7308 -38.3294 85.1908 -35.3594 78.6108 -32.1994C75.1841 -30.5594 71.7674 -28.8927 68.3608 -27.1994C65.8074 -25.9594 63.2541 -24.7294 60.7008 -23.5094C58.1308 -22.2894 55.5608 -21.0994 52.9708 -19.9394C44.8046 -16.2658 36.4302 -13.0737 27.8908 -10.3794C26.5108 -9.94937 25.1308 -9.53938 23.7408 -9.13938C16.8008 -7.13938 9.74079 -5.50938 2.62079 -4.13938C-1.51921 -3.35938 -5.67922 -2.66603 -9.85922 -2.05936C-14.0392 -1.45269 -18.2359 -0.932696 -22.4492 -0.499363C-30.6592 0.420637 -38.8392 1.13064 -47.0792 1.69064C-50.7059 1.94397 -54.3326 2.16729 -57.9592 2.36062C-62.4192 2.60062 -66.8692 2.80063 -71.3392 2.99063C-79.3392 3.31063 -87.3192 3.55397 -95.2792 3.72064C-103.239 3.8873 -111.136 4.01729 -118.969 4.11062C-126.796 4.20396 -134.623 4.27398 -142.449 4.32064C-150.276 4.36731 -158.046 4.4273 -165.759 4.50064H-178.949" stroke="white" stroke-linecap="round" stroke-linejoin="round"/>
<path d="M506.989 156.889H495.989L473.209 156.809C465.575 156.809 457.945 156.766 450.319 156.679C442.692 156.593 435.025 156.523 427.319 156.469C419.599 156.383 411.879 156.253 404.159 156.079C396.439 155.906 388.652 155.666 380.799 155.359C372.909 155.029 365.059 154.619 357.189 154.069C351.089 153.639 344.999 153.129 338.929 152.499C337.049 152.313 335.175 152.109 333.309 151.889C329.255 151.423 325.219 150.889 321.199 150.289C317.199 149.679 313.199 148.999 309.199 148.219C301.058 146.65 293.022 144.576 285.139 142.009C278.922 139.945 272.821 137.552 266.859 134.839C265.169 134.069 263.479 133.269 261.809 132.459C259.869 131.509 257.939 130.529 256.029 129.539C254.119 128.549 252.209 127.539 250.319 126.539C246.529 124.479 242.789 122.369 239.019 120.279C235.249 118.189 231.349 116.019 227.439 113.979C222.909 111.599 218.359 109.379 213.639 107.319C209.389 105.479 205.089 103.819 200.639 102.319C193.801 100.034 186.806 98.2493 179.709 96.9795C176.909 96.4795 174.089 96.0495 171.259 95.7095C168.019 95.3195 164.759 95.0295 161.499 94.8395C155.7 94.5145 149.887 94.5145 144.089 94.8395C140.822 95.0195 137.565 95.3095 134.319 95.7095C131.485 96.0495 128.665 96.4728 125.859 96.9795C118.765 98.2527 111.773 100.041 104.939 102.329C100.519 103.809 96.2086 105.479 91.9386 107.329C87.2086 109.379 82.6686 111.609 78.1286 113.979C74.2286 116.029 70.3886 118.149 66.5486 120.289C62.7086 122.429 59.0386 124.489 55.2486 126.559C53.3586 127.559 51.4486 128.559 49.5386 129.559C47.6286 130.559 45.6986 131.559 43.7486 132.479C42.0786 133.289 40.3986 134.089 38.6986 134.859C32.735 137.582 26.6295 139.982 20.4086 142.049C12.5067 144.628 4.45088 146.709 -3.7114 148.279C-7.7114 149.069 -11.7114 149.749 -15.7814 150.359C-19.8514 150.969 -23.8914 151.489 -27.9614 151.959C-29.7914 152.179 -31.6414 152.379 -33.4914 152.569C-39.6514 153.236 -45.8247 153.763 -52.0114 154.149C-59.9414 154.709 -67.8614 155.149 -75.8114 155.449C-83.7614 155.749 -91.5114 155.999 -99.3714 156.169C-107.231 156.339 -114.951 156.469 -122.731 156.559C-130.511 156.649 -138.201 156.719 -145.931 156.769C-153.661 156.819 -161.321 156.869 -169.011 156.909H-178.941" stroke="white" stroke-linecap="round" stroke-linejoin="round"/>
<path d="M506.991 126.4H502.731C495.284 126.4 487.841 126.373 480.401 126.32C472.961 126.267 465.511 126.223 458.051 126.19C450.577 126.143 443.111 126.073 435.651 125.98C428.191 125.887 420.714 125.757 413.221 125.59C405.721 125.423 398.224 125.183 390.731 124.87C385.991 124.67 381.254 124.427 376.521 124.14C373.741 123.97 370.961 123.79 368.201 123.58C360.661 123.02 353.141 122.33 345.651 121.4C341.891 120.94 338.131 120.4 334.401 119.81C330.671 119.22 326.931 118.52 323.241 117.73C315.831 116.177 308.543 114.095 301.431 111.5C294.391 108.886 287.581 105.692 281.071 101.95C274.561 98.22 268.411 94.02 262.371 89.73C261.421 89.06 260.471 88.39 259.531 87.73C256.941 85.88 254.361 84.02 251.751 82.19C249.141 80.36 246.521 78.55 243.841 76.79C237.232 72.4086 230.302 68.531 223.111 65.19C221.484 64.45 219.841 63.74 218.181 63.06C211.435 60.3285 204.483 58.135 197.391 56.5L195.561 56.1C190.511 55 185.371 54.16 180.211 53.53C176.211 53.04 172.211 52.68 168.211 52.43C164.741 52.21 161.211 52.06 157.761 51.99C154.441 51.92 151.091 51.92 147.761 51.99C144.281 52.06 140.761 52.21 137.311 52.43C133.311 52.69 129.311 53.05 125.311 53.54C120.151 54.17 115.011 55.01 109.951 56.11L108.131 56.52C101.034 58.1504 94.0788 60.344 87.3308 63.08C85.6708 63.76 84.0208 64.47 82.4008 65.21C75.1902 68.5507 68.2406 72.4283 61.6108 76.81C58.9308 78.56 56.3008 80.36 53.6908 82.19C51.0808 84.02 48.5008 85.88 45.9208 87.73L43.0108 89.81C36.9508 94.12 30.7608 98.38 24.2408 102.15C17.6857 105.941 10.8211 109.169 3.72078 111.8C-3.45124 114.401 -10.8043 116.474 -18.2792 118C-22.0192 118.78 -25.7792 119.45 -29.5492 120.05C-33.3192 120.65 -37.1192 121.15 -40.9192 121.6C-48.4692 122.51 -56.0492 123.2 -63.6492 123.75C-66.1492 123.93 -68.6492 124.09 -71.1592 124.25C-76.2126 124.55 -81.2759 124.803 -86.3492 125.01C-93.8892 125.33 -101.433 125.57 -108.979 125.73C-116.526 125.89 -124.053 126.013 -131.559 126.1C-139.073 126.193 -146.586 126.263 -154.099 126.31C-161.613 126.357 -169.106 126.4 -176.579 126.44L-178.949 126.5" stroke="white" stroke-linecap="round" stroke-linejoin="round"/>
</g>
</g>
<circle cx="162" cy="1" r="160" stroke="#E3E7E8" stroke-width="4" stroke-linecap="round" stroke-linejoin="round" stroke-dasharray="0.01 12"/>
<circle cx="13" cy="58" r="5" fill="url(#paint2_linear_611_5621)"/>
<circle cx="271" cy="120" r="5" fill="url(#paint3_linear_611_5621)"/>
<defs>
<linearGradient id="paint0_linear_611_5621" x1="286" y1="-123" x2="38" y2="125" gradientUnits="userSpaceOnUse">
<stop offset="0.21627" stop-color="#FFE600"/>
<stop offset="0.597222" stop-color="#FD6A00"/>
</linearGradient>
<linearGradient id="paint1_linear_611_5621" x1="266" y1="-103" x2="58" y2="105" gradientUnits="userSpaceOnUse">
<stop offset="0.21627" stop-color="#FFE600"/>
<stop offset="0.597222" stop-color="#FD6A00"/>
</linearGradient>
<linearGradient id="paint2_linear_611_5621" x1="18" y1="53" x2="8" y2="63" gradientUnits="userSpaceOnUse">
<stop offset="0.21627" stop-color="#FFE600"/>
<stop offset="0.597222" stop-color="#FD6A00"/>
</linearGradient>
<linearGradient id="paint3_linear_611_5621" x1="276" y1="115" x2="266" y2="125" gradientUnits="userSpaceOnUse">
<stop offset="0.21627" stop-color="#FFE600"/>
<stop offset="0.597222" stop-color="#FD6A00"/>
</linearGradient>
</defs>
</svg>
