<svg width="325" height="325" viewBox="0 0 325 325" fill="none" xmlns="http://www.w3.org/2000/svg">
<circle opacity="0.12" cx="162.613" cy="162.165" r="124" fill="url(#paint0_linear_949_4763)"/>
<circle opacity="0.12" cx="162.613" cy="162.165" r="104" fill="url(#paint1_linear_949_4763)"/>
<mask id="mask0_949_4763" style="mask-type:alpha" maskUnits="userSpaceOnUse" x="58" y="58" width="209" height="209">
<circle cx="162.613" cy="162.165" r="104" fill="#181A1B"/>
</mask>
<g mask="url(#mask0_949_4763)">
<g opacity="0.8">
<path d="M507.603 104.665H490.493C482.247 104.665 474.003 104.665 465.763 104.665C457.377 104.665 448.99 104.639 440.603 104.585C432.03 104.585 423.46 104.542 414.893 104.455C406.073 104.402 397.257 104.332 388.443 104.245L379.653 104.155C373.42 104.075 367.193 103.979 360.973 103.865C351.327 103.685 341.66 103.442 331.973 103.135C321.683 102.805 311.673 102.405 301.403 101.895H300.613C288.483 101.285 277.033 100.575 264.913 99.7155C259.373 99.3155 253.83 98.8988 248.283 98.4655L233.523 97.2655L218.763 96.0455C214.763 95.7188 210.763 95.3855 206.763 95.0455C200.763 94.5855 194.763 94.1555 188.713 93.7955C182.663 93.4355 176.713 93.1455 170.623 92.9455C158.943 92.5755 147.763 92.5755 136.083 92.9455C130.023 93.1455 124.023 93.4355 117.993 93.7955C111.963 94.1555 105.943 94.5955 99.9333 95.0555C95.9333 95.3688 91.9333 95.7021 87.9333 96.0555L73.1633 97.2355L58.4033 98.4355C52.8633 98.8755 47.3166 99.2955 41.7633 99.6955C29.6533 100.555 18.2033 101.265 6.07329 101.885H5.29329C-4.99671 102.405 -14.9967 102.805 -25.2867 103.145C-34.9467 103.459 -44.6134 103.702 -54.2867 103.875C-60.5067 103.995 -66.7301 104.095 -72.9567 104.175L-81.7667 104.275C-90.5867 104.369 -99.4101 104.439 -108.237 104.485C-116.83 104.545 -125.417 104.595 -133.997 104.635L-159.237 104.715H-178.387" stroke="white" stroke-linecap="round" stroke-linejoin="round"/>
<path d="M507.604 257.064H506.434L484.314 256.994C476.947 256.954 469.574 256.908 462.194 256.854C454.814 256.801 447.444 256.734 440.084 256.654C432.704 256.554 425.334 256.444 417.964 256.264C410.594 256.084 403.214 255.864 395.854 255.534C388.494 255.204 381.114 254.804 373.774 254.254C366.434 253.704 359.074 252.994 351.774 252.064C348.121 251.604 344.484 251.078 340.864 250.484C337.244 249.891 333.641 249.194 330.054 248.394C322.908 246.859 315.888 244.787 309.054 242.194C302.358 239.588 295.903 236.399 289.764 232.664C283.729 228.912 277.904 224.832 272.314 220.444C269.504 218.284 266.714 216.094 263.914 213.924C261.114 211.754 258.314 209.584 255.444 207.484C249.706 203.225 243.693 199.35 237.444 195.884C231.048 192.401 224.355 189.493 217.444 187.194C215.284 186.488 213.107 185.821 210.914 185.194C205.939 183.856 200.895 182.788 195.804 181.994C193.331 181.614 190.847 181.281 188.354 180.994C185.854 180.724 183.354 180.524 180.844 180.364C178.104 180.184 175.374 180.064 172.624 179.994L170.224 179.944C168.274 179.944 166.364 179.944 164.414 179.944C163.094 179.944 161.784 179.944 160.464 179.944H157.374H154.694H152.124H149.444H146.354H142.414C140.464 179.944 138.554 179.944 136.604 179.994H134.224C131.494 180.064 128.734 180.164 126.014 180.314C123.464 180.444 121.014 180.624 118.444 180.854C115.874 181.084 113.444 181.384 110.914 181.734C105.839 182.452 100.807 183.453 95.8441 184.734C93.5041 185.334 91.1841 186.014 88.9041 186.734C81.9104 189.013 75.1445 191.939 68.6941 195.474C62.4069 198.974 56.3751 202.914 50.6441 207.264C47.7841 209.394 44.9941 211.604 42.2141 213.814C39.4341 216.024 36.6941 218.274 33.9041 220.474C28.3508 224.965 22.5409 229.129 16.5041 232.944C10.32 236.789 3.7879 240.044 -3.00594 242.664C-9.90177 245.242 -16.9861 247.285 -24.1959 248.774C-27.8059 249.534 -31.4459 250.194 -35.1059 250.774C-38.7659 251.354 -42.4259 251.854 -46.1059 252.304C-53.4659 253.204 -60.8459 253.884 -68.2359 254.424C-75.6259 254.964 -83.0359 255.364 -90.4559 255.684C-97.8759 256.004 -105.276 256.214 -112.686 256.384C-120.096 256.554 -127.516 256.674 -134.926 256.764C-142.336 256.854 -149.756 256.914 -157.166 256.974L-178.336 257.104" stroke="white" stroke-linecap="round" stroke-linejoin="round"/>
<path d="M507.604 226.585H505.874L483.714 226.505C476.334 226.505 468.947 226.462 461.554 226.375C454.161 226.289 446.774 226.219 439.394 226.165C431.994 226.079 424.601 225.952 417.214 225.785C409.814 225.605 402.424 225.375 395.034 225.055C387.644 224.735 380.244 224.315 372.874 223.765C365.504 223.215 358.114 222.515 350.774 221.585C347.104 221.115 343.444 220.585 339.774 219.985C336.104 219.385 332.494 218.705 328.894 217.905C321.715 216.372 314.662 214.299 307.794 211.705C301.026 209.094 294.498 205.899 288.284 202.155C282.179 198.398 276.281 194.315 270.614 189.925C267.764 187.775 264.944 185.585 262.114 183.425C259.284 181.265 256.404 179.075 253.484 176.975C247.6 172.696 241.432 168.82 235.024 165.375C228.391 161.852 221.453 158.937 214.294 156.665C211.294 155.725 208.294 154.905 205.294 154.175C200.574 153.055 195.794 152.175 190.974 151.505C189.054 151.235 187.124 151.005 185.184 150.795C181.524 150.415 177.874 150.155 174.184 149.965C171.704 149.835 169.184 149.745 166.724 149.685C164.774 149.635 162.834 149.595 160.884 149.575H155.804H150.944C149.254 149.575 147.554 149.575 145.864 149.625C143.924 149.625 141.974 149.675 140.024 149.725C137.534 149.795 135.024 149.885 132.564 150.005C128.884 150.195 125.224 150.465 121.564 150.845C119.637 151.045 117.707 151.279 115.774 151.545C110.964 152.195 106.144 153.055 101.424 154.135C98.3341 154.845 95.2741 155.645 92.2541 156.565C84.9982 158.771 77.9669 161.657 71.2541 165.185C64.792 168.634 58.5891 172.548 52.6941 176.895C49.9341 178.895 47.2241 180.985 44.5341 183.085C41.5341 185.415 38.6141 187.755 35.6341 190.085C29.9939 194.56 24.108 198.717 18.0041 202.535C11.7632 206.353 5.18163 209.583 -1.65594 212.185C-8.60119 214.771 -15.7357 216.817 -22.9959 218.305C-26.6259 219.075 -30.2859 219.735 -33.9959 220.305C-37.7059 220.875 -41.3659 221.395 -45.0659 221.845C-52.4559 222.745 -59.8759 223.425 -67.3059 223.975C-74.7359 224.525 -82.1559 224.915 -89.5959 225.225C-97.0359 225.535 -104.466 225.765 -111.906 225.935C-119.346 226.105 -126.776 226.215 -134.206 226.305C-141.636 226.395 -149.066 226.465 -156.496 226.515L-178.336 226.665" stroke="white" stroke-linecap="round" stroke-linejoin="round"/>
<path d="M507.604 135.164H505.524C497.644 135.164 489.767 135.164 481.894 135.164C474.021 135.164 466.071 135.141 458.044 135.094L443.324 135.014L433.914 134.964C425.754 134.904 417.591 134.831 409.424 134.744C401.104 134.651 392.771 134.524 384.424 134.364C375.874 134.194 367.424 133.954 358.824 133.634C349.944 133.304 341.184 132.894 332.314 132.354L331.004 132.264C322.104 131.714 313.364 131.034 304.494 130.164C299.494 129.684 294.494 129.164 289.494 128.544C284.494 127.924 279.554 127.254 274.584 126.544L269.584 125.754C259.944 124.194 250.704 122.404 241.194 120.334C236.741 119.361 232.304 118.361 227.884 117.334L213.344 113.974C208.494 112.874 203.614 111.784 198.744 110.794L195.274 110.114C190.584 109.194 185.894 108.384 181.164 107.704C176.434 107.024 171.684 106.494 166.894 106.134C157.87 105.464 148.808 105.464 139.784 106.134C134.994 106.484 130.254 107.024 125.514 107.704C120.774 108.384 116.094 109.204 111.394 110.114L107.934 110.804C103.064 111.804 98.1841 112.874 93.3341 113.984C88.4841 115.094 83.6441 116.234 78.7941 117.364C74.3641 118.364 69.9341 119.364 65.4841 120.364C55.9641 122.444 46.7241 124.224 37.0841 125.794C35.4141 126.074 33.7541 126.324 32.0841 126.584C27.0841 127.344 22.1641 128.014 17.1741 128.584C12.1841 129.154 7.17406 129.744 2.17406 130.224C-6.70594 131.084 -15.4559 131.774 -24.3559 132.334L-25.6659 132.414C-34.5359 132.964 -43.3159 133.414 -52.1959 133.714C-60.7659 134.034 -69.2859 134.274 -77.8559 134.454C-86.2093 134.621 -94.5626 134.751 -102.916 134.844C-111.129 134.931 -119.336 135.001 -127.536 135.054L-136.806 135.124L-151.806 135.204L-175.806 135.284H-178.336" stroke="white" stroke-linecap="round" stroke-linejoin="round"/>
<path d="M507.604 196.105H501.604C494.124 196.105 486.647 196.078 479.174 196.025C471.701 195.972 464.204 195.932 456.684 195.905C449.204 195.838 441.697 195.758 434.164 195.665L428.384 195.595C422.777 195.515 417.164 195.412 411.544 195.285C403.974 195.105 396.414 194.875 388.844 194.555C381.274 194.235 373.644 193.825 366.054 193.265C358.464 192.705 350.794 192.015 343.194 191.085C339.367 190.625 335.551 190.095 331.744 189.495C327.934 188.885 324.144 188.205 320.384 187.415C312.812 185.866 305.357 183.791 298.074 181.205C293.485 179.55 288.986 177.658 284.594 175.535C282.044 174.315 279.594 173.015 277.084 171.655C270.324 167.915 263.914 163.715 257.584 159.435C254.334 157.245 251.094 155.025 247.834 152.845C244.574 150.665 241.274 148.535 237.904 146.485C236.534 145.645 235.164 144.835 233.774 144.035C227.736 140.549 221.461 137.491 214.994 134.885C211.994 133.695 208.994 132.625 205.994 131.645C199.826 129.688 193.536 128.141 187.164 127.015C185.537 126.715 183.897 126.445 182.244 126.205C178.984 125.715 175.694 125.325 172.414 125.015C168.154 124.615 163.844 124.355 159.564 124.225C155.484 124.115 151.364 124.115 147.284 124.225C143.014 124.355 138.704 124.615 134.444 125.015C131.154 125.325 127.864 125.715 124.604 126.205C122.964 126.445 121.314 126.715 119.684 127.015C113.278 128.145 106.954 129.698 100.754 131.665C97.6941 132.665 94.6841 133.715 91.7541 134.905C85.2855 137.511 79.0097 140.572 72.9741 144.065C71.5841 144.865 70.2041 145.675 68.8341 146.515C65.4641 148.565 62.1741 150.695 58.8941 152.885C55.6141 155.075 52.3841 157.275 49.1341 159.475C42.7841 163.765 36.3441 167.995 29.5841 171.755C27.1241 173.115 24.6341 174.415 22.0941 175.635C17.6551 177.79 13.1055 179.71 8.46407 181.385C1.11097 184.016 -6.4218 186.115 -14.0759 187.665C-17.8759 188.445 -21.6993 189.132 -25.5459 189.725C-29.3926 190.318 -33.2493 190.845 -37.1159 191.305C-44.7759 192.225 -52.4659 192.915 -60.1759 193.465C-67.8859 194.015 -75.4859 194.465 -83.1759 194.745C-90.8659 195.025 -98.4259 195.285 -106.056 195.455C-111.349 195.582 -116.643 195.678 -121.936 195.745L-128.836 195.835C-136.396 195.935 -143.959 196.005 -151.526 196.045C-159.093 196.085 -166.636 196.132 -174.156 196.185H-178.336" stroke="white" stroke-linecap="round" stroke-linejoin="round"/>
<path d="M507.604 165.666C502.974 165.666 498.354 165.666 493.734 165.666C486.074 165.666 478.407 165.642 470.734 165.596C463.061 165.549 455.354 165.506 447.614 165.466C439.854 165.412 432.094 165.342 424.334 165.256C416.504 165.156 408.674 165.046 400.844 164.866C393.014 164.686 385.004 164.466 377.084 164.146C372.714 163.966 368.324 163.766 363.954 163.526C360.294 163.326 356.627 163.102 352.954 162.856C344.744 162.296 336.604 161.596 328.434 160.676C324.241 160.209 320.064 159.672 315.904 159.066C311.744 158.459 307.594 157.772 303.454 157.006C296.334 155.656 289.294 154.006 282.354 152.006C280.964 151.606 279.584 151.196 278.214 150.766C269.684 148.064 261.32 144.865 253.164 141.186C250.574 140.026 248.004 138.836 245.434 137.626C242.864 136.416 240.324 135.166 237.784 133.936C234.364 132.276 230.954 130.606 227.524 128.936C220.914 125.776 214.374 122.816 207.524 120.166C203.524 118.626 199.524 117.226 195.354 115.986C191.564 114.836 187.734 113.846 183.834 112.986C180.454 112.252 177.044 111.636 173.604 111.136C170.164 110.646 166.694 110.266 163.224 110.026C156.665 109.566 150.083 109.566 143.524 110.026C140.051 110.279 136.594 110.652 133.154 111.146C129.714 111.639 126.301 112.256 122.914 112.996C119.027 113.842 115.187 114.842 111.394 115.996C107.264 117.246 103.234 118.636 99.2241 120.186C92.3441 122.836 85.8041 125.806 79.2241 128.966C75.7974 130.606 72.3807 132.272 68.9741 133.966C66.4207 135.206 63.8674 136.436 61.3141 137.656C58.7441 138.876 56.1741 140.066 53.5841 141.226C45.4179 144.899 37.0435 148.091 28.5041 150.786C27.1241 151.216 25.7441 151.626 24.3541 152.026C17.4141 154.026 10.3541 155.656 3.23407 157.026C-0.90593 157.806 -5.06594 158.499 -9.24594 159.106C-13.4259 159.712 -17.6226 160.232 -21.8359 160.666C-30.0459 161.586 -38.2259 162.296 -46.4659 162.856C-50.0926 163.109 -53.7193 163.332 -57.3459 163.526C-61.8059 163.766 -66.2559 163.966 -70.7259 164.156C-78.7259 164.476 -86.7059 164.719 -94.6659 164.886C-102.626 165.052 -110.523 165.182 -118.356 165.276C-126.183 165.369 -134.009 165.439 -141.836 165.486C-149.663 165.532 -157.433 165.592 -165.146 165.666H-178.336" stroke="white" stroke-linecap="round" stroke-linejoin="round"/>
<path d="M507.604 74.185H470.954C462.167 74.185 453.377 74.185 444.584 74.185L428.274 74.135H417.424C408.011 74.135 398.597 74.0917 389.184 74.005C379.264 73.945 369.344 73.875 359.424 73.795C350.691 73.7217 341.967 73.625 333.254 73.505L327.314 73.415C315.314 73.2283 303.287 72.985 291.234 72.685C283.734 72.505 276.231 72.305 268.724 72.085L246.904 71.405C237.364 71.105 227.824 70.785 218.274 70.505C203.534 70.055 189.104 69.685 174.364 69.505C160.164 69.315 146.594 69.325 132.364 69.505C117.614 69.705 103.184 70.085 88.4441 70.505C78.9041 70.795 69.3641 71.115 59.8241 71.415C52.5441 71.655 45.2674 71.8816 37.9941 72.095C30.4941 72.3216 22.9941 72.5283 15.4941 72.715C3.49406 73.015 -8.53593 73.2616 -20.5959 73.455L-26.5259 73.545C-35.2526 73.6717 -43.9759 73.7716 -52.6959 73.845C-62.6293 73.945 -72.5559 74.0183 -82.4759 74.065C-91.8893 74.125 -101.306 74.175 -110.726 74.215H-121.566L-137.836 74.265H-164.226H-178.336" stroke="white" stroke-linecap="round" stroke-linejoin="round"/>
<path d="M507.602 318.055H496.602L473.822 317.974C466.189 317.974 458.559 317.931 450.932 317.844C443.305 317.758 435.639 317.688 427.932 317.634C420.212 317.548 412.492 317.418 404.772 317.244C397.052 317.071 389.265 316.831 381.412 316.524C373.522 316.194 365.672 315.785 357.802 315.235C351.702 314.805 345.612 314.294 339.542 313.664C337.662 313.478 335.789 313.275 333.922 313.055C329.869 312.588 325.832 312.055 321.812 311.455C317.812 310.845 313.812 310.164 309.812 309.384C301.671 307.815 293.636 305.741 285.752 303.175C279.536 301.11 273.434 298.717 267.472 296.004C265.782 295.234 264.092 294.434 262.422 293.624C260.482 292.674 258.552 291.695 256.642 290.705C254.732 289.715 252.822 288.705 250.932 287.705C247.142 285.645 243.402 283.534 239.632 281.444C235.862 279.354 231.962 277.185 228.052 275.145C223.522 272.765 218.972 270.545 214.252 268.485C210.002 266.645 205.702 264.985 201.252 263.485C194.414 261.199 187.419 259.414 180.322 258.145C177.522 257.645 174.702 257.214 171.872 256.874C168.632 256.484 165.372 256.194 162.112 256.004C156.313 255.679 150.501 255.679 144.702 256.004C141.435 256.184 138.179 256.474 134.932 256.874C132.099 257.214 129.279 257.638 126.472 258.145C119.378 259.418 112.386 261.206 105.552 263.494C101.132 264.974 96.8219 266.644 92.5519 268.494C87.8219 270.544 83.2819 272.775 78.7419 275.145C74.8419 277.195 71.0019 279.315 67.1619 281.455C63.3219 283.595 59.6519 285.654 55.8619 287.724C53.9719 288.724 52.0619 289.724 50.1519 290.724C48.2419 291.724 46.3119 292.725 44.3619 293.645C42.6919 294.455 41.0119 295.254 39.3119 296.024C33.3483 298.747 27.2428 301.147 21.0219 303.214C13.12 305.793 5.06416 307.874 -3.09811 309.444C-7.09811 310.234 -11.0981 310.914 -15.1681 311.524C-19.2381 312.134 -23.2781 312.654 -27.3481 313.124C-29.1781 313.344 -31.0281 313.545 -32.8781 313.735C-39.0381 314.401 -45.2115 314.928 -51.3981 315.314C-59.3281 315.874 -67.2481 316.315 -75.1981 316.615C-83.1481 316.915 -90.8981 317.165 -98.7581 317.335C-106.618 317.505 -114.338 317.634 -122.118 317.724C-129.898 317.814 -137.588 317.884 -145.318 317.934C-153.048 317.984 -160.708 318.035 -168.398 318.075H-178.328" stroke="white" stroke-linecap="round" stroke-linejoin="round"/>
<path d="M507.604 287.565H503.344C495.897 287.565 488.454 287.538 481.014 287.485C473.574 287.432 466.124 287.388 458.664 287.355C451.191 287.308 443.724 287.238 436.264 287.145C428.804 287.052 421.327 286.922 413.834 286.755C406.334 286.588 398.837 286.348 391.344 286.035C386.604 285.835 381.867 285.592 377.134 285.305C374.354 285.135 371.574 284.955 368.814 284.745C361.274 284.185 353.754 283.495 346.264 282.565C342.504 282.105 338.744 281.565 335.014 280.975C331.284 280.385 327.544 279.685 323.854 278.895C316.445 277.342 309.156 275.26 302.044 272.665C295.005 270.051 288.195 266.857 281.684 263.115C275.174 259.385 269.024 255.185 262.984 250.895C262.034 250.225 261.084 249.555 260.144 248.895C257.554 247.045 254.974 245.185 252.364 243.355C249.754 241.525 247.134 239.715 244.454 237.955C237.845 233.574 230.915 229.696 223.724 226.355C222.097 225.615 220.454 224.905 218.794 224.225C212.048 221.494 205.096 219.3 198.004 217.665L196.174 217.265C191.124 216.165 185.984 215.325 180.824 214.695C176.824 214.205 172.824 213.845 168.824 213.595C165.354 213.375 161.824 213.225 158.374 213.155C155.054 213.085 151.704 213.085 148.374 213.155C144.894 213.225 141.374 213.375 137.924 213.595C133.924 213.855 129.924 214.215 125.924 214.705C120.764 215.335 115.624 216.175 110.564 217.275L108.744 217.685C101.647 219.315 94.692 221.509 87.9441 224.245C86.2841 224.925 84.6341 225.635 83.0141 226.375C75.8034 229.716 68.8539 233.593 62.2241 237.975C59.5441 239.725 56.9141 241.525 54.3041 243.355C51.6941 245.185 49.1141 247.045 46.5341 248.895L43.6241 250.975C37.5641 255.285 31.3741 259.545 24.8541 263.315C18.299 267.106 11.4344 270.334 4.33406 272.965C-2.83795 275.566 -10.191 277.639 -17.6659 279.165C-21.4059 279.945 -25.1659 280.615 -28.9359 281.215C-32.7059 281.815 -36.5059 282.315 -40.3059 282.765C-47.8559 283.675 -55.4359 284.365 -63.0359 284.915C-65.5359 285.095 -68.0359 285.255 -70.5459 285.415C-75.5993 285.715 -80.6626 285.968 -85.7359 286.175C-93.2759 286.495 -100.819 286.735 -108.366 286.895C-115.913 287.055 -123.439 287.178 -130.946 287.265C-138.459 287.358 -145.973 287.428 -153.486 287.475C-160.999 287.522 -168.493 287.565 -175.966 287.605L-178.336 287.665" stroke="white" stroke-linecap="round" stroke-linejoin="round"/>
</g>
</g>
<path fill-rule="evenodd" clip-rule="evenodd" d="M162.608 0.165039H162.618C163.723 0.165073 164.618 1.06053 164.618 2.1651C164.618 3.26967 163.723 4.16507 162.618 4.16504H162.608C161.504 4.16507 160.608 3.26967 160.608 2.1651C160.608 1.06053 161.504 0.165073 162.608 0.165039ZM152.644 2.45816C152.725 3.55973 151.898 4.51873 150.797 4.60016L150.787 4.60089C149.685 4.68239 148.726 3.85547 148.645 2.75391C148.563 1.65235 149.39 0.693291 150.492 0.611793L150.502 0.611049C151.603 0.529619 152.562 1.3566 152.644 2.45816ZM172.583 2.45817C172.664 1.3566 173.623 0.529622 174.725 0.611053L174.735 0.611797C175.837 0.693295 176.663 1.65235 176.582 2.75391C176.5 3.85547 175.541 4.68239 174.44 4.60089L174.43 4.60017C173.328 4.51874 172.501 3.55973 172.583 2.45817ZM140.742 3.63485C140.905 4.72729 140.152 5.74524 139.059 5.9085L139.05 5.90995C137.957 6.07328 136.939 5.3201 136.776 4.22767C136.613 3.13524 137.366 2.11725 138.458 1.95392L138.468 1.95243C139.561 1.78917 140.579 2.54242 140.742 3.63485ZM184.485 3.63486C184.648 2.54242 185.666 1.78918 186.758 1.95244L186.768 1.95393C187.861 2.11726 188.614 3.13525 188.451 4.22768C188.287 5.3201 187.269 6.07329 186.177 5.90995L186.167 5.90851C185.075 5.74524 184.321 4.7273 184.485 3.63486ZM128.949 5.69989C129.194 6.77698 128.519 7.84862 127.442 8.09345L127.432 8.09564C126.355 8.34054 125.284 7.66593 125.039 6.58885C124.794 5.51178 125.468 4.4401 126.545 4.19519L126.555 4.19296C127.632 3.94812 128.704 4.6228 128.949 5.69989ZM196.278 5.69989C196.523 4.6228 197.594 3.94812 198.671 4.19296L198.681 4.1952C199.758 4.44011 200.433 5.51178 200.188 6.58886C199.943 7.66594 198.871 8.34055 197.794 8.09564L197.785 8.09346C196.708 7.84862 196.033 6.77699 196.278 5.69989ZM117.354 8.64293C117.68 9.69854 117.087 10.8179 116.032 11.1431L116.022 11.146C114.967 11.4713 113.847 10.8793 113.522 9.82366C113.197 8.76807 113.789 7.64866 114.845 7.32338L114.854 7.32042C115.91 6.99521 117.029 7.58732 117.354 8.64293ZM207.872 8.64293C208.197 7.58732 209.317 6.99522 210.372 7.32043L210.382 7.32339C211.438 7.64867 212.03 8.76808 211.704 9.82367C211.379 10.8793 210.26 11.4713 209.204 11.146L209.195 11.1431C208.139 10.8179 207.547 9.69854 207.872 8.64293ZM106.006 12.4536C106.41 13.4817 105.904 14.6425 104.876 15.0463L104.867 15.0499C103.838 15.4538 102.678 14.9478 102.274 13.9197C101.87 12.8916 102.376 11.7308 103.404 11.3269L103.413 11.3232C104.442 10.9194 105.602 11.4255 106.006 12.4536ZM219.22 12.4536C219.624 11.4255 220.785 10.9194 221.813 11.3232L221.823 11.3269C222.851 11.7308 223.357 12.8916 222.953 13.9197C222.549 14.9478 221.388 15.4538 220.36 15.0499L220.351 15.0463C219.323 14.6425 218.817 13.4817 219.22 12.4536ZM94.9838 17.1048C95.4637 18.0996 95.0463 19.2952 94.0514 19.7751L94.0425 19.7794C93.0477 20.2594 91.8521 19.842 91.3721 18.8472C90.8921 17.8523 91.3095 16.6568 92.3043 16.1768L92.3134 16.1724C93.3083 15.6925 94.5039 16.1099 94.9838 17.1048ZM230.243 17.1048C230.723 16.1099 231.918 15.6925 232.913 16.1724L232.922 16.1768C233.917 16.6568 234.334 17.8524 233.854 18.8472C233.374 19.842 232.179 20.2594 231.184 19.7794L231.175 19.7751C230.18 19.2952 229.763 18.0996 230.243 17.1048ZM84.336 22.5735C84.8891 23.5296 84.5625 24.7531 83.6064 25.3062L83.5979 25.3112C82.6418 25.8644 81.4183 25.5378 80.8651 24.5817C80.3119 23.6257 80.6385 22.4022 81.5945 21.849L81.6033 21.8439C82.5594 21.2908 83.7828 21.6174 84.336 22.5735ZM240.891 22.5735C241.444 21.6174 242.667 21.2908 243.623 21.8439L243.632 21.849C244.588 22.4022 244.915 23.6257 244.361 24.5818C243.808 25.5378 242.585 25.8644 241.629 25.3112L241.62 25.3062C240.664 24.7531 240.337 23.5296 240.891 22.5735ZM74.131 28.8219C74.754 29.734 74.5197 30.9784 73.6076 31.6014L73.5994 31.607C72.6874 32.23 71.4429 31.9957 70.8198 31.0837C70.1968 30.1716 70.4311 28.9271 71.3431 28.3041L71.3515 28.2984C72.2636 27.6754 73.508 27.9097 74.131 28.8219ZM251.096 28.8219C251.719 27.9098 252.963 27.6754 253.875 28.2984L253.883 28.3041C254.796 28.9272 255.03 30.1716 254.407 31.0837C253.784 31.9958 252.539 32.23 251.627 31.607L251.619 31.6014C250.707 30.9784 250.473 29.734 251.096 28.8219ZM64.419 35.8155C65.1082 36.6786 64.9672 37.9371 64.104 38.6263L64.0963 38.6324C63.2332 39.3217 61.9747 39.1807 61.2854 38.3176C60.5962 37.4545 60.7371 36.196 61.6003 35.5068L61.6081 35.5005C62.4713 34.8113 63.7298 34.9523 64.419 35.8155ZM260.808 35.8155C261.497 34.9523 262.755 34.8113 263.618 35.5005L263.626 35.5068C264.489 36.196 264.63 37.4545 263.941 38.3176C263.252 39.1808 261.993 39.3217 261.13 38.6325L261.123 38.6263C260.259 37.9371 260.118 36.6787 260.808 35.8155ZM55.2551 43.5118C56.0066 44.3213 55.9595 45.5868 55.1499 46.3382L55.1427 46.3449C54.3332 47.0964 53.0677 47.0494 52.3162 46.2399C51.5647 45.4304 51.6118 44.1649 52.4213 43.4134L52.4287 43.4066C53.2382 42.6551 54.5037 42.7022 55.2551 43.5118ZM269.971 43.5118C270.723 42.7022 271.988 42.6551 272.798 43.4066L272.805 43.4134C273.615 44.165 273.662 45.4304 272.91 46.2399C272.159 47.0494 270.893 47.0965 270.084 46.345L270.077 46.3383C269.267 45.5868 269.22 44.3214 269.971 43.5118ZM46.6882 51.868C47.4977 52.6195 47.5447 53.8849 46.7932 54.6945L46.7865 54.7017C46.035 55.5112 44.7696 55.5583 43.96 54.8069C43.1505 54.0554 43.1034 52.79 43.8548 51.9804L43.8617 51.973C44.6132 51.1635 45.8787 51.1165 46.6882 51.868ZM278.538 51.868C279.348 51.1165 280.613 51.1635 281.365 51.973L281.372 51.9804C282.123 52.79 282.076 54.0554 281.267 54.8069C280.457 55.5583 279.192 55.5112 278.44 54.7017L278.433 54.6945C277.682 53.885 277.729 52.6195 278.538 51.868ZM38.7659 60.8372C39.629 61.5264 39.77 62.7849 39.0807 63.648L39.0746 63.6557C38.3853 64.5189 37.1269 64.6599 36.2637 63.9707C35.4006 63.2815 35.2595 62.0231 35.9487 61.1599L35.955 61.152C36.6443 60.2889 37.9028 60.1479 38.7659 60.8372ZM286.461 60.8372C287.324 60.1479 288.582 60.2889 289.272 61.152L289.278 61.1599C289.967 62.0231 289.826 63.2815 288.963 63.9707C288.1 64.6599 286.841 64.5189 286.152 63.6557L286.146 63.6481C285.457 62.7849 285.598 61.5265 286.461 60.8372ZM31.5319 70.3716C32.444 70.9946 32.6783 72.2391 32.0552 73.1512L32.0497 73.1593C31.4267 74.0714 30.1822 74.3058 29.2701 73.6828C28.358 73.0598 28.1236 71.8153 28.7466 70.9032L28.7523 70.8949C29.3754 69.9828 30.6199 69.7485 31.5319 70.3716ZM293.695 70.3716C294.607 69.7485 295.851 69.9828 296.474 70.8949L296.48 70.9032C297.103 71.8153 296.869 73.0598 295.956 73.6828C295.044 74.3058 293.8 74.0714 293.177 73.1593L293.171 73.1512C292.548 72.2391 292.783 70.9947 293.695 70.3716ZM25.03 80.4168C25.986 80.9701 26.3126 82.1936 25.7594 83.1496L25.7545 83.1581C25.2013 84.1142 23.9779 84.4409 23.0218 83.8877C22.0657 83.3346 21.739 82.1111 22.2922 81.155L22.2972 81.1463C22.8504 80.1902 24.0739 79.8636 25.03 80.4168ZM300.197 80.4169C301.153 79.8637 302.376 80.1902 302.929 81.1463L302.934 81.155C303.488 82.1111 303.161 83.3346 302.205 83.8877C301.249 84.4409 300.025 84.1142 299.472 83.1581L299.467 83.1496C298.914 82.1936 299.241 80.9701 300.197 80.4169ZM19.2954 90.9239C20.2903 91.4038 20.7076 92.5994 20.2276 93.5943L20.2234 93.6031C19.7434 94.598 18.5479 95.0154 17.553 94.5355C16.5582 94.0556 16.1407 92.86 16.6206 91.8652L16.625 91.8561C17.105 90.8612 18.3006 90.4439 19.2954 90.9239ZM305.931 90.9239C306.926 90.4439 308.122 90.8613 308.602 91.8561L308.606 91.8652C309.086 92.8601 308.668 94.0556 307.674 94.5355C306.679 95.0155 305.483 94.598 305.003 93.6032L304.999 93.5943C304.519 92.5994 304.936 91.4039 305.931 90.9239ZM14.3679 101.826C15.396 102.229 15.902 103.39 15.4982 104.418L15.4946 104.427C15.0908 105.456 13.93 105.962 12.9019 105.558C11.8737 105.154 11.3676 103.993 11.7715 102.965L11.7751 102.956C12.179 101.928 13.3398 101.422 14.3679 101.826ZM310.859 101.826C311.887 101.422 313.048 101.928 313.451 102.956L313.455 102.965C313.859 103.993 313.353 105.154 312.325 105.558C311.297 105.962 310.136 105.456 309.732 104.427L309.728 104.418C309.325 103.39 309.831 102.229 310.859 101.826ZM10.2719 113.074C11.3275 113.399 11.9195 114.519 11.5943 115.574L11.5914 115.584C11.2662 116.639 10.1468 117.231 9.09118 116.906C8.03557 116.581 7.44346 115.461 7.76867 114.406L7.77163 114.396C8.09691 113.341 9.21632 112.749 10.2719 113.074ZM314.955 113.074C316.01 112.749 317.13 113.341 317.455 114.396L317.458 114.406C317.783 115.462 317.191 116.581 316.135 116.906C315.08 117.231 313.96 116.639 313.635 115.584L313.632 115.574C313.307 114.519 313.899 113.399 314.955 113.074ZM7.0371 124.59C8.11418 124.835 8.78879 125.907 8.54388 126.984L8.5417 126.994C8.29686 128.071 7.22523 128.745 6.14813 128.501C5.07104 128.256 4.39637 127.184 4.6412 126.107L4.64344 126.097C4.88835 125.02 5.96003 124.345 7.0371 124.59ZM318.189 124.59C319.267 124.346 320.338 125.02 320.583 126.097L320.585 126.107C320.83 127.184 320.156 128.256 319.078 128.501C318.001 128.745 316.93 128.071 316.685 126.994L316.683 126.984C316.438 125.907 317.112 124.835 318.189 124.59ZM4.67592 136.328C5.76835 136.491 6.52153 137.509 6.3582 138.602L6.35675 138.611C6.19348 139.704 5.17554 140.457 4.0831 140.294C2.99066 140.13 2.23742 139.112 2.40068 138.02L2.40217 138.01C2.5655 136.918 3.58349 136.164 4.67592 136.328ZM320.551 136.328C321.643 136.164 322.661 136.918 322.824 138.01L322.826 138.02C322.989 139.112 322.236 140.13 321.143 140.294C320.051 140.457 319.033 139.704 318.87 138.611L318.868 138.602C318.705 137.509 319.458 136.491 320.551 136.328ZM3.20215 148.196C4.30371 148.278 5.13063 149.237 5.04914 150.338L5.04841 150.348C4.96698 151.45 4.00797 152.277 2.90641 152.195C1.80485 152.114 0.977865 151.155 1.05929 150.053L1.06004 150.043C1.14154 148.942 2.10059 148.115 3.20215 148.196ZM322.024 148.196C323.126 148.115 324.085 148.942 324.167 150.043L324.167 150.053C324.249 151.155 323.422 152.114 322.32 152.195C321.219 152.277 320.26 151.45 320.178 150.348L320.177 150.339C320.096 149.237 320.923 148.278 322.024 148.196ZM2.61334 160.16C3.71791 160.16 4.61332 161.055 4.61328 162.16V162.17C4.61332 163.275 3.71791 164.17 2.61334 164.17C1.50877 164.17 0.613315 163.275 0.613281 162.17V162.16C0.613315 161.055 1.50877 160.16 2.61334 160.16ZM322.613 160.16C323.718 160.16 324.613 161.055 324.613 162.16V162.17C324.613 163.275 323.718 164.17 322.613 164.17C321.509 164.17 320.613 163.275 320.613 162.17V162.16C320.613 161.056 321.509 160.16 322.613 160.16ZM2.90641 172.135C4.00797 172.053 4.96698 172.88 5.04841 173.982L5.04913 173.992C5.13063 175.093 4.30371 176.052 3.20215 176.134C2.10059 176.215 1.14153 175.388 1.06004 174.287L1.05929 174.277C0.977861 173.175 1.80484 172.216 2.90641 172.135ZM322.32 172.135C323.422 172.216 324.249 173.175 324.167 174.277L324.167 174.287C324.085 175.388 323.126 176.215 322.024 176.134C320.923 176.052 320.096 175.093 320.177 173.992L320.178 173.982C320.26 172.88 321.219 172.053 322.32 172.135ZM4.0831 184.036C5.17553 183.873 6.19348 184.626 6.35674 185.719L6.35819 185.729C6.52152 186.821 5.76834 187.839 4.67591 188.002C3.58349 188.166 2.56549 187.412 2.40216 186.32L2.40068 186.31C2.23741 185.218 2.99066 184.2 4.0831 184.036ZM321.143 184.036C322.236 184.2 322.989 185.218 322.826 186.31L322.824 186.32C322.661 187.412 321.643 188.166 320.551 188.002C319.458 187.839 318.705 186.821 318.868 185.729L318.87 185.719C319.033 184.626 320.051 183.873 321.143 184.036ZM6.14813 195.829C7.22522 195.585 8.29686 196.259 8.5417 197.336L8.54388 197.346C8.78878 198.423 8.11417 199.495 7.0371 199.74C5.96002 199.985 4.88834 199.31 4.64344 198.233L4.6412 198.223C4.39636 197.146 5.07104 196.074 6.14813 195.829ZM319.078 195.829C320.156 196.074 320.83 197.146 320.585 198.223L320.583 198.233C320.338 199.31 319.267 199.985 318.189 199.74C317.112 199.495 316.438 198.423 316.683 197.346L316.685 197.336C316.93 196.259 318.001 195.585 319.078 195.829ZM9.09117 207.424C10.1468 207.099 11.2662 207.691 11.5914 208.746L11.5943 208.756C11.9195 209.811 11.3275 210.931 10.2719 211.256C9.21632 211.581 8.0969 210.989 7.77163 209.934L7.76866 209.924C7.44345 208.869 8.03556 207.749 9.09117 207.424ZM316.135 207.424C317.191 207.749 317.783 208.869 317.458 209.924L317.455 209.934C317.13 210.989 316.01 211.581 314.955 211.256C313.899 210.931 313.307 209.811 313.632 208.756L313.635 208.747C313.96 207.691 315.08 207.099 316.135 207.424ZM12.9018 218.772C13.93 218.368 15.0908 218.874 15.4946 219.903L15.4982 219.912C15.902 220.94 15.396 222.101 14.3679 222.505C13.3398 222.908 12.179 222.402 11.7751 221.374L11.7714 221.365C11.3676 220.337 11.8737 219.176 12.9018 218.772ZM312.325 218.772C313.353 219.176 313.859 220.337 313.455 221.365L313.451 221.374C313.048 222.402 311.887 222.908 310.859 222.505C309.831 222.101 309.325 220.94 309.728 219.912L309.732 219.903C310.136 218.875 311.297 218.368 312.325 218.772ZM17.553 229.795C18.5479 229.315 19.7434 229.732 20.2233 230.727L20.2276 230.736C20.7076 231.731 20.2902 232.926 19.2954 233.406C18.3006 233.886 17.105 233.469 16.625 232.474L16.6206 232.465C16.1407 231.47 16.5582 230.274 17.553 229.795ZM307.674 229.795C308.668 230.274 309.086 231.47 308.606 232.465L308.602 232.474C308.122 233.469 306.926 233.886 305.931 233.406C304.936 232.926 304.519 231.731 304.999 230.736L305.003 230.727C305.483 229.732 306.679 229.315 307.674 229.795ZM23.0218 240.442C23.9779 239.889 25.2013 240.216 25.7545 241.172L25.7594 241.18C26.3126 242.137 25.986 243.36 25.03 243.913C24.0739 244.466 22.8504 244.14 22.2972 243.184L22.2922 243.175C21.739 242.219 22.0657 240.995 23.0218 240.442ZM302.205 240.442C303.161 240.996 303.488 242.219 302.934 243.175L302.929 243.184C302.376 244.14 301.153 244.466 300.197 243.913C299.241 243.36 298.914 242.137 299.467 241.18L299.472 241.172C300.025 240.216 301.249 239.889 302.205 240.442ZM29.2701 250.647C30.1822 250.024 31.4267 250.259 32.0497 251.171L32.0552 251.179C32.6783 252.091 32.444 253.335 31.5319 253.958C30.6199 254.582 29.3754 254.347 28.7523 253.435L28.7466 253.427C28.1236 252.515 28.358 251.27 29.2701 250.647ZM295.956 250.647C296.869 251.27 297.103 252.515 296.48 253.427L296.474 253.435C295.851 254.347 294.607 254.582 293.695 253.959C292.783 253.335 292.548 252.091 293.171 251.179L293.177 251.171C293.8 250.259 295.044 250.024 295.956 250.647ZM36.2637 260.359C37.1269 259.67 38.3853 259.811 39.0745 260.674L39.0807 260.682C39.7699 261.545 39.629 262.804 38.7659 263.493C37.9027 264.182 36.6443 264.041 35.955 263.178L35.9487 263.17C35.2595 262.307 35.4005 261.049 36.2637 260.359ZM288.963 260.359C289.826 261.049 289.967 262.307 289.278 263.17L289.272 263.178C288.582 264.041 287.324 264.182 286.461 263.493C285.598 262.804 285.457 261.545 286.146 260.682L286.152 260.674C286.841 259.811 288.1 259.67 288.963 260.359ZM43.96 269.523C44.7696 268.772 46.035 268.819 46.7865 269.628L46.7932 269.636C47.5447 270.445 47.4977 271.711 46.6881 272.462C45.8786 273.214 44.6132 273.167 43.8617 272.357L43.8548 272.35C43.1034 271.54 43.1505 270.275 43.96 269.523ZM281.267 269.523C282.076 270.275 282.123 271.54 281.372 272.35L281.365 272.357C280.613 273.167 279.348 273.214 278.538 272.462C277.729 271.711 277.682 270.445 278.433 269.636L278.44 269.628C279.192 268.819 280.457 268.772 281.267 269.523ZM52.3162 278.09C53.0677 277.281 54.3332 277.234 55.1427 277.985L55.1499 277.992C55.9595 278.743 56.0066 280.009 55.2551 280.818C54.5037 281.628 53.2382 281.675 52.4286 280.923L52.4212 280.917C51.6117 280.165 51.5647 278.9 52.3162 278.09ZM272.91 278.09C273.662 278.9 273.615 280.165 272.805 280.917L272.798 280.924C271.988 281.675 270.723 281.628 269.971 280.818C269.22 280.009 269.267 278.743 270.077 277.992L270.084 277.985C270.893 277.234 272.159 277.281 272.91 278.09ZM61.2854 286.012C61.9747 285.149 63.2331 285.008 64.0963 285.698L64.104 285.704C64.9671 286.393 65.1082 287.651 64.419 288.515C63.7297 289.378 62.4713 289.519 61.6081 288.83L61.6002 288.823C60.7371 288.134 60.5962 286.876 61.2854 286.012ZM263.941 286.012C264.63 286.876 264.489 288.134 263.626 288.823L263.618 288.83C262.755 289.519 261.497 289.378 260.808 288.515C260.118 287.651 260.259 286.393 261.123 285.704L261.13 285.698C261.993 285.008 263.252 285.149 263.941 286.012ZM70.8198 293.246C71.4429 292.334 72.6873 292.1 73.5994 292.723L73.6075 292.729C74.5196 293.352 74.754 294.596 74.131 295.508C73.508 296.42 72.2635 296.655 71.3514 296.032L71.3431 296.026C70.431 295.403 70.1968 294.158 70.8198 293.246ZM254.407 293.246C255.03 294.158 254.796 295.403 253.883 296.026L253.875 296.032C252.963 296.655 251.719 296.42 251.096 295.508C250.473 294.596 250.707 293.352 251.619 292.729L251.627 292.723C252.539 292.1 253.784 292.334 254.407 293.246ZM80.8651 299.748C81.4183 298.792 82.6418 298.466 83.5978 299.019L83.6064 299.024C84.5625 299.577 84.8891 300.8 84.336 301.757C83.7828 302.713 82.5593 303.039 81.6032 302.486L81.5945 302.481C80.6385 301.928 80.3119 300.704 80.8651 299.748ZM244.361 299.748C244.915 300.704 244.588 301.928 243.632 302.481L243.623 302.486C242.667 303.039 241.444 302.713 240.891 301.757C240.337 300.8 240.664 299.577 241.62 299.024L241.629 299.019C242.585 298.466 243.808 298.792 244.361 299.748ZM91.3721 305.483C91.8521 304.488 93.0477 304.071 94.0425 304.551L94.0514 304.555C95.0462 305.035 95.4637 306.23 94.9837 307.225C94.5038 308.22 93.3083 308.638 92.3134 308.158L92.3043 308.153C91.3095 307.673 90.8921 306.478 91.3721 305.483ZM233.854 305.483C234.334 306.478 233.917 307.673 232.922 308.153L232.913 308.158C231.918 308.638 230.723 308.22 230.243 307.225C229.763 306.23 230.18 305.035 231.175 304.555L231.184 304.551C232.179 304.071 233.374 304.488 233.854 305.483ZM102.274 310.41C102.678 309.382 103.838 308.876 104.867 309.28L104.876 309.284C105.904 309.688 106.41 310.848 106.006 311.876C105.602 312.905 104.441 313.411 103.413 313.007L103.404 313.003C102.376 312.599 101.87 311.438 102.274 310.41ZM222.953 310.41C223.357 311.438 222.851 312.599 221.823 313.003L221.813 313.007C220.785 313.411 219.624 312.905 219.22 311.876C218.817 310.848 219.323 309.688 220.351 309.284L220.36 309.28C221.388 308.876 222.549 309.382 222.953 310.41ZM113.522 314.506C113.847 313.451 114.967 312.859 116.022 313.184L116.032 313.187C117.087 313.512 117.68 314.632 117.354 315.687C117.029 316.743 115.91 317.335 114.854 317.01L114.845 317.007C113.789 316.681 113.197 315.562 113.522 314.506ZM211.704 314.506C212.03 315.562 211.438 316.681 210.382 317.007L210.372 317.01C209.317 317.335 208.197 316.743 207.872 315.687C207.547 314.632 208.139 313.512 209.195 313.187L209.204 313.184C210.26 312.859 211.379 313.451 211.704 314.506ZM125.039 317.741C125.284 316.664 126.355 315.99 127.432 316.234L127.442 316.237C128.519 316.481 129.194 317.553 128.949 318.63C128.704 319.707 127.632 320.382 126.555 320.137L126.545 320.135C125.468 319.89 124.794 318.818 125.039 317.741ZM200.188 317.741C200.433 318.818 199.758 319.89 198.681 320.135L198.671 320.137C197.594 320.382 196.523 319.707 196.278 318.63C196.033 317.553 196.708 316.481 197.785 316.237L197.794 316.234C198.871 315.99 199.943 316.664 200.188 317.741ZM136.776 320.102C136.939 319.01 137.957 318.257 139.05 318.42L139.059 318.422C140.152 318.585 140.905 319.603 140.742 320.695C140.579 321.788 139.561 322.541 138.468 322.378L138.458 322.376C137.366 322.213 136.613 321.195 136.776 320.102ZM188.451 320.102C188.614 321.195 187.861 322.213 186.768 322.376L186.758 322.378C185.666 322.541 184.648 321.788 184.485 320.695C184.321 319.603 185.075 318.585 186.167 318.422L186.177 318.42C187.269 318.257 188.287 319.01 188.451 320.102ZM148.645 321.576C148.726 320.475 149.685 319.648 150.787 319.729L150.797 319.73C151.898 319.811 152.725 320.77 152.644 321.872C152.562 322.973 151.603 323.8 150.502 323.719L150.492 323.718C149.39 323.637 148.563 322.678 148.645 321.576ZM176.582 321.576C176.663 322.678 175.836 323.637 174.735 323.718L174.725 323.719C173.623 323.8 172.664 322.973 172.583 321.872C172.501 320.77 173.328 319.811 174.43 319.73L174.44 319.729C175.541 319.648 176.5 320.475 176.582 321.576ZM160.608 322.165C160.608 321.06 161.504 320.165 162.608 320.165H162.618C163.723 320.165 164.618 321.06 164.618 322.165C164.618 323.27 163.723 324.165 162.618 324.165H162.608C161.504 324.165 160.608 323.27 160.608 322.165Z" fill="#E4E6E7"/>
<path d="M18.6328 220.629C18.6328 223.39 16.3942 225.629 13.6328 225.629C10.8714 225.629 8.63281 223.39 8.63281 220.629C8.63281 217.867 10.8714 215.629 13.6328 215.629C16.3942 215.629 18.6328 217.867 18.6328 220.629Z" fill="url(#paint2_linear_949_4763)"/>
<path d="M276.439 279.446C276.439 282.208 274.201 284.446 271.439 284.446C268.678 284.446 266.439 282.208 266.439 279.446C266.439 276.685 268.678 274.446 271.439 274.446C274.201 274.446 276.439 276.685 276.439 279.446Z" fill="url(#paint3_linear_949_4763)"/>
<defs>
<linearGradient id="paint0_linear_949_4763" x1="286.613" y1="38.165" x2="38.6132" y2="286.165" gradientUnits="userSpaceOnUse">
<stop offset="0.21627" stop-color="#FFE600"/>
<stop offset="0.597222" stop-color="#FD6A00"/>
</linearGradient>
<linearGradient id="paint1_linear_949_4763" x1="266.613" y1="58.165" x2="58.6133" y2="266.165" gradientUnits="userSpaceOnUse">
<stop offset="0.21627" stop-color="#FFE600"/>
<stop offset="0.597222" stop-color="#FD6A00"/>
</linearGradient>
<linearGradient id="paint2_linear_949_4763" x1="18.6328" y1="215.629" x2="8.63281" y2="225.629" gradientUnits="userSpaceOnUse">
<stop offset="0.21627" stop-color="#FFE600"/>
<stop offset="0.597222" stop-color="#FD6A00"/>
</linearGradient>
<linearGradient id="paint3_linear_949_4763" x1="276.439" y1="274.446" x2="266.439" y2="284.446" gradientUnits="userSpaceOnUse">
<stop offset="0.21627" stop-color="#FFE600"/>
<stop offset="0.597222" stop-color="#FD6A00"/>
</linearGradient>
</defs>
</svg>
