<svg width="80" height="83" viewBox="0 0 80 83" fill="none" xmlns="http://www.w3.org/2000/svg">
<path d="M46.5289 70.6106C44.5018 66.8956 43.411 62.7398 43.3516 58.5052C43.2922 54.2707 44.266 50.0857 46.1882 46.315L43.547 42.6408L39.2873 41.1597C36.2215 44.0735 32.4918 46.1911 28.4231 47.328C24.3544 48.4648 20.0703 48.5865 15.944 47.6823C12.0818 57.6511 11.9682 63.4331 20.7149 73.3165C32.557 78.8705 38.0378 77.1046 46.5289 70.6106Z" fill="#FFE100"/>
<path d="M41.5034 30.0963C38.6636 26.5075 22.0221 21.5516 9.10088 26.0518C-7.79612 31.7483 9.44168 51.0308 26.3387 47.8692C37.1017 45.847 46.3595 36.277 41.5034 30.0963Z" fill="#D9F1FD"/>
<path d="M22.6345 34.3224L21.9245 33.0691C21.2809 33.4451 20.6971 33.9155 20.1922 34.4647C18.5156 34.6067 16.8474 34.8348 15.1941 35.1483V34.8635C13.7507 34.0729 12.4826 32.9961 11.4672 31.6986C10.4517 30.401 9.70998 28.9098 9.28721 27.3157L7.83896 27.686L6.36219 28.0847C7.23265 31.1763 8.96697 33.9534 11.3603 36.0882C8.63141 36.8882 6.00914 38.0167 3.55078 39.4491L5.08432 42.0979C9.00738 39.8339 13.343 38.3812 17.8351 37.8256C16.4124 41.0625 15.9395 44.6392 16.472 48.1362L19.4823 47.7944C18.8287 44.2089 19.5706 40.5086 21.5553 37.4553C27.6246 37.1466 33.7039 37.8199 39.5598 39.4491L40.4686 36.6009C34.6452 34.9393 28.6008 34.1898 22.5493 34.3792L22.6345 34.3224Z" fill="#00AEEF"/>
<path d="M56.156 41.0723C60.3874 42.7812 69.6736 57.4496 69.134 71.1212C68.4525 88.9796 45.166 77.8429 43.4337 60.6965C42.3262 49.7593 48.8577 38.1386 56.156 41.0723Z" fill="#D9F1FD"/>
<path d="M68.0706 74.2507V71.2315C66.4256 71.274 64.7893 70.9803 63.2612 70.3682C61.733 69.7562 60.3451 68.8385 59.1818 67.6713L58.9263 67.8421C58.7797 66.1579 58.5331 64.484 58.1879 62.8292C58.5534 62.1827 58.8395 61.4942 59.0399 60.7786L57.6483 60.4368C56.1195 54.5639 53.696 48.9629 50.4635 43.8315L47.9361 45.5121C51.1426 50.6943 53.5011 56.3579 54.9221 62.288C52.5569 65.0567 49.2231 66.8102 45.6074 67.1871L46.1186 70.0353C49.6283 69.5785 52.9319 68.1148 55.632 65.82C56.3473 70.2994 56.1834 74.8758 55.1493 79.2921L57.9892 80.0327C58.6765 77.237 59.0198 74.3674 59.0115 71.488C61.6587 73.1502 64.7202 74.0289 67.8434 74.0229L68.0706 74.2507Z" fill="#00AEEF"/>
<path d="M79.2319 18.1681C79.0206 17.9587 78.7696 17.7941 78.4936 17.684C78.2042 17.615 77.9026 17.615 77.6132 17.684C77.3117 17.6853 77.0131 17.7433 76.7328 17.8549C76.4621 17.9724 76.2199 18.1473 76.0229 18.3675C72.6995 21.8219 68.3416 24.0924 63.6128 24.8331C62.4843 23.4255 61.1871 22.1627 59.7507 21.0734C57.8694 19.6795 55.78 18.5931 53.5599 17.8549C52.733 12.8957 53.6462 7.80234 56.144 3.44281C56.2765 3.17206 56.372 2.88469 56.428 2.58838C56.4854 2.29687 56.4854 1.99693 56.428 1.70543C56.3602 1.41184 56.224 1.13846 56.0305 0.907843C55.853 0.657824 55.6195 0.453088 55.3489 0.309825C55.086 0.165195 54.7958 0.077767 54.497 0.0534079C54.2078 -0.0178026 53.9058 -0.0178026 53.6166 0.0534079C53.327 0.129158 53.0562 0.264484 52.8216 0.450811C52.5869 0.637139 52.3934 0.870408 52.2535 1.13575C49.5254 5.90622 48.3631 11.4165 48.9309 16.8864C46.5171 16.6332 44.0787 16.9937 41.8403 17.9345C39.602 18.8753 37.6358 20.3661 36.1232 22.2696C35.6723 22.8906 35.2733 23.5479 34.9305 24.2349C26.3377 21.5227 17.135 21.4336 8.4916 23.9786C1.98838 26.2003 -1.07863 30.7573 0.341289 36.169C1.61921 41.1249 6.58893 45.9954 12.9502 48.6157C11.1685 52.2931 10.5855 56.4395 11.2838 60.4676C11.982 64.4957 13.9261 68.2014 16.8407 71.0598L15.0233 81.0286L24.0824 76.5001C27.0477 78.0862 30.3489 78.9359 33.7094 78.978C34.8334 78.974 35.9549 78.869 37.0603 78.6646C40.6306 77.9889 43.9438 76.3324 46.6307 73.8796C48.4128 76.2977 50.6857 78.3097 53.2996 79.7825C55.9135 81.2554 58.8091 82.1557 61.7954 82.4242H62.1361C67.8158 82.2534 71.252 78.038 71.5075 71.0313C71.5108 61.9715 68.8215 53.1163 63.7832 45.5966C64.3454 45.0856 64.8588 44.5231 65.3167 43.9163C66.5466 42.2062 67.3767 40.2402 67.7454 38.1643C68.1141 36.0885 68.012 33.956 67.4466 31.9251C67.1565 30.8007 66.7668 29.7045 66.2823 28.6496C71.274 27.5174 75.8254 24.9429 79.3739 21.2443C79.5817 21.0298 79.744 20.7754 79.8514 20.4964C79.9587 20.2174 80.0089 19.9196 79.9987 19.6208C79.9982 19.3183 79.9376 19.019 79.8206 18.7402C79.7036 18.4615 79.5324 18.2089 79.3171 17.9972L79.2319 18.1681ZM50.2656 44.7137C52.5124 48.6636 54.349 52.8343 55.7465 57.1604C55.1715 59.1944 54.0655 61.0376 52.5428 62.4997C51.0202 63.9617 49.1361 64.9898 47.0849 65.4774C46.4029 63.8891 45.9534 62.2103 45.7503 60.493C45.3958 57.6932 45.6133 54.8502 46.3896 52.1374C47.1658 49.4247 48.4846 46.8988 50.2656 44.7137ZM43.5352 46.6505C41.8947 50.2236 41.0424 54.1097 41.0362 58.0434C38.3664 58.3619 35.6798 57.6037 33.5674 55.9357C32.4936 55.1723 31.5817 54.2026 30.8846 53.083C30.1875 51.9633 29.7191 50.716 29.5064 49.4133C33.2923 48.2757 36.7889 46.3327 39.7582 43.7169C40.9037 44.8089 42.1711 45.7646 43.5352 46.5651V46.6505ZM26.269 35.0013C30.7885 35.1958 35.2781 35.8349 39.673 36.9095C38.1002 39.2494 36.0672 41.2422 33.6987 42.7654C31.3302 44.2887 28.6762 45.3102 25.8998 45.7675C24.196 46.0853 22.4563 46.1621 20.7313 45.9954C20.6092 43.8481 21.0736 41.7081 22.0744 39.8059C23.0753 37.9037 24.5746 36.3115 26.411 35.2007L26.269 35.0013ZM20.5893 26.6275C29.8756 26.6275 38.4235 29.732 39.815 31.5263C40.1874 31.9931 40.4495 32.5384 40.5818 33.1213C40.7227 33.7015 40.7227 34.3071 40.5818 34.8872C36.7134 33.9383 32.7702 33.3285 28.7965 33.0645C24.6138 32.7841 20.413 32.9751 16.2728 33.634C13.8969 32.4375 12.0387 30.4117 11.0475 27.9375C14.1706 27.0573 17.4022 26.6259 20.6461 26.656L20.5893 26.6275ZM4.74309 34.9443C4.00473 32.096 5.48141 30.0169 9.0596 28.5928C9.97534 30.8076 11.4185 32.7635 13.2626 34.2892C10.6131 34.9331 8.0489 35.8892 5.62343 37.1375C5.2372 36.4978 4.94095 35.8076 4.74309 35.0866V34.9443ZM6.78777 38.6469C11.9179 36.2733 17.4956 35.0302 23.1452 35.0013C21.7376 36.3686 20.6275 38.0133 19.8847 39.8318C19.1418 41.6504 18.7822 43.6034 18.8286 45.5681C14.1295 44.6836 9.86081 42.2471 6.70258 38.6469H6.78777ZM36.18 73.9366C33.8277 74.2788 31.4302 74.1235 29.1413 73.4809C26.8524 72.8383 24.7229 71.7226 22.8896 70.2054C16.7839 65.6197 13.0354 57.7871 17.2099 49.7836C17.9199 49.9545 18.6582 50.0683 19.3966 50.1822C19.7296 52.9182 20.6201 55.5563 22.0124 57.9326C23.4047 60.309 25.2691 62.373 27.4901 63.9963C31.0506 66.7107 35.3994 68.1812 39.8718 68.1831C40.9372 68.1833 42.0008 68.0976 43.0524 67.9268C43.3364 68.5819 43.6488 69.2085 43.9895 69.8351C41.833 71.9416 39.108 73.3676 36.1517 73.9366H36.18ZM57.7628 77.0127C53.4607 74.9546 49.9854 71.489 47.9085 67.1863C49.7687 66.6672 51.5038 65.773 53.0077 64.5585C54.5116 63.344 55.7528 61.8347 56.6553 60.1227C58.2277 65.6469 58.6053 71.4442 57.7628 77.1266V77.0127ZM61.9089 77.8101C61.1752 77.8157 60.4429 77.7489 59.7223 77.6107C60.1948 74.9039 60.3568 72.1516 60.2051 69.4078C62.1727 70.7441 64.4328 71.5845 66.7934 71.8574C66.4242 75.7025 64.7771 77.7247 61.9089 77.8101ZM66.8786 69.8066C64.2373 69.5505 61.7769 68.347 59.9495 66.4172C59.4175 62.2325 58.4073 58.1231 56.9392 54.1698C55.5855 50.4155 53.8936 46.7928 51.8843 43.3466C52.3989 43.0421 52.9767 42.8605 53.5726 42.816C54.1685 42.7716 54.7666 42.8654 55.3205 43.0902C58.1604 44.2295 66.8502 57.075 66.8786 69.8066Z" fill="black"/>
</svg>
