<svg width="56" height="56" viewBox="0 0 56 56" fill="none" xmlns="http://www.w3.org/2000/svg">
<path d="M11.1765 6.25409L10.899 6.50724L20.61 16.1267C19.1806 18.4444 18.4371 21.1221 18.466 23.8476C18.4089 25.6812 18.7292 27.5069 19.4069 29.2107C20.0846 30.9144 21.1051 32.4596 22.4047 33.7496C23.7043 35.0396 25.255 36.0468 26.9599 36.7081C28.6649 37.3695 30.4874 37.6709 32.3137 37.5934C35.0547 37.6341 37.7502 36.8876 40.0825 35.4417L49.8439 45.1877C47.2505 48.588 43.9034 51.3351 40.0681 53.2113C36.2328 55.0876 32.0147 56.0413 27.7482 55.997C24.1174 56.0508 20.5123 55.3782 17.1433 54.0186C13.7743 52.6589 10.7088 50.6393 8.12597 48.0778C5.5431 45.5162 3.4945 42.4639 2.09975 39.0992C0.704998 35.7344 -0.00796198 32.1245 0.00248331 28.4802C-0.0562899 24.1462 0.928976 19.8621 2.87445 15.9923C4.81993 12.1226 7.66804 8.78176 11.1765 6.25409ZM16.5995 2.53286C20.3136 0.839481 24.3499 -0.0242362 28.4293 0.00141865C32.0472 -0.0355367 35.6363 0.649854 38.9879 2.01772C42.3395 3.38559 45.3866 5.40864 47.952 7.96919C50.5174 10.5297 52.5499 13.5767 53.9313 16.9328C55.3127 20.2889 56.0154 23.8871 55.9985 27.5182C56.0416 31.6223 55.1803 35.6851 53.4761 39.416L44.774 30.6825C46.1769 28.3998 46.9192 25.7703 46.918 23.0882C46.993 21.2409 46.6852 19.398 46.0142 17.6762C45.3432 15.9543 44.3236 14.3909 43.0197 13.0847C41.7159 11.7786 40.1563 10.7581 38.4394 10.0878C36.7225 9.41752 34.8857 9.112 33.0452 9.19057C30.3709 9.17577 27.7472 9.92183 25.4781 11.3423L16.5995 2.53286ZM33.1965 31.0116C32.105 31.0498 31.0173 30.8639 29.9999 30.4653C28.9825 30.0667 28.057 29.4637 27.28 28.6934C26.5031 27.9231 25.891 27.0017 25.4814 25.9856C25.0718 24.9696 24.8733 23.8802 24.898 22.7844C24.8557 21.6782 25.0412 20.575 25.4429 19.544C25.8446 18.5129 26.454 17.5761 27.2328 16.7921C28.0116 16.0081 28.9432 15.3937 29.9693 14.9874C30.9955 14.5811 32.0941 14.3916 33.1965 14.4307C34.2939 14.4062 35.3848 14.6059 36.4029 15.0177C37.421 15.4296 38.3451 16.0448 39.1189 16.8262C39.8927 17.6075 40.5002 18.5386 40.9043 19.5629C41.3084 20.5872 41.5008 21.6832 41.4698 22.7844C41.5123 23.8863 41.3274 24.985 40.9267 26.0117C40.526 27.0384 39.9181 27.9709 39.1412 28.7506C38.3643 29.5303 37.4352 30.1404 36.4122 30.5426C35.3892 30.9447 34.2944 31.1303 33.1965 31.0876V31.0116Z" fill="#00ABE4"/>
</svg>
