<svg width="58" height="56" viewBox="0 0 58 56" fill="none" xmlns="http://www.w3.org/2000/svg">
<path fill-rule="evenodd" clip-rule="evenodd" d="M50.8037 10.0035C51.7986 10.5335 52.5945 11.3947 52.9261 12.4547L57.9668 34.1179C58.0995 35.2442 57.8342 36.3704 57.1709 37.2979L43.1762 54.5887C42.4467 55.5824 41.3191 56.1124 40.1253 55.9799H17.8399C16.7123 55.9137 15.5848 55.3837 14.7889 54.5887L0.794206 37.2979C0.13095 36.3704 -0.134352 35.2442 0.0646249 34.1179L5.03904 12.3222C5.30434 11.196 6.03393 10.3348 7.02881 9.87102L27.2581 0.132497C27.7887 0 28.3856 0 28.9162 0C29.4468 0 30.0438 0.0662484 30.5744 0.331242L50.8037 10.0035ZM49.6738 33.1898C49.6738 33.256 49.7401 33.256 49.8064 33.256C50.4033 33.3885 50.9339 33.9185 51.0003 34.6472C50.8013 35.1772 50.2707 35.5747 49.6738 35.5747C49.5411 35.5747 49.4748 35.5747 49.3421 35.5085C49.304 35.4704 49.2878 35.4542 49.2683 35.4473C49.2539 35.4422 49.2377 35.4422 49.2095 35.4422C49.1318 35.4422 49.0768 35.4195 49.0313 35.4007C48.9991 35.3873 48.9716 35.376 48.9442 35.376C48.7474 35.3268 48.5871 35.2413 48.4092 35.1463C48.3472 35.1132 48.2831 35.079 48.2146 35.0447C48.0819 35.0447 47.9493 34.9785 47.8166 34.9122H47.7503C47.0871 34.6472 46.3575 34.4485 45.6279 34.316H45.5616C45.3626 34.316 45.1636 34.3822 45.031 34.5147C45.031 34.5147 45.031 34.581 44.9646 34.581L44.434 34.5147C43.2402 38.2909 40.6535 41.4708 37.2709 43.5245L37.4699 44.0545C37.4699 44.0545 37.4035 44.0545 37.4035 44.1208C37.2709 44.3195 37.2709 44.5845 37.3372 44.7832C37.6025 45.4457 37.9341 46.1082 38.3984 46.7044V46.8369C38.5311 46.9694 38.5974 47.0357 38.6637 47.1682C38.8627 47.3669 38.9953 47.5657 39.128 47.8307C39.1943 47.8969 39.2606 47.9632 39.2606 48.0294C39.2606 48.0294 39.327 48.0294 39.327 48.0957C39.4596 48.4269 39.4596 48.7581 39.3933 49.0894C39.327 49.4206 39.0617 49.6856 38.7964 49.8181C38.7548 49.832 38.7162 49.8458 38.6792 49.859C38.5391 49.9091 38.4232 49.9506 38.2658 49.9506C37.7352 49.9506 37.2709 49.6194 37.0056 49.1556C36.9393 49.1556 36.9393 49.0894 36.9393 49.0894C36.9061 49.0563 36.8895 49.0231 36.8729 48.99C36.8563 48.9569 36.8398 48.9238 36.8066 48.8906C36.6739 48.6919 36.6076 48.4269 36.5413 48.1619L36.4086 47.7644V47.6982C36.2097 46.9694 35.878 46.307 35.5464 45.6445C35.4138 45.4457 35.2148 45.3132 35.0158 45.247C35.0158 45.1807 35.0158 45.1807 34.9495 45.1807L34.6842 44.717C34.5154 44.7676 34.3423 44.8224 34.1661 44.8783C33.6496 45.042 33.1057 45.2145 32.5618 45.3132C31.3679 45.6445 30.174 45.777 28.9802 45.777C26.9904 45.777 25.067 45.4457 23.2099 44.717L22.9446 45.247C22.9446 45.2801 22.9446 45.2967 22.9363 45.3049C22.928 45.3132 22.9114 45.3132 22.8782 45.3132C22.6793 45.3795 22.4803 45.512 22.3476 45.7107L22.3476 45.7108C22.016 46.3732 21.6844 47.0357 21.4854 47.7644L21.3527 48.1619C21.3196 48.2944 21.2698 48.4103 21.2201 48.5263C21.1703 48.6422 21.1206 48.7582 21.0874 48.8906C21.0211 48.9569 20.9548 49.0231 20.9548 49.0894C20.8885 49.0894 20.8885 49.1556 20.8885 49.1556C20.6232 49.6194 20.1589 49.9506 19.6283 49.9506C19.4956 49.9506 19.2967 49.8844 19.164 49.8181C18.5671 49.4869 18.3018 48.6919 18.6334 48.0294C18.6997 48.0294 18.6997 47.9632 18.6997 47.9632C18.7329 47.93 18.7495 47.8969 18.766 47.8638C18.7826 47.8307 18.7992 47.7975 18.8324 47.7644C18.9196 47.6482 18.9941 47.5321 19.0614 47.427C19.1477 47.2925 19.2222 47.1763 19.2967 47.1019L19.2967 47.1019C19.4293 46.9694 19.4956 46.9032 19.562 46.7707V46.7044C19.9599 46.1082 20.3579 45.4457 20.6232 44.7832C20.6895 44.5845 20.6895 44.3195 20.5568 44.1208C20.5568 44.1208 20.4905 44.1208 20.4905 44.0545L20.8221 43.5908C20.1589 43.2595 19.6283 42.862 19.0313 42.3983C16.4447 40.4108 14.5875 37.6947 13.5927 34.6472L12.9957 34.7135C12.9957 34.7135 12.9957 34.6472 12.9294 34.6472C12.7967 34.5147 12.5978 34.4485 12.3988 34.4485H12.3325C11.5366 34.581 10.8733 34.7797 10.1437 35.0447H10.0774C9.94475 35.0447 9.8121 35.111 9.67944 35.1772C9.60537 35.2019 9.5221 35.2357 9.43305 35.2719C9.28293 35.3329 9.11639 35.4006 8.94986 35.4422C8.92978 35.4422 8.89754 35.4361 8.86234 35.4295C8.78129 35.4142 8.68456 35.396 8.68456 35.4422C8.68456 35.4753 8.68456 35.4919 8.67628 35.5002C8.66799 35.5085 8.65141 35.5085 8.61824 35.5085C8.48558 35.5747 8.41926 35.5747 8.28661 35.5747C7.68968 35.641 7.09275 35.2435 6.9601 34.6472C6.82745 33.9185 7.29172 33.256 8.02131 33.1235C8.05944 33.0854 8.07565 33.0692 8.09514 33.0624C8.10956 33.0573 8.12576 33.0573 8.15396 33.0573C8.23166 33.0573 8.28661 33.0345 8.33213 33.0157C8.36431 33.0024 8.39179 32.991 8.41926 32.991C8.55191 32.991 8.68456 32.9745 8.81721 32.9579C8.94986 32.9413 9.08251 32.9248 9.21517 32.9248C9.34782 32.8585 9.48047 32.8585 9.61312 32.8585C10.409 32.7923 11.1386 32.6598 11.8682 32.461C12.0672 32.3285 12.2661 32.196 12.3325 31.9973C12.3325 31.9973 12.3988 31.9973 12.3988 31.931L12.9294 31.7986C12.3325 28.0224 13.1947 24.18 15.2508 20.9338C15.284 20.8676 15.3171 20.8179 15.3503 20.7682C15.3834 20.7185 15.4166 20.6688 15.4498 20.6026L15.0648 20.218C15.095 20.0274 14.9739 19.796 14.8528 19.6751C14.3222 19.1451 13.659 18.7476 12.9957 18.3501L12.5978 18.1514L12.5977 18.1513C12.3324 18.0189 12.0672 17.8864 11.8682 17.7539C11.8019 17.7539 11.6692 17.6214 11.6692 17.6214C11.6692 17.6214 11.6692 17.5551 11.6029 17.5551C11.0723 17.0914 10.9396 16.2964 11.3376 15.7002C11.5366 15.3689 11.8682 15.2364 12.2661 15.2364C12.5978 15.2364 12.9294 15.3689 13.1947 15.5677L13.261 15.6339C13.2942 15.6671 13.3273 15.6836 13.3605 15.7002C13.3937 15.7167 13.4268 15.7333 13.46 15.7664C13.5595 15.8658 13.6424 15.9652 13.7253 16.0646C13.8082 16.1639 13.8911 16.2633 13.9906 16.3627C14.0107 16.3827 14.0368 16.4028 14.0654 16.4247C14.1312 16.4751 14.2097 16.5353 14.2559 16.6277C14.7202 17.1576 15.3171 17.6876 15.914 18.1514C16.0467 18.2176 16.1793 18.2839 16.312 18.2839C16.3897 18.2839 16.4447 18.2611 16.4902 18.2423C16.5224 18.229 16.5498 18.2176 16.5773 18.2176H16.6436L17.0416 18.4826C19.2303 16.1639 22.0823 14.5077 25.1996 13.8452C25.3145 13.8261 25.428 13.807 25.5403 13.7881C26.2062 13.6759 26.8304 13.5707 27.4547 13.514L27.521 12.984V12.8515C27.72 12.719 27.7863 12.5203 27.8526 12.3215C27.8526 11.5265 27.8526 10.7978 27.72 10.0691V10.0028C27.72 9.87032 27.72 9.73783 27.6537 9.60533L27.6537 9.60531C27.5873 9.34032 27.521 9.07533 27.521 8.81035V8.47911C27.521 8.14786 27.6537 7.81662 27.919 7.55163C28.2506 7.22039 28.6486 7.02164 29.0465 7.08789C29.7098 7.15414 30.2404 7.81662 30.174 8.47911V8.8766C30.1409 9.00909 30.1243 9.14159 30.1077 9.27409C30.0911 9.40658 30.0746 9.53908 30.0414 9.67158C30.0414 9.73783 30.0248 9.80407 30.0082 9.87032C29.9916 9.93657 29.9751 10.0028 29.9751 10.0691V10.1353C29.8424 10.9303 29.8424 11.659 29.8424 12.3878C29.9087 12.5865 29.9751 12.7853 30.174 12.9178V12.8515L30.2404 13.3815C33.3577 13.7127 36.4086 14.9052 38.8627 16.8264C39.128 17.0914 39.4099 17.3564 39.6918 17.6214C39.9736 17.8864 40.2555 18.1514 40.5208 18.4164L41.0514 18.0851H41.1178C41.1841 18.1514 41.3167 18.1514 41.3831 18.1514C41.5157 18.1514 41.6484 18.0851 41.781 18.0189C42.3779 17.6214 42.9749 17.0914 43.4392 16.5614C43.4592 16.5414 43.4854 16.5213 43.514 16.4994C43.5797 16.449 43.6582 16.3888 43.7045 16.2964C43.8371 16.0977 44.0361 15.8989 44.2351 15.7002C44.3014 15.7002 44.3677 15.6339 44.434 15.5677L44.5004 15.5014C44.7657 15.3027 45.0973 15.1702 45.4289 15.1702C45.7605 15.1702 46.1585 15.3689 46.3575 15.6339C46.8218 16.2302 46.6891 17.0252 46.0922 17.4889C46.0922 17.5142 46.1019 17.5298 46.1101 17.5432C46.1235 17.5648 46.1332 17.5804 46.0922 17.6214C46.059 17.6545 46.0259 17.6711 45.9927 17.6876C45.9595 17.7042 45.9264 17.7208 45.8932 17.7539C45.7605 17.8201 45.6445 17.8864 45.5284 17.9526C45.4123 18.0189 45.2963 18.0851 45.1636 18.1514L44.7657 18.3501C44.1024 18.7476 43.5055 19.1451 42.9085 19.6751C42.7759 19.8076 42.7096 20.0726 42.7096 20.2713V20.3376L42.3116 20.7351C43.3728 22.3913 44.1687 24.2462 44.633 26.1674C45.031 28.0886 45.1636 30.0761 44.8983 31.9973L45.4289 32.1298C45.4952 32.3285 45.6942 32.5273 45.8932 32.5935C46.6228 32.7923 47.4187 32.9248 48.1483 32.991H48.2146C48.3472 33.0573 48.4799 33.0573 48.6125 33.0573C48.8779 33.0573 49.1432 33.0573 49.4085 33.1235C49.5411 33.1235 49.6738 33.1235 49.6738 33.1898ZM15.0648 20.218L15.0518 20.2051V20.2713C15.0576 20.254 15.0619 20.2362 15.0648 20.218ZM28.8475 32.0635L30.6383 31.2023L31.1026 29.2811L29.8424 27.6911H27.8526L26.5925 29.2811L27.0567 31.2023L28.8475 32.0635ZM41.7147 31.0698C41.8473 29.6786 41.781 28.2874 41.4494 26.8962C41.1178 25.505 40.5872 24.18 39.8576 22.9875L34.8832 27.4924C34.7505 27.6249 34.6842 27.7574 34.6179 27.9561C34.4852 28.5524 34.8168 29.1486 35.4138 29.2811L41.7147 31.0698ZM32.4291 24.3787L37.8678 20.5363C35.878 18.5489 33.2913 17.2901 30.373 16.9589L30.771 23.65C30.771 23.8487 30.8373 23.9812 30.9699 24.1137C31.3016 24.5775 31.9648 24.6437 32.4291 24.3787ZM27.1894 16.8927L25.8629 17.1576C23.5415 17.6876 21.4191 18.8801 19.6946 20.5363L25.1996 24.445C25.2412 24.4588 25.2798 24.4726 25.3167 24.4859C25.4569 24.536 25.5728 24.5775 25.7302 24.5775C26.3272 24.5775 26.8578 24.1137 26.8578 23.5175L27.1894 16.8927ZM22.6793 27.3599L17.7712 22.9875C16.312 25.4387 15.6487 28.2874 15.8477 31.0698L22.2813 29.2149C22.5466 29.1486 22.6793 29.0824 22.8119 28.8836C23.2099 28.4199 23.1435 27.7574 22.6793 27.3599ZM23.2099 33.0573L16.6436 34.1835C17.5722 36.8334 19.4293 39.1521 21.7507 40.6758L24.2711 34.581C24.4037 34.3822 24.4037 34.1172 24.3374 33.9185C24.2711 33.3885 23.7405 33.0573 23.2099 33.0573ZM28.8475 42.7295C29.8424 42.7295 30.771 42.597 31.6995 42.3983C32.1638 42.2658 32.5618 42.1996 32.9597 42.1333L29.7761 36.3697L29.7761 36.3697C29.5771 36.1709 29.4444 36.0384 29.2455 35.906C28.7812 35.641 28.2506 35.7735 27.919 36.1709L24.669 42.0671C25.9955 42.4646 27.4547 42.7295 28.8475 42.7295ZM35.8117 40.6096C37.4035 39.6159 38.7964 38.2247 39.7912 36.6347C40.3219 35.906 40.7198 35.0447 41.0514 34.1172L34.4189 32.991C34.2199 32.991 34.0209 33.0573 33.8219 33.1235C33.3577 33.3223 33.0924 33.8523 33.225 34.3822L35.8117 40.6096Z" fill="#326DE6"/>
</svg>
