<svg width="56" height="56" viewBox="0 0 56 56" fill="none" xmlns="http://www.w3.org/2000/svg">
<circle cx="28" cy="28" r="28" fill="#F55C3D"/>
<path d="M28.0002 51C23.9286 51 20.6275 48.2493 20.6275 44.8571H35.373C35.373 48.2488 32.0719 51 28.0002 51ZM40.1776 42.8227H15.8215V38.3562H40.1781L40.1776 42.8227ZM40.0903 36.0573H15.891C15.8105 35.9634 15.7282 35.8709 15.6505 35.7757C13.1574 32.7141 12.5703 31.1159 12 29.4871C11.9904 29.4334 15.0231 30.1137 17.1737 30.603C17.1737 30.603 18.2803 30.862 19.8982 31.1603C18.3448 29.3187 17.4224 26.9777 17.4224 24.5849C17.4224 19.3318 21.4063 14.7414 19.969 11.031C21.3679 11.1462 22.8641 14.0167 22.9651 18.5049C24.4522 16.4266 25.0746 12.6311 25.0746 10.304C25.0746 7.89457 26.6444 5.09573 28.2147 5C26.815 7.33314 28.5773 9.3333 30.144 14.2951C30.7316 16.1588 30.6566 19.2953 31.1102 21.2843C31.2606 17.1531 31.963 11.1253 34.5544 9.04426C33.4112 11.665 34.7236 14.9444 35.6213 16.5209C37.0695 19.0645 37.9474 20.9916 37.9474 24.6363C37.9474 27.0799 37.0553 29.3807 35.5504 31.1792C37.2615 30.8546 38.4431 30.5618 38.4431 30.5618L44 29.4653C44 29.4653 43.1929 32.8233 40.0903 36.0573Z" fill="white"/>
</svg>
