<svg width="56" height="56" viewBox="0 0 56 56" fill="none" xmlns="http://www.w3.org/2000/svg">
<path d="M0 0V56H39.6624C43.9955 55.9997 48.151 54.2783 51.2149 51.2143C54.2787 48.1503 56 43.9947 56 39.6617V0H0ZM43.6507 35.3H45.741V37.3902H43.6507L43.6507 35.3ZM42.9934 26.3015H46.3894V29.6985H42.9934L42.9934 26.3015ZM42.4711 17.4322H46.9127V21.8777H42.4711L42.4711 17.4322ZM35.3006 43.646H37.3888V45.7362H35.2986L35.3006 43.646ZM34.6472 34.5411H38.0442V37.941H34.6472V34.5411ZM34.1249 25.7792H38.5714V30.2208H34.1298L34.1249 25.7792ZM34.6472 21.3524V17.9565H38.0442V21.3524L34.6472 21.3524ZM18.6092 43.646H20.6994V45.7362H18.6092V43.646ZM17.9558 34.6476H21.3528V38.0396H17.9558L17.9558 34.6476ZM18.6092 29.0451V26.9549H20.6994V29.0451L18.6092 29.0451ZM17.9558 17.9565H21.3528V21.3524H17.9558L17.9558 17.9565ZM10.263 43.646H12.3572V45.7362H10.263V43.646ZM10.263 35.3H12.3572V37.3902H10.263V35.3ZM9.61059 26.3015H13.0066V29.6985H9.61059V26.3015ZM9.08729 17.4322H13.5299V21.8777H9.08729V17.4322ZM7.13402 7.13588H48.862V15.4819H32.1726V48.8641H23.8274V15.4819H7.13402V7.13588Z" fill="black"/>
</svg>
